<svg xmlns="http://www.w3.org/2000/svg" width="101" height="98" viewBox="0 0 101 98">
  <g id="Group_13641" data-name="Group 13641" transform="translate(-805 -1360.57)">
    <rect id="Rectangle_722" data-name="Rectangle 722" width="101" height="98" rx="10" transform="translate(805 1360.57)" fill="#f5f5f5"/>
    <g id="trafic_lgiht-solar_power" data-name="trafic lgiht-solar power" transform="translate(824 1377.57)">
      <g id="Group_13639" data-name="Group 13639">
        <path id="Path_78537" data-name="Path 78537" d="M32,34a5,5,0,1,0-5-5,5,5,0,0,0,5,5Zm0-8a3,3,0,1,1-3,3A3,3,0,0,1,32,26Z" fill="#80c56d"/>
        <path id="Path_78538" data-name="Path 78538" d="M32,46a5,5,0,1,0-5-5,5,5,0,0,0,5,5Zm0-8a3,3,0,1,1-3,3A3,3,0,0,1,32,38Z" fill="#80c56d"/>
        <path id="Path_78539" data-name="Path 78539" d="M32,58a5,5,0,1,0-5-5,5,5,0,0,0,5,5Zm0-8a3,3,0,1,1-3,3,3,3,0,0,1,3-3Z" fill="#80c56d"/>
        <path id="Path_78540" data-name="Path 78540" d="M51.99,2.86A1,1,0,0,0,51,2H13a1,1,0,0,0-.99.86l-2,14a1.006,1.006,0,0,0,.23.8A1.037,1.037,0,0,0,11,18H31v2H22a1,1,0,0,0-1,1v2H15a1,1,0,0,0-.94,1.35l3,8A1.007,1.007,0,0,0,18,33h3v3H15a1,1,0,0,0-.94,1.35l3,8A1.007,1.007,0,0,0,18,46h3v2H15a1,1,0,0,0-.94,1.35l3,8A1.007,1.007,0,0,0,18,58h3v3a1,1,0,0,0,1,1H42a1,1,0,0,0,1-1V58h3a1.007,1.007,0,0,0,.94-.65l3-8A1.005,1.005,0,0,0,49,48H43V46h3a1.007,1.007,0,0,0,.94-.65l3-8A1.005,1.005,0,0,0,49,36H43V33h3a1.007,1.007,0,0,0,.94-.65l3-8A1.005,1.005,0,0,0,49,23H43V21a1,1,0,0,0-1-1H33V18H53a1.037,1.037,0,0,0,.76-.34,1.006,1.006,0,0,0,.23-.8ZM21,56H18.69l-2.25-6H21Zm0-12H18.69l-2.25-6H21Zm0-13H18.69l-2.25-6H21Zm22-6h4.56l-2.25,6H43Zm0,13h4.56l-2.25,6H43Zm0,12h4.56l-2.25,6H43ZM25.53,4H38.47l.24,2H25.29Zm-.47,4H38.94l.35,3H24.71Zm-2.95,8H12.15l.43-3h9.88Zm.58-5H12.87l.43-3h9.75Zm.59-5h-9.7l.29-2h9.64ZM41,22V60H23V22ZM24.12,16l.35-3H39.53l.35,3ZM40.49,4h9.64l.29,2h-9.7Zm.46,4H50.7l.43,3H41.31Zm.94,8-.35-3h9.88l.43,3Z" fill="#80c56d"/>
      </g>
    </g>
  </g>
</svg>
