<svg xmlns="http://www.w3.org/2000/svg" xmlns:xlink="http://www.w3.org/1999/xlink" width="815" height="678" viewBox="0 0 815 678">
  <defs>
    <clipPath id="clip-path">
      <rect id="Rectangle_2732" data-name="Rectangle 2732" width="815" height="678" transform="translate(1105 4346)" fill="#fff"/>
    </clipPath>
  </defs>
  <g id="Mask_Group_22" data-name="Mask Group 22" transform="translate(-1105 -4346)" clip-path="url(#clip-path)">
    <g id="Group_13604" data-name="Group 13604" transform="translate(1099 3919.136)">
      <path id="Path_78585" data-name="Path 78585" d="M-792.564,967.984c13.22,9.989,37.515-2.673,52.507-10s26.148-20.276,35.335-33.8c23.592-34.737,36.765-74.88,55.443-112.268s45.1-73.934,84.6-90.754c61.656-26.255,131.845,2.755,195.005,25.484,16.527,5.948,34.082,11.561,51.51,8.873,22.316-3.441,40.372-20.229,50.764-39.485s14.421-40.985,18.8-62.261c14.083-68.5,34.448-138.679,82.074-191.465S-14.012,361.47,101.227,404.057" transform="translate(792.564 179.901)" fill="none" stroke="#57b33e" stroke-miterlimit="10" stroke-width="0.712"/>
      <g id="Group_13603" data-name="Group 13603" transform="translate(8.464 0)">
        <path id="Path_78586" data-name="Path 78586" d="M-787.276,960.239c13.221,9.987,32.747,9.408,47.739,2.078s26.15-20.276,35.335-33.8c23.592-34.737,36.766-74.88,55.443-112.268s45.1-73.932,84.6-90.752c61.654-26.257,131.843,2.754,195,25.482,16.527,5.948,34.082,11.561,51.512,8.873,22.315-3.44,40.372-20.228,50.763-39.485s14.421-40.985,18.8-62.261c14.085-68.5,34.448-138.677,82.074-191.465s152.519-100.831,267.758-58.242" transform="translate(787.276 176.85)" fill="none" stroke="#57b33e" stroke-miterlimit="10" stroke-width="0.712"/>
        <path id="Path_78587" data-name="Path 78587" d="M98.671,404.513c-64.691-22.419-125.857-14.558-175.338,6.5-35.318,15.026-64.588,36.723-84.369,59.233C-179.38,491.033-193.895,514.3-205.8,538.87c-4.616,9.535-8.838,19.266-12.742,29.071a602.286,602.286,0,0,0-22.739,70.345q-2.713,10.36-5.163,20.684c-3.46,14.485-6.73,29.157-12.142,43a116.872,116.872,0,0,1-7.908,16.537A94.086,94.086,0,0,1-286.7,742.5c-8.966,7.575-19.219,13.305-30.5,15.453a59.754,59.754,0,0,1-13.049.954c-12.431-.391-24.77-4.128-36.56-8.044-11.75-3.9-23.755-8.03-35.908-11.953-30.9-9.979-62.735-18.563-94.341-18.682-20.228-.106-40.356,3.207-59.806,11.7a140.7,140.7,0,0,0-34.5,21.756c-21.859,18.477-38.618,42.675-51.9,67.2-13.384,24.775-24.253,50.766-37.61,75.752a313.143,313.143,0,0,1-20.432,33.509c-9.464,13.347-20.833,26.2-35.929,33.6s-34.609,8.264-47.952-1.194" transform="translate(788.523 176.766)" fill="none" stroke="#57b33e" stroke-miterlimit="10" stroke-width="0.706" opacity="0.976"/>
        <path id="Path_78588" data-name="Path 78588" d="M96.5,400.51C34.293,380.5-24.366,390.234-72.488,412.592c-34.245,15.912-62.973,38.122-82.671,61.126-18.209,21.106-32.867,44.546-45.182,69.081-4.768,9.515-9.181,19.2-13.32,28.866a634.124,634.124,0,0,0-24.567,68.221q-2.972,9.942-5.675,19.828c-3.814,13.867-7.42,27.881-13.088,41.057a108.564,108.564,0,0,1-8.216,15.76,102.684,102.684,0,0,1-20.687,23.29c-9.078,7.6-19.072,13.635-29.972,16.108a56.044,56.044,0,0,1-12.574,1.351c-11.95.014-23.808-3.235-35.13-6.658-11.282-3.4-22.816-7.031-34.49-10.456-29.687-8.718-60.28-16.009-91.287-15.042a154.347,154.347,0,0,0-59.329,13.116,154.129,154.129,0,0,0-34.82,21.826c-22.235,18.254-39.506,41.66-53.4,65.337-13.966,23.923-25.489,48.984-39.442,73.369a337.586,337.586,0,0,1-21.2,32.881c-9.742,13.168-21.324,25.922-36.524,33.4s-34.7,8.617-48.165-.311" transform="translate(790.311 177.391)" fill="none" stroke="#57b33e" stroke-miterlimit="10" stroke-width="0.701" opacity="0.951"/>
        <path id="Path_78589" data-name="Path 78589" d="M95.169,396.437c-59.713-17.6-115.857-6-162.629,17.673-33.17,16.788-61.3,39.572-80.976,63.018-18.017,21.468-32.873,45.029-45.6,69.532-4.92,9.5-9.523,19.13-13.9,28.658a687.079,687.079,0,0,0-26.394,66.1q-3.232,9.526-6.186,18.971c-4.169,13.249-8.145,26.591-14.035,39.114a104.273,104.273,0,0,1-8.521,14.983,115.031,115.031,0,0,1-21.166,22.59c-9.192,7.633-18.928,13.953-29.442,16.764a53.641,53.641,0,0,1-12.1,1.746c-11.468.389-22.846-2.342-33.7-5.272-10.815-2.907-21.875-6.031-33.072-8.96-28.475-7.457-57.818-13.38-88.233-11.4a165.911,165.911,0,0,0-58.852,14.531,170.11,170.11,0,0,0-35.135,21.9c-22.609,18.035-40.393,40.647-54.894,63.474-14.547,23.072-26.723,47.2-41.276,70.986A368.524,368.524,0,0,1-692.9,933.095c-10.021,12.987-21.814,25.647-37.118,33.2s-34.786,8.971-48.38.573" transform="translate(792.607 178.593)" fill="none" stroke="#57b33e" stroke-miterlimit="10" stroke-width="0.695" opacity="0.927"/>
        <path id="Path_78590" data-name="Path 78590" d="M94.637,392.352c-57.226-15.2-110.841-1.74-156.275,23.262-32.088,17.657-59.662,40.983-79.278,64.913-17.867,21.793-32.881,45.513-46.017,69.98-5.071,9.478-9.864,19.063-14.474,28.453-10.909,22.233-20.293,43.272-28.222,63.975q-3.491,9.111-6.7,18.116c-4.523,12.632-8.846,25.308-14.981,37.169a99.544,99.544,0,0,1-8.829,14.206c-5.7,7.58-13.182,14.917-21.644,21.891-9.3,7.662-18.781,14.27-28.912,17.419a51.13,51.13,0,0,1-11.625,2.143c-10.986.783-21.883-1.448-32.272-3.886-10.348-2.41-20.933-5.032-31.654-7.465-27.262-6.194-55.356-10.8-85.179-7.763A179.485,179.485,0,0,0-529.8,750.713a189.031,189.031,0,0,0-35.451,21.966c-22.987,17.814-41.331,39.6-56.39,61.609-15.179,22.187-27.958,45.422-43.109,68.6-6.994,10.641-14.419,21.286-22.726,31.63-10.3,12.808-22.305,25.373-37.714,33.006s-34.874,9.325-48.592,1.458" transform="translate(795.382 180.243)" fill="none" stroke="#57b33e" stroke-miterlimit="10" stroke-width="0.689" opacity="0.902"/>
        <path id="Path_78591" data-name="Path 78591" d="M94.848,388.308c-54.737-12.787-105.813,2.51-149.92,28.853-31,18.517-58.031,42.4-77.583,66.807-17.716,22.118-32.889,46-46.433,70.432-5.223,9.459-10.207,18.994-15.053,28.246-11.465,21.907-21.53,42.094-30.049,61.851q-3.75,8.7-7.209,17.26c-4.878,12.014-9.549,24.026-15.929,35.226a95.711,95.711,0,0,1-9.136,13.428c-5.884,7.183-13.563,14.2-22.123,21.191-9.416,7.691-18.632,14.589-28.381,18.075a49.156,49.156,0,0,1-11.149,2.54c-10.508,1.176-20.921-.555-30.844-2.5-9.88-1.913-19.992-4.033-30.236-5.968-26.05-4.933-52.893-8.224-82.124-4.121a196.378,196.378,0,0,0-57.9,17.361,211.963,211.963,0,0,0-35.766,22.035c-23.362,17.591-42.229,38.576-57.884,59.745-15.773,21.324-29.194,43.64-44.945,66.221-7.278,10.365-14.96,20.807-23.491,31-10.578,12.628-22.795,25.1-38.307,32.808-15.528,7.719-34.964,9.678-48.8,2.342" transform="translate(798.603 182.207)" fill="none" stroke="#57b33e" stroke-miterlimit="10" stroke-width="0.683" opacity="0.878"/>
        <path id="Path_78592" data-name="Path 78592" d="M95.753,384.365C43.5,373.986-5.028,391.108-47.814,418.807c-29.908,19.363-56.4,43.805-75.886,68.7-17.566,22.443-32.9,46.483-46.849,70.883-5.375,9.44-10.549,18.925-15.631,28.042-12.022,21.58-22.769,40.915-31.876,59.727q-4.009,8.278-7.721,16.4c-5.232,11.4-10.25,22.74-16.875,33.282a92.879,92.879,0,0,1-9.442,12.652c-6.074,6.785-13.946,13.473-22.6,20.492-9.528,7.719-18.483,14.906-27.849,18.729a47.427,47.427,0,0,1-10.676,2.937c-10.029,1.57-19.957.338-29.415-1.116-9.413-1.416-19.051-3.035-28.818-4.472-24.839-3.672-50.428-5.648-79.07-.483a218.048,218.048,0,0,0-57.419,18.776,240.608,240.608,0,0,0-36.081,22.105c-23.738,17.371-43.125,37.553-59.38,57.88-16.364,20.463-30.429,41.861-46.777,63.839-7.564,10.09-15.5,20.327-24.256,30.378-10.856,12.449-23.286,24.824-38.9,32.609-15.637,7.795-35.053,10.031-49.018,3.223" transform="translate(802.24 184.356)" fill="none" stroke="#57b33e" stroke-miterlimit="10" stroke-width="0.677" opacity="0.854"/>
        <path id="Path_78593" data-name="Path 78593" d="M97.3,380.574C47.538,372.6,1.558,391.536-39.914,420.606c-28.814,20.2-54.769,45.212-74.19,70.592-17.419,22.765-32.9,46.966-47.267,71.335-5.527,9.419-10.892,18.856-16.209,27.833-12.579,21.254-24.008,39.737-33.7,57.605q-4.269,7.863-8.233,15.548c-5.587,10.778-10.951,21.455-17.822,31.337a90.675,90.675,0,0,1-9.749,11.876c-6.265,6.389-14.326,12.751-23.081,19.792-9.64,7.748-18.333,15.221-27.318,19.386a46.145,46.145,0,0,1-10.2,3.332c-9.552,1.964-19,1.231-27.987.272-8.945-.92-18.11-2.036-27.4-2.977-23.627-2.412-47.962-3.073-76.016,3.156a246.231,246.231,0,0,0-56.943,20.192,277.2,277.2,0,0,0-36.4,22.172A344.812,344.812,0,0,0-593.3,848.075c-16.953,19.6-31.619,40.114-48.61,61.456-7.828,9.832-16.049,19.847-25.021,29.753-11.135,12.27-23.776,24.549-39.5,32.409-15.743,7.873-35.141,10.386-49.231,4.109" transform="translate(806.261 186.558)" fill="none" stroke="#57b33e" stroke-miterlimit="10" stroke-width="0.672" opacity="0.829"/>
        <path id="Path_78594" data-name="Path 78594" d="M99.43,376.993c-47.272-5.564-90.7,15.162-130.857,45.622A376.693,376.693,0,0,0-103.92,495.1c-17.273,23.085-32.912,47.45-47.685,71.784-5.677,9.4-11.234,18.787-16.786,27.628-13.134,20.927-25.247,38.559-35.53,55.481q-4.528,7.447-8.744,14.693c-5.943,10.16-11.65,20.167-18.77,29.392a89.676,89.676,0,0,1-10.055,11.1c-6.458,5.994-14.709,12.028-23.56,19.093-9.754,7.779-18.182,15.536-26.788,20.042a45.342,45.342,0,0,1-9.725,3.728c-9.077,2.359-18.033,2.1-26.558,1.658-8.478-.443-17.171-1.037-25.983-1.48-22.414-1.151-45.494-.5-72.961,6.8a284.387,284.387,0,0,0-56.465,21.607,324.74,324.74,0,0,0-36.712,22.243,385.433,385.433,0,0,0-62.37,54.153c-17.542,18.737-32.851,38.339-50.446,59.074-8.11,9.557-16.59,19.365-25.785,29.125-11.414,12.09-24.267,24.275-40.09,32.211-15.85,7.951-35.231,10.74-49.444,4.992" transform="translate(810.636 188.683)" fill="none" stroke="#57b33e" stroke-miterlimit="10" stroke-width="0.666" opacity="0.805"/>
        <path id="Path_78595" data-name="Path 78595" d="M102.1,373.678c-44.783-3.156-85.647,19.346-124.5,51.211a418.427,418.427,0,0,0-70.8,74.379c-17.127,23.4-32.92,47.935-48.1,72.236-5.829,9.382-11.577,18.72-17.366,27.422-13.689,20.6-26.486,37.381-37.357,53.359q-4.787,7.03-9.256,13.835c-6.3,9.542-12.347,18.88-19.715,27.449a89.951,89.951,0,0,1-10.362,10.322c-6.652,5.6-15.09,11.306-24.039,18.393-9.866,7.806-18.032,15.849-26.258,20.7a45.214,45.214,0,0,1-9.25,4.125c-8.6,2.755-17.071,2.995-25.128,3.044-8.012.05-16.231-.038-24.565.015-21.2.112-43.024,2.073-69.907,10.435a338.406,338.406,0,0,0-55.988,23.022,390.33,390.33,0,0,0-37.027,22.313,440.154,440.154,0,0,0-63.865,52.288c-18.128,17.876-34.084,36.563-52.279,56.691-8.395,9.285-17.135,18.886-26.551,28.5-11.69,11.911-24.757,24-40.684,32.012-15.957,8.028-35.321,11.093-49.657,5.876" transform="translate(815.333 190.597)" fill="none" stroke="#57b33e" stroke-miterlimit="10" stroke-width="0.66" opacity="0.78"/>
        <path id="Path_78596" data-name="Path 78596" d="M105.252,370.687c-42.294-.749-80.6,23.512-118.147,56.8A471.982,471.982,0,0,0-82,503.761c-16.982,23.722-32.926,48.418-48.517,72.685-5.981,9.363-11.919,18.651-17.944,27.216-14.246,20.274-27.725,36.2-39.184,51.235q-5.046,6.614-9.768,12.98c-6.65,8.925-13.043,17.59-20.661,25.5a91.652,91.652,0,0,1-10.668,9.544c-6.85,5.2-15.474,10.584-24.519,17.694-9.978,7.836-17.88,16.162-25.727,21.353a45.58,45.58,0,0,1-8.776,4.52c-8.129,3.151-16.109,3.885-23.7,4.43-7.548.543-15.29.962-23.147,1.513a235.619,235.619,0,0,0-66.853,14.075,419.14,419.14,0,0,0-55.512,24.437c-12.905,6.861-25.4,14.581-37.341,22.382a516.263,516.263,0,0,0-65.361,50.424c-18.714,17.014-35.316,34.788-54.113,54.309-8.677,9.011-17.676,18.406-27.315,27.873-11.969,11.73-25.247,23.726-41.28,31.812-16.065,8.105-35.409,11.447-49.87,6.761" transform="translate(820.321 192.17)" fill="none" stroke="#57b33e" stroke-miterlimit="10" stroke-width="0.654" opacity="0.756"/>
        <path id="Path_78597" data-name="Path 78597" d="M108.838,368.022c-39.807,1.66-75.55,27.659-111.793,62.391a542.19,542.19,0,0,0-67.405,78.165c-16.838,24.039-32.934,48.9-48.935,73.135-6.133,9.344-12.262,18.584-18.521,27.011-14.8,19.948-28.963,35.025-41.012,49.111q-5.306,6.2-10.279,12.124c-7,8.308-13.736,16.3-21.609,23.562a95,95,0,0,1-10.975,8.768c-7.049,4.8-15.853,9.861-25,16.995-10.09,7.863-17.726,16.471-25.2,22.007a46.808,46.808,0,0,1-8.3,4.917c-7.659,3.548-15.149,4.774-22.27,5.816-7.084,1.036-14.349,1.959-21.731,3.007-18.778,2.633-38.083,7.209-63.8,17.715A554.19,554.19,0,0,0-443.018,798.6c-12.928,7.009-25.541,14.755-37.656,22.451a628.421,628.421,0,0,0-66.856,48.56c-19.3,16.151-36.55,33.011-55.947,51.928-8.961,8.737-18.221,17.924-28.08,27.246C-643.8,960.334-657.3,972.234-673.43,980.4c-16.172,8.184-35.5,11.8-50.083,7.644" transform="translate(825.568 193.284)" fill="none" stroke="#57b33e" stroke-miterlimit="10" stroke-width="0.648" opacity="0.732"/>
        <path id="Path_78598" data-name="Path 78598" d="M112.8,365.563C75.485,369.63,42.3,397.351,7.365,433.543A638.457,638.457,0,0,0-58.343,513.6c-16.7,24.355-32.942,49.386-49.353,73.586-6.285,9.325-12.6,18.513-19.1,26.8-15.359,19.621-30.2,33.845-42.839,46.987q-5.565,5.784-10.789,11.269c-7.359,7.689-14.429,15.012-22.556,21.615a100.349,100.349,0,0,1-11.281,7.992c-7.25,4.409-16.236,9.139-25.476,16.3-10.2,7.894-17.574,16.782-24.666,22.664a49.325,49.325,0,0,1-7.825,5.314c-7.19,3.947-14.192,5.664-20.842,7.2-6.62,1.53-13.409,2.959-20.312,4.5-17.566,3.894-35.612,9.773-60.744,21.354-15.895,7.326-34.681,16.268-54.556,27.267-12.95,7.156-25.681,14.93-37.973,22.521a807.645,807.645,0,0,0-68.351,46.7c-19.88,15.29-37.784,31.236-57.781,49.545-9.245,8.465-18.763,17.446-28.845,26.62-12.524,11.372-26.226,23.177-42.467,31.415-16.279,8.26-35.586,12.153-50.3,8.528" transform="translate(831.044 193.856)" fill="none" stroke="#57b33e" stroke-miterlimit="10" stroke-width="0.643" opacity="0.707"/>
        <path id="Path_78599" data-name="Path 78599" d="M117.1,363.347c-34.831,6.474-65.469,35.9-99.085,73.569A777.073,777.073,0,0,0-46,518.868c-16.556,24.671-32.95,49.871-49.77,74.036-6.436,9.307-12.947,18.446-19.677,26.6-15.916,19.293-31.441,32.667-44.666,44.865q-5.824,5.366-11.3,10.411c-7.715,7.073-15.119,13.722-23.5,19.672a109.481,109.481,0,0,1-11.586,7.214c-7.455,4.013-16.618,8.417-25.956,15.6-10.314,7.921-17.42,17.087-24.133,23.318a53.209,53.209,0,0,1-7.351,5.709c-6.721,4.349-13.233,6.556-19.415,8.589-6.156,2.025-12.467,3.958-18.893,6-16.354,5.155-33.141,12.334-57.69,24.992-15.5,7.992-34.165,17.455-54.079,28.683-12.972,7.3-25.818,15.1-38.288,22.59-26.367,15.825-49.362,30.386-69.846,44.831-20.461,14.429-39.018,29.459-59.615,47.163-9.53,8.19-19.306,16.964-29.608,25.994-12.8,11.191-26.719,22.9-43.062,31.215-16.387,8.337-35.676,12.507-50.508,9.411" transform="translate(836.717 193.759)" fill="none" stroke="#57b33e" stroke-miterlimit="10" stroke-width="0.637" opacity="0.683"/>
        <path id="Path_78600" data-name="Path 78600" d="M121.669,361.423c-32.341,8.883-60.438,39.994-92.729,79.159a991.8,991.8,0,0,0-62.316,83.846c-16.415,24.984-32.957,50.355-50.187,74.486-6.588,9.288-13.289,18.379-20.256,26.393-16.471,18.968-32.678,31.489-46.493,42.741q-6.084,4.95-11.812,9.557a238.779,238.779,0,0,1-24.45,17.728,123.06,123.06,0,0,1-11.9,6.437c-7.659,3.612-17,7.694-26.433,14.9-10.428,7.951-17.27,17.393-23.6,23.975a59.119,59.119,0,0,1-6.878,6.106c-6.252,4.752-12.273,7.447-17.984,9.975-5.693,2.519-11.527,4.955-17.476,7.5-15.143,6.417-30.668,14.895-54.636,28.634-15.1,8.656-33.648,18.641-53.6,30.1-12.993,7.447-25.956,15.279-38.6,22.66-26.743,15.6-50.249,29.364-71.342,42.966a698.306,698.306,0,0,0-61.448,44.78c-9.815,7.918-19.85,16.486-30.375,25.369-13.081,11.012-27.208,22.628-43.655,31.018-16.494,8.414-35.766,12.859-50.723,10.293" transform="translate(842.557 192.863)" fill="none" stroke="#57b33e" stroke-miterlimit="10" stroke-width="0.631" opacity="0.659"/>
        <path id="Path_78601" data-name="Path 78601" d="M126.464,359.838C96.613,371.13,71.046,403.91,40.09,444.586,19.982,471.01-1.677,501.023-20.528,530.326c-16.276,25.3-32.965,50.84-50.6,74.939a304.094,304.094,0,0,1-20.834,26.185c-17.028,18.641-33.917,30.313-48.32,40.619q-6.343,4.533-12.324,8.7a234.954,234.954,0,0,1-25.4,15.784c-3.588,1.868-7.6,3.78-12.2,5.659-7.868,3.212-17.382,6.972-26.913,14.2-10.54,7.98-17.118,17.7-23.073,24.629a68.009,68.009,0,0,1-6.4,6.5c-5.784,5.16-11.317,8.34-16.556,11.361s-10.586,5.956-16.058,8.992c-13.931,7.678-28.2,17.451-51.581,32.272-14.7,9.32-33.133,19.831-53.125,31.513-13.017,7.593-26.1,15.453-38.919,22.729-27.12,15.384-51.133,28.344-72.837,41.1a635.041,635.041,0,0,0-63.281,42.4c-10.1,7.644-20.393,16.005-31.14,24.743-13.36,10.832-27.7,22.353-44.25,30.818-16.6,8.492-35.854,13.214-50.934,11.178" transform="translate(848.531 191.039)" fill="none" stroke="#57b33e" stroke-miterlimit="10" stroke-width="0.625" opacity="0.634"/>
        <path id="Path_78602" data-name="Path 78602" d="M131.433,358.642c-27.364,13.7-50.411,48.136-80.019,90.338-19.048,27.148-40.148,57.835-58.922,87.633C-23.646,562.226-40.479,587.935-58.529,612a273.291,273.291,0,0,1-21.414,25.98c-17.584,18.315-35.156,29.133-50.147,38.495q-6.6,4.117-12.836,7.844a230.877,230.877,0,0,1-26.343,13.84c-3.68,1.6-7.809,3.249-12.507,4.883-8.076,2.81-17.763,6.25-27.392,13.5-10.652,8.009-16.967,18-22.542,25.285a82.346,82.346,0,0,1-5.927,6.9,106.56,106.56,0,0,1-15.127,12.747c-4.77,3.513-9.646,6.954-14.64,10.488-12.719,8.939-25.727,20.005-48.527,35.911-14.307,9.983-32.617,21.018-52.648,32.928-13.038,7.739-26.233,15.628-39.234,22.8-27.494,15.162-52.016,27.323-74.332,39.237a583.817,583.817,0,0,0-65.115,40.017c-10.386,7.369-20.937,15.524-31.905,24.115-13.637,10.653-28.189,22.079-44.844,30.62-16.708,8.569-35.942,13.566-51.147,12.062" transform="translate(854.609 188.157)" fill="none" stroke="#57b33e" stroke-miterlimit="10" stroke-width="0.619" opacity="0.61"/>
        <path id="Path_78603" data-name="Path 78603" d="M136.524,357.882c-24.876,16.106-45.419,52.185-73.665,95.927-17.995,27.865-38.528,59.233-57.226,89.526-16,25.926-32.979,51.806-51.438,75.838A249.287,249.287,0,0,1-67.8,644.948c-18.141,17.987-36.395,27.955-51.974,36.371q-6.862,3.7-13.347,6.988a228.709,228.709,0,0,1-27.291,11.9c-3.772,1.327-8.02,2.715-12.814,4.105-8.286,2.406-18.145,5.527-27.872,12.8-10.764,8.038-16.817,18.3-22.011,25.942-1.945,2.862-3.8,5.255-5.451,7.3a130.643,130.643,0,0,1-13.7,14.131c-4.307,4.013-8.705,7.953-13.224,11.985-11.506,10.2-23.257,22.558-45.471,39.551-13.912,10.642-32.1,22.2-52.171,34.343-13.06,7.886-26.371,15.8-39.549,22.869-27.87,14.943-52.9,26.3-75.827,37.374-22.774,11-43.962,22.348-66.949,37.633-10.671,7.1-21.479,15.045-32.669,23.49-13.917,10.472-28.68,21.8-45.439,30.421-16.815,8.646-36.031,13.92-51.361,12.945" transform="translate(860.759 184.086)" fill="none" stroke="#57b33e" stroke-miterlimit="10" stroke-width="0.614" opacity="0.585"/>
        <path id="Path_78604" data-name="Path 78604" d="M141.683,357.606C119.3,376.12,101.242,413.832,74.372,459.124,57.42,487.7,37.462,519.752,18.843,550.542c-15.865,26.238-32.987,52.291-51.854,76.29-7.194,9.211-14.659,18.1-22.569,25.569-18.7,17.66-37.634,26.775-53.8,34.247q-7.121,3.287-13.858,6.133a226.567,226.567,0,0,1-28.238,9.952c-3.862,1.058-8.23,2.178-13.12,3.329-8.5,2-18.526,4.8-28.35,12.1-10.876,8.067-16.67,18.6-21.479,26.6-1.8,2.985-3.494,5.52-4.978,7.691a172.233,172.233,0,0,1-12.27,15.519c-3.843,4.512-7.764,8.952-11.8,13.48-10.295,11.461-20.791,25.109-42.418,43.192-13.518,11.3-31.585,23.392-51.694,35.758-13.083,8.03-26.508,15.975-39.863,22.937-28.248,14.722-53.783,25.287-77.324,35.51-23.352,10.141-45.2,20.57-68.783,35.252-10.956,6.82-22.022,14.563-33.434,22.862-14.2,10.293-29.17,21.53-46.033,30.223-16.922,8.723-36.121,14.274-51.574,13.829" transform="translate(866.952 178.696)" fill="none" stroke="#57b33e" stroke-miterlimit="10" stroke-width="0.608" opacity="0.561"/>
        <path id="Path_78605" data-name="Path 78605" d="M146.858,357.863c-19.9,20.921-35.481,60.255-60.957,107.107C69.981,494.248,50.607,527,32.069,558.281,16.339,584.829-.924,611.057-20.2,635.022c-7.346,9.192-15,18.035-23.147,25.362-19.251,17.334-38.871,25.6-55.628,32.124q-7.38,2.869-14.37,5.277a225.2,225.2,0,0,1-29.184,8.006c-3.955.791-8.441,1.644-13.427,2.553-8.707,1.589-18.909,4.083-28.829,11.4-10.988,8.1-16.524,18.9-20.949,27.252-1.647,3.108-3.187,5.788-4.5,8.088-3.9,6.812-7.483,11.924-10.841,16.9-3.379,5.013-6.823,9.951-10.387,14.975-9.081,12.723-18.323,27.659-39.364,46.832-13.123,11.958-31.068,24.58-51.216,37.173-13.1,8.177-26.646,16.149-40.178,23.008-28.623,14.5-54.663,24.271-78.819,33.645-23.928,9.286-46.438,18.79-70.617,32.869-11.242,6.546-22.564,14.085-34.2,22.238-14.472,10.114-29.66,21.255-46.627,30.023-17.03,8.8-36.209,14.627-51.787,14.712" transform="translate(873.154 171.856)" fill="none" stroke="#57b33e" stroke-miterlimit="10" stroke-width="0.602" opacity="0.537"/>
        <path id="Path_78606" data-name="Path 78606" d="M152,358.714c-17.411,23.329-30.538,64.278-54.6,112.7-14.9,29.978-33.679,63.421-52.136,95.206-15.6,26.859-33,53.258-52.688,77.191-7.5,9.171-15.344,17.966-23.725,25.156-19.81,17.007-40.111,24.419-57.456,30q-7.639,2.454-14.882,4.421a224.583,224.583,0,0,1-30.13,6.063c-4.046.525-8.653,1.1-13.734,1.775-8.917,1.178-19.29,3.361-29.308,10.7-11.1,8.124-16.38,19.2-20.418,27.907-1.5,3.23-2.878,6.053-4.027,8.483-3.419,7.23-6.524,12.822-9.413,18.291-2.913,5.515-5.884,10.949-8.969,16.473-7.87,13.984-15.86,30.2-36.31,50.47-12.729,12.615-30.551,25.767-50.739,38.587a438.26,438.26,0,0,1-40.494,23.078c-29,14.278-55.545,23.256-80.314,31.78-24.5,8.435-47.677,17.01-72.452,30.487-11.527,6.269-23.107,13.6-34.962,21.61-14.752,9.935-30.151,20.981-47.222,29.824-17.137,8.878-36.3,14.981-52,15.6" transform="translate(879.336 163.446)" fill="none" stroke="#57b33e" stroke-miterlimit="10" stroke-width="0.596" opacity="0.512"/>
        <path id="Path_78607" data-name="Path 78607" d="M157.055,360.216c-14.923,25.737-25.613,68.3-48.248,118.286-13.888,30.673-32.065,64.815-50.439,97.1C42.9,602.77,25.357,629.344,5.261,653.241c-7.651,9.154-15.687,17.9-24.3,24.951-20.364,16.681-41.348,23.241-59.282,27.877q-7.9,2.038-15.394,3.566a225.309,225.309,0,0,1-31.076,4.118c-4.139.259-8.864.567-14.042,1-9.126.764-19.671,2.638-29.786,10-11.213,8.152-16.237,19.5-19.888,28.562-1.349,3.353-2.569,6.321-3.552,8.88-2.939,7.647-5.56,13.72-7.984,19.677-2.447,6.016-4.942,11.948-7.551,17.968-6.658,15.245-13.4,32.75-33.254,54.109-12.339,13.273-30.037,26.955-50.262,40A377.335,377.335,0,0,1-331.925,917.1c-29.373,14.057-56.426,22.243-81.808,29.917-25.077,7.582-48.914,15.229-74.284,28.1a387.643,387.643,0,0,0-35.729,20.985c-15.029,9.754-30.641,20.706-47.816,29.624-17.244,8.957-36.387,15.335-52.213,16.481" transform="translate(885.465 153.341)" fill="none" stroke="#57b33e" stroke-miterlimit="10" stroke-width="0.591" opacity="0.488"/>
        <path id="Path_78608" data-name="Path 78608" d="M161.969,362.42c-12.435,28.146-20.706,72.311-41.893,123.875-12.889,31.369-30.453,66.211-48.744,98.993C56,612.767,38.316,639.517,17.81,663.381c-7.8,9.134-16.029,17.83-24.882,24.743-20.921,16.356-42.587,22.065-61.11,25.754q-8.158,1.623-15.9,2.71a226.545,226.545,0,0,1-32.024,2.175c-4.23-.006-9.073.026-14.347.221-9.338.347-20.053,1.916-30.266,9.3-11.326,8.182-16.1,19.794-19.357,29.216-1.2,3.476-2.258,6.588-3.076,9.277-2.455,8.065-4.6,14.618-6.554,21.063-1.98,6.517-4,12.948-6.135,19.464-5.445,16.506-10.936,35.3-30.2,57.749-11.948,13.928-29.52,28.142-49.785,41.419a331.791,331.791,0,0,1-41.124,23.216c-29.751,13.838-57.307,21.231-83.305,28.053-25.652,6.734-50.151,13.449-76.117,25.722a353.422,353.422,0,0,0-36.494,20.359c-15.308,9.574-31.13,20.431-48.41,29.426-17.352,9.033-36.476,15.687-52.426,17.364" transform="translate(891.511 141.411)" fill="none" stroke="#57b33e" stroke-miterlimit="10" stroke-width="0.585" opacity="0.463"/>
        <path id="Path_78609" data-name="Path 78609" d="M166.694,365.376c-9.946,30.553-15.817,76.322-35.538,129.464-11.9,32.062-28.842,67.605-47.048,100.887-15.2,27.787-33.024,54.711-53.94,78.542-7.953,9.115-16.372,17.763-25.46,24.538-21.476,16.028-43.826,20.885-62.937,23.63q-8.417,1.205-16.417,1.853a228.771,228.771,0,0,1-32.971.23c-4.322-.271-9.283-.515-14.653-.555-9.547-.07-20.436,1.194-30.745,8.6-11.437,8.211-15.956,20.093-18.826,29.872-1.056,3.6-1.948,6.854-2.6,9.674-1.97,8.48-3.633,15.514-5.127,22.449-1.509,7.017-3.062,13.945-4.715,20.959-4.235,17.768-8.48,37.838-27.147,61.389-11.559,14.583-29,29.328-49.308,42.834a297.11,297.11,0,0,1-41.44,23.285c-30.125,13.617-58.188,20.22-84.8,26.19-26.228,5.884-51.39,11.666-77.951,23.339a326.827,326.827,0,0,0-37.259,19.731c-15.584,9.4-31.622,20.157-49,29.227-17.459,9.112-36.566,16.042-52.639,18.248" transform="translate(897.442 127.528)" fill="none" stroke="#57b33e" stroke-miterlimit="10" stroke-width="0.579" opacity="0.439"/>
        <path id="Path_78610" data-name="Path 78610" d="M171.176,369.132c-7.457,32.96-10.945,80.333-29.184,135.054-10.917,32.757-27.232,69-45.35,102.78-15.071,28.1-33.032,55.195-54.358,78.991-8.105,9.1-16.714,17.694-26.038,24.333C-5.787,725.992-28.818,730-48.518,731.8q-8.677.79-16.927,1a232.049,232.049,0,0,1-33.919-1.713c-4.414-.535-9.493-1.058-14.96-1.333-9.754-.49-20.817.471-31.223,7.9-11.549,8.24-15.818,20.393-18.3,30.529-.909,3.72-1.636,7.119-2.127,10.069-1.482,8.9-2.668,16.41-3.7,23.835-1.04,7.516-2.121,14.944-3.3,22.455-3.023,19.029-6.023,40.382-24.093,65.028-11.172,15.237-28.488,30.516-48.829,44.249a269.846,269.846,0,0,1-41.757,23.355c-30.5,13.4-59.068,19.21-86.295,24.325-26.8,5.035-52.629,9.883-79.785,20.956a304.448,304.448,0,0,0-38.022,19.106c-15.865,9.216-32.112,19.883-49.6,29.029-17.566,9.189-36.654,16.394-52.852,19.131" transform="translate(903.228 111.563)" fill="none" stroke="#57b33e" stroke-miterlimit="10" stroke-width="0.573" opacity="0.415"/>
        <path id="Path_78611" data-name="Path 78611" d="M175.364,373.738c-4.97,35.369-6.09,84.347-22.83,140.644-9.946,33.451-25.621,70.39-43.653,104.672-14.941,28.4-33.04,55.68-54.775,79.443-8.256,9.078-17.055,17.627-26.615,24.127C4.9,738-18.814,741.153-39.1,742.008q-8.936.372-17.439.141a236.164,236.164,0,0,1-34.865-3.657c-4.507-.8-9.7-1.6-15.266-2.11-9.962-.911-21.2-.251-31.7,7.2-11.663,8.268-15.68,20.693-17.764,31.185-.765,3.843-1.325,7.385-1.653,10.466-.992,9.309-1.7,17.3-2.268,25.221-.571,8.016-1.18,15.943-1.881,23.951-1.81,20.29-3.568,42.927-21.038,68.668-10.785,15.893-27.973,31.7-48.354,45.665a247.656,247.656,0,0,1-42.07,23.424c-30.878,13.176-59.95,18.2-87.79,22.46-27.381,4.189-53.868,8.1-81.62,18.574a286.194,286.194,0,0,0-38.788,18.48c-16.141,9.035-32.6,19.608-50.193,28.829-17.673,9.266-36.744,16.75-53.066,20.016" transform="translate(908.837 93.386)" fill="none" stroke="#57b33e" stroke-miterlimit="10" stroke-width="0.567" opacity="0.39"/>
        <path id="Path_78612" data-name="Path 78612" d="M179.2,379.245c-2.481,37.776-1.25,88.363-16.474,146.233-8.985,34.149-24.015,71.784-41.958,106.565-14.813,28.714-33.046,56.165-55.191,79.894-8.408,9.057-17.4,17.558-27.193,23.92-23.147,15.048-47.542,17.351-68.42,17.26q-9.2-.043-17.95-.714A241.118,241.118,0,0,1-83.8,746.8c-4.6-1.061-9.909-2.145-15.573-2.887-10.167-1.332-21.58-.973-32.18,6.5-11.775,8.3-15.544,20.993-17.235,31.84a108.02,108.02,0,0,0-1.178,10.861c-.5,9.723-.738,18.2-.839,26.607-.1,8.515-.24,16.943-.463,25.449-.6,21.551-1.116,45.468-17.984,72.308-10.4,16.546-27.456,32.891-47.875,47.078a229.418,229.418,0,0,1-42.386,23.494c-31.254,12.953-60.833,17.193-89.286,20.6-27.957,3.344-55.107,6.317-83.454,16.193A271,271,0,0,0-471.8,1042.7c-16.422,8.856-33.094,19.335-50.788,28.63-17.78,9.344-36.832,17.1-53.277,20.9" transform="translate(914.238 72.867)" fill="none" stroke="#57b33e" stroke-miterlimit="10" stroke-width="0.562" opacity="0.366"/>
        <path id="Path_78613" data-name="Path 78613" d="M182.514,385.7c.008,40.183,3.576,92.385-10.12,151.822-8.028,34.852-22.406,73.177-40.26,108.461-14.687,29.021-33.054,56.646-55.609,80.344-8.56,9.038-17.742,17.489-27.773,23.714-23.7,14.722-48.781,16.173-70.246,15.136q-9.454-.458-18.461-1.57a246.2,246.2,0,0,1-36.76-7.545A152.45,152.45,0,0,0-92.593,752.4c-10.371-1.754-21.963-1.7-32.661,5.805-11.887,8.326-15.408,21.292-16.7,32.494a100.416,100.416,0,0,0-.7,11.258c-.011,10.135.226,19.1.589,27.993.368,9.013.7,17.942.956,26.943.615,22.813,1.335,48.013-14.928,75.947-10.016,17.2-26.94,34.079-47.4,48.495a214.025,214.025,0,0,1-42.7,23.563c-31.628,12.732-61.715,16.186-90.78,18.731-28.534,2.5-56.345,4.534-85.288,13.81a258.4,258.4,0,0,0-40.316,17.228c-16.7,8.677-33.584,19.059-51.382,28.43-17.888,9.421-36.921,17.457-53.492,21.783" transform="translate(919.32 49.878)" fill="none" stroke="#57b33e" stroke-miterlimit="10" stroke-width="0.556" opacity="0.341"/>
        <path id="Path_78614" data-name="Path 78614" d="M184.5,393.158c2.5,42.592,8.385,96.412-3.766,157.413-7.082,35.556-20.8,74.569-38.565,110.354-14.559,29.328-33.061,57.131-56.025,80.794-8.712,9.021-18.083,17.422-28.35,23.509-24.258,14.4-50.019,14.994-72.072,13.012q-9.714-.874-18.974-2.425a252.432,252.432,0,0,1-37.7-9.491,145.235,145.235,0,0,0-16.186-4.44c-10.575-2.178-22.344-2.418-33.141,5.106-12,8.355-15.272,21.594-16.172,33.15a96.121,96.121,0,0,0-.227,11.654c.48,10.544,1.191,19.991,2.018,29.379.837,9.51,1.642,18.941,2.374,28.44,1.825,24.074,3.782,50.556-11.876,79.587-9.63,17.857-26.423,35.266-46.921,49.91a200.83,200.83,0,0,1-43.016,23.632c-32,12.513-62.6,15.181-92.276,16.868-29.111,1.655-57.583,2.75-87.121,11.428a247.56,247.56,0,0,0-41.083,16.6c-16.975,8.5-34.074,18.784-51.976,28.232-17.995,9.5-37.009,17.809-53.7,22.667" transform="translate(923.608 24.29)" fill="none" stroke="#57b33e" stroke-miterlimit="10" stroke-width="0.55" opacity="0.317"/>
        <path id="Path_78615" data-name="Path 78615" d="M185.708,401.663c4.984,45,13.184,100.443,2.59,163-6.141,36.265-19.2,75.96-36.868,112.246C137,706.548,118.36,734.527,94.986,758.158c-8.864,9-18.425,17.352-28.928,23.3-24.815,14.069-51.259,13.818-73.9,10.89q-9.973-1.292-19.485-3.281a259.035,259.035,0,0,1-38.652-11.434,139.709,139.709,0,0,0-16.494-5.218c-10.776-2.6-22.726-3.14-33.618,4.406-12.111,8.384-15.141,21.9-15.642,33.805a93.54,93.54,0,0,0,.246,12.052c.973,10.951,2.158,20.884,3.448,30.766,1.308,10.007,2.582,19.938,3.792,29.935,3.038,25.335,6.231,53.1-8.822,83.227-9.248,18.512-25.908,36.452-46.443,51.324a189.635,189.635,0,0,1-43.331,23.7c-32.381,12.291-63.482,14.176-93.773,15-29.688.81-58.822.964-88.955,9.045a238.647,238.647,0,0,0-41.846,15.975c-17.255,8.316-34.564,18.509-52.57,28.033-18.1,9.576-37.1,18.163-53.917,23.55" transform="translate(927.426 -4.025)" fill="none" stroke="#57b33e" stroke-miterlimit="10" stroke-width="0.544" opacity="0.293"/>
        <path id="Path_78616" data-name="Path 78616" d="M186.183,411.267c7.473,47.406,17.969,104.482,8.944,168.591C189.92,616.835,177.533,657.209,159.955,694c-14.309,29.945-33.077,58.1-56.861,81.7-9.014,8.982-18.768,17.284-29.506,23.1-25.37,13.742-52.5,12.638-75.728,8.766q-10.232-1.707-20-4.137a266.228,266.228,0,0,1-39.6-13.379,136.772,136.772,0,0,0-16.8-5.994c-10.978-3.027-23.107-3.864-34.1,3.707-12.223,8.412-15.007,22.2-15.111,34.461a92.6,92.6,0,0,0,.722,12.447c1.465,11.359,3.142,21.774,4.877,32.152,1.8,10.5,3.523,20.938,5.208,31.431,4.249,26.6,8.677,55.644-5.767,86.866-8.867,19.168-25.391,37.64-45.968,52.739a179.8,179.8,0,0,1-43.647,23.771c-32.755,12.071-64.366,13.172-95.266,13.139-30.268-.03-60.06-.821-90.789,6.663a230.87,230.87,0,0,0-42.611,15.349c-17.532,8.137-35.055,18.235-53.165,27.835-18.209,9.653-37.187,18.515-54.129,24.434" transform="translate(930.805 -35.198)" fill="none" stroke="#57b33e" stroke-miterlimit="10" stroke-width="0.538" opacity="0.268"/>
        <path id="Path_78617" data-name="Path 78617" d="M185.921,422.02c9.96,49.815,22.745,108.528,15.3,174.182-4.277,37.694-15.991,78.742-33.475,116.033-14.184,30.25-33.085,58.583-57.277,82.146C101.3,803.344,91.355,811.6,80.382,817.27c-25.927,13.416-53.735,11.46-77.554,6.644q-10.492-2.125-20.508-4.994A273.994,273.994,0,0,1-58.227,803.6a135.165,135.165,0,0,0-17.1-6.77c-11.178-3.451-23.49-4.586-34.576,3.007-12.337,8.441-14.874,22.5-14.579,35.116a92,92,0,0,0,1.2,12.844c1.957,11.766,4.1,22.667,6.3,33.538,2.265,11,4.464,21.937,6.628,32.928,5.461,27.856,11.121,58.189-2.713,90.5-8.486,19.824-24.876,38.829-45.491,54.156a171.2,171.2,0,0,1-43.962,23.84c-33.131,11.85-65.251,12.167-96.761,11.276-30.847-.874-61.312-2.67-92.623,4.28a222.109,222.109,0,0,0-43.376,14.723c-17.811,7.958-35.545,17.96-53.759,27.635-18.317,9.73-37.277,18.87-54.343,25.317" transform="translate(933.741 -69.359)" fill="none" stroke="#57b33e" stroke-miterlimit="10" stroke-width="0.533" opacity="0.244"/>
        <path id="Path_78618" data-name="Path 78618" d="M184.9,433.97c12.449,52.224,27.512,112.58,21.652,179.771-3.352,38.419-14.389,80.133-31.779,117.926-14.061,30.557-33.093,59.068-57.695,82.6-9.318,8.944-19.453,17.147-30.663,22.683-26.483,13.089-54.974,10.282-79.382,4.521q-10.751-2.542-21.018-5.85A281.96,281.96,0,0,1-55.48,818.351,134.5,134.5,0,0,0-72.894,810.8c-11.375-3.876-23.869-5.309-35.055,2.307C-120.4,821.582-122.689,835.92-122,848.883a92.984,92.984,0,0,0,1.671,13.241c2.449,12.172,5.066,23.56,7.734,34.924,2.731,11.493,5.4,22.936,8.044,34.423,6.674,29.119,13.565,60.736.343,94.145-8.107,20.48-24.36,40.015-45.014,55.569A163.586,163.586,0,0,1-193.5,1105.1c-33.507,11.629-66.136,11.164-98.256,9.411-31.428-1.716-62.548-4.449-94.458,1.9a216.709,216.709,0,0,0-44.14,14.1c-18.091,7.779-36.036,17.686-54.354,27.437-18.424,9.808-37.366,19.224-54.556,26.2" transform="translate(936.22 -106.634)" fill="none" stroke="#57b33e" stroke-miterlimit="10" stroke-width="0.527" opacity="0.22"/>
        <path id="Path_78619" data-name="Path 78619" d="M183.075,447.169c14.938,54.631,32.272,116.643,28.008,185.362-2.43,39.146-12.788,81.523-30.084,119.82-13.938,30.863-33.1,59.551-58.111,83.047-9.47,8.925-19.8,17.079-31.241,22.478-27.04,12.763-56.213,9.1-81.208,2.4q-11.01-2.955-21.531-6.7a290.8,290.8,0,0,1-42.44-19.211,134.966,134.966,0,0,0-17.72-8.326c-11.574-4.3-24.251-6.029-35.534,1.609-12.561,8.5-14.607,23.115-13.518,36.428a94.341,94.341,0,0,0,2.146,13.637c2.94,12.577,6.028,24.453,9.161,36.31,3.2,11.99,6.345,23.934,9.462,35.919,7.886,30.38,16.009,63.282,3.4,97.785-7.726,21.137-23.843,41.2-44.535,56.984a156.85,156.85,0,0,1-44.593,23.981c-33.883,11.407-67.023,10.16-99.752,7.545-32.008-2.556-63.782-6.231-96.29-.483a212.18,212.18,0,0,0-44.906,13.47c-18.368,7.6-36.524,17.411-54.947,27.238-18.531,9.885-37.456,19.576-54.769,27.084" transform="translate(938.221 -147.156)" fill="none" stroke="#57b33e" stroke-miterlimit="10" stroke-width="0.521" opacity="0.195"/>
        <path id="Path_78620" data-name="Path 78620" d="M180.419,461.665c17.427,57.04,37.024,120.711,34.362,190.951A338.3,338.3,0,0,1,186.4,774.329c-13.816,31.171-33.107,60.036-58.529,83.5-9.622,8.905-20.138,17.01-31.819,22.271-27.6,12.436-57.451,7.924-83.036.272Q1.74,877-9.031,872.81a299.642,299.642,0,0,1-43.386-21.156,136.335,136.335,0,0,0-18.027-9.1c-11.77-4.726-24.634-6.753-36.012.909-12.673,8.528-14.475,23.419-12.987,37.083a96.3,96.3,0,0,0,2.62,14.032c3.432,12.982,6.991,25.348,10.591,37.7q5.5,18.731,10.88,37.416c9.1,31.641,18.449,65.83,6.45,101.424-7.347,21.795-23.328,42.389-44.058,58.4a150.713,150.713,0,0,1-44.908,24.05c-34.258,11.188-67.909,9.158-101.247,5.682-32.589-3.4-65.017-8.012-98.124-2.866a208.293,208.293,0,0,0-45.67,12.844c-18.646,7.418-37.016,17.137-55.542,27.04-18.638,9.962-37.544,19.93-54.982,27.968" transform="translate(939.72 -191.051)" fill="none" stroke="#57b33e" stroke-miterlimit="10" stroke-width="0.515" opacity="0.171"/>
        <path id="Path_78621" data-name="Path 78621" d="M176.887,477.508C196.8,536.955,218.654,602.3,217.6,674.048a327.868,327.868,0,0,1-26.691,123.607c-13.694,31.478-33.114,60.52-58.945,83.948-9.774,8.886-20.481,16.942-32.4,22.065-28.154,12.11-58.692,6.748-84.864-1.849Q3.178,898.031-7.846,893.4A309.015,309.015,0,0,1-52.18,870.3a138.2,138.2,0,0,0-18.333-9.879c-11.967-5.151-25.016-7.474-36.492.21-12.785,8.557-14.342,23.727-12.457,37.738a98.71,98.71,0,0,0,3.1,14.431c3.921,13.384,7.953,26.239,12.018,39.082q6.2,19.473,12.3,38.911c10.309,32.9,20.892,68.378,9.506,105.064-6.969,22.452-22.813,43.576-43.581,59.814a145.31,145.31,0,0,1-45.223,24.12c-34.636,10.965-68.807,8.223-102.744,3.817-33.178-4.173-66.251-9.793-99.957-5.248a204.9,204.9,0,0,0-46.435,12.217c-18.925,7.239-37.507,16.863-56.137,26.84-18.746,10.04-37.634,20.285-55.195,28.853" transform="translate(940.692 -238.448)" fill="none" stroke="#57b33e" stroke-miterlimit="10" stroke-width="0.509" opacity="0.146"/>
        <path id="Path_78622" data-name="Path 78622" d="M172.431,494.747c22.4,61.854,46.509,128.872,47.07,202.131a318.96,318.96,0,0,1-24.992,125.5c-13.574,31.784-33.122,61-59.363,84.4-9.925,8.867-20.823,16.874-32.974,21.859-28.709,11.783-59.931,5.57-86.692-3.973q-11.788-4.2-23.065-9.274a318.566,318.566,0,0,1-45.279-25.044A140.47,140.47,0,0,0-71.5,879.688c-12.163-5.575-25.4-8.2-36.971-.49-12.9,8.587-14.208,24.034-11.926,38.394a101.5,101.5,0,0,0,3.571,14.826c4.414,13.789,8.917,27.134,13.449,40.468q6.9,20.22,13.715,40.409c11.522,34.162,23.333,70.926,12.559,108.7-6.589,23.112-22.3,44.764-43.1,61.23a140.392,140.392,0,0,1-45.537,24.189c-35.012,10.744-69.7,7.209-104.238,1.953-33.762-5.024-67.488-11.573-101.791-7.631a202.2,202.2,0,0,0-47.2,11.593c-19.2,7.058-38,16.586-56.731,26.639-18.853,10.119-37.723,20.639-55.409,29.738" transform="translate(941.11 -289.478)" fill="none" stroke="#57b33e" stroke-miterlimit="10" stroke-width="0.504" opacity="0.122"/>
        <path id="Path_78623" data-name="Path 78623" d="M160.583,533.616c27.379,66.671,55.976,137.064,59.779,213.309,2.138,42.859-4.861,88.447-21.6,129.287-13.384,32.376-33.138,61.971-60.2,85.3-10.229,8.83-21.51,16.738-34.132,21.447-29.821,11.13-62.407,3.214-90.346-8.219Q1.782,969.7-10,963.753a335.426,335.426,0,0,1-47.173-28.931,147.854,147.854,0,0,0-19.253-12.211c-12.551-6.423-26.161-9.642-37.928-1.889-13.123,8.645-13.971,24.655-10.864,39.7a107.648,107.648,0,0,0,4.52,15.618c5.418,14.586,10.842,28.92,16.306,43.242q8.3,21.708,16.551,43.4c13.946,36.686,28.158,76.014,18.669,115.983-5.868,24.421-21.265,47.139-42.15,64.06a131.8,131.8,0,0,1-46.168,24.326c-35.762,10.3-71.471,5.184-107.23-1.775-34.926-6.727-69.958-15.136-105.458-12.4a198.049,198.049,0,0,0-48.73,10.34c-19.759,6.7-38.978,16.039-57.92,26.244-19.066,10.271-37.9,21.343-55.833,31.5" transform="translate(940.183 -402.953)" fill="none" stroke="#57b33e" stroke-miterlimit="10" stroke-width="0.492" opacity="0.073"/>
        <path id="Path_78624" data-name="Path 78624" d="M153.094,555.344c29.869,69.078,60.707,141.169,66.134,218.9,3.046,43.616-3.248,89.846-19.9,131.18-13.249,32.689-33.144,62.456-60.613,85.75-10.381,8.809-21.851,16.668-34.709,21.241-30.377,10.8-63.646,2.034-92.174-10.343q-12.566-5.455-24.6-11.842a346.526,346.526,0,0,1-48.12-30.876,149.409,149.409,0,0,0-19.559-12.987c-12.732-6.871-26.543-10.363-38.408-2.586-13.233,8.672-13.829,24.96-10.333,40.359a111.727,111.727,0,0,0,5,16.015c5.9,14.989,11.8,29.812,17.736,44.626q9,22.455,17.969,44.9c15.157,37.947,30.614,78.572,21.721,119.623-5.479,25.084-20.748,48.325-41.672,65.475a128.094,128.094,0,0,1-46.485,24.4c-36.137,10.083-72.357,4.169-108.723-3.64-35.508-7.579-71.194-16.918-107.294-14.778a196.537,196.537,0,0,0-49.494,9.712c-20.037,6.521-39.468,15.765-58.514,26.044-19.175,10.351-37.989,21.7-56.046,32.388" transform="translate(938.781 -465.655)" fill="none" stroke="#57b33e" stroke-miterlimit="10" stroke-width="0.486" opacity="0.049"/>
        <path id="Path_78625" data-name="Path 78625" d="M144.5,578.667c32.357,71.485,65.435,145.283,72.49,224.489,3.952,44.377-1.634,91.244-18.208,133.072-13.116,33-33.152,62.941-61.03,86.2-10.533,8.792-22.193,16.6-35.289,21.034-30.932,10.477-64.883.856-94-12.467q-12.825-5.868-25.109-12.7a358.227,358.227,0,0,1-49.068-32.821A153.6,153.6,0,0,0-85.58,971.716c-12.932-7.284-26.924-11.087-38.887-3.287-13.347,8.7-13.686,25.268-9.8,41.015a115.8,115.8,0,0,0,5.469,16.412q9.574,23.091,19.165,46.012,9.7,23.2,19.387,46.392c16.369,39.207,33.07,81.127,24.776,123.261-5.091,25.748-20.232,49.514-41.2,66.89a124.65,124.65,0,0,1-46.8,24.467c-36.515,9.862-73.246,3.156-110.22-5.5-36.089-8.43-72.429-18.7-109.127-17.161a195.289,195.289,0,0,0-50.259,9.086c-20.316,6.341-39.959,15.49-59.11,25.846-19.28,10.426-38.077,22.051-56.259,33.272" transform="translate(936.713 -532.506)" fill="none" stroke="#57b33e" stroke-miterlimit="10" stroke-width="0.481" opacity="0.024"/>
        <path id="Path_78626" data-name="Path 78626" d="M134.748,603.636c34.845,73.894,70.16,149.4,78.844,230.078s-13.734,168.884-77.959,221.619c-10.684,8.772-22.536,16.532-35.865,20.828-31.491,10.15-66.123-.32-95.828-14.589a371.521,371.521,0,0,1-75.635-48.319c-17.094-14.115-40.854-30.646-59.539-18.526-18.344,11.9-11.846,38.869-3.326,58.479l41.4,95.285c17.582,40.47,35.527,83.684,27.832,126.9-7.747,43.5-43.456,81.243-87.833,92.841-72.887,19.05-147.159-28.808-222.675-26.911-61.411,1.544-116.14,35.49-167.2,68.263" transform="translate(933.951 -603.636)" fill="none" stroke="#57b33e" stroke-miterlimit="10" stroke-width="0.475" opacity="0"/>
      </g>
    </g>
  </g>
</svg>
