<svg xmlns="http://www.w3.org/2000/svg" xmlns:xlink="http://www.w3.org/1999/xlink" width="288" height="168" viewBox="0 0 288 168">
  <defs>
    <filter id="Rectangle_37" x="0" y="0" width="288" height="168" filterUnits="userSpaceOnUse">
      <feOffset dy="3" input="SourceAlpha"/>
      <feGaussianBlur stdDeviation="3" result="blur"/>
      <feFlood flood-opacity="0.059"/>
      <feComposite operator="in" in2="blur"/>
      <feComposite in="SourceGraphic"/>
    </filter>
  </defs>
  <g id="Group_13638" data-name="Group 13638" transform="translate(-366 6)">
    <g transform="matrix(1, 0, 0, 1, 366, -6)" filter="url(#Rectangle_37)">
      <rect id="Rectangle_37-2" data-name="Rectangle 37" width="270" height="150" transform="translate(9 6)" fill="#fff"/>
    </g>
    <g id="Logo_Dark" data-name="Logo Dark" transform="translate(420 50)">
      <text id="zingbox" transform="matrix(1, 0, 0, 1, 54.002, 32.109)" fill="#1f242c" font-size="32" font-family="SegoeUI-Bold, Segoe UI" font-weight="700"><tspan x="0" y="0">zingbox</tspan></text>
      <path id="Path_77971" data-name="Path 77971" d="M555.1,277.317l-.581,1.521-1.89,4.94,4.494,2.6v17.248l-1.072.619-10.231,5.907-3.634,2.1-3.215-1.856-9.545-5.511-2.176-1.257V286.374l12.49-7.212-1.6,6.911-1.969,8.533-1.078,4.67,8.138-1.176-.786,3.822-1.238,6.016,3.935-6.026,5.008-7.67L552,291.408l-7.708.76,2.514-6.571,1.622-4.24,1.388-3.629L550.9,274.9l-8.721-5.035-.346.2L520.415,282.43v25.137l1.959,1.131,7.238,4.179,12.572,7.258,13.46-7.771,7.186-4.148,1.123-.649V282.43Z" transform="translate(-520.416 -269.861)" fill="#57b33e"/>
    </g>
  </g>
</svg>
