<svg xmlns="http://www.w3.org/2000/svg" width="60" height="60" viewBox="0 0 60 60">
  <g id="_013-solar_energy" data-name="013-solar energy" transform="translate(-2 -2)">
    <path id="Path_78364" data-name="Path 78364" d="M15,31l-3,5h3Z" fill="#57b33e"/>
    <path id="Path_78365" data-name="Path 78365" d="M18,36H15v5Z" fill="#57b33e"/>
    <path id="Path_78366" data-name="Path 78366" d="M59,27H47a3.009,3.009,0,0,0-3,3V52a3.009,3.009,0,0,0,3,3h3v3a1,1,0,0,0,1,1h1v1H33V22h2a1,1,0,0,0,1-1V18H53a1.037,1.037,0,0,0,.76-.34,1.006,1.006,0,0,0,.23-.8l-2-14A1,1,0,0,0,51,2H13a1,1,0,0,0-.99.86l-2,14a1.006,1.006,0,0,0,.23.8A1.037,1.037,0,0,0,11,18H28v3a1,1,0,0,0,1,1h2V60H16V49h4V47H18V45h7a3.009,3.009,0,0,0,3-3V30a3.009,3.009,0,0,0-3-3H5a3.009,3.009,0,0,0-3,3V42a3.009,3.009,0,0,0,3,3h7v2H10v2h4V61a1,1,0,0,0,1,1H53a1,1,0,0,0,1-1V59h1a1,1,0,0,0,1-1V55h3a3.009,3.009,0,0,0,3-3V30a3.009,3.009,0,0,0-3-3ZM5,43a1,1,0,0,1-1-1V30a1,1,0,0,1,1-1H25a1,1,0,0,1,1,1V42a1,1,0,0,1-1,1Zm9,4V45h2v2ZM51.85,16H41.89l-.35-3h9.88Zm-.72-5H41.31l-.36-3H50.7Zm-1-7,.29,2h-9.7l-.23-2ZM25.53,4H38.47l.24,2H25.29Zm-.47,4H38.94l.35,3H24.71Zm-2.95,8H12.15l.43-3h9.88Zm.58-5H12.87l.43-3h9.75Zm.59-5h-9.7l.29-2h9.64Zm.84,10,.35-3H39.53l.35,3ZM30,20V18h4v2ZM54,57H52V55h2Zm6-5a1,1,0,0,1-1,1H47a1,1,0,0,1-1-1V30a1,1,0,0,1,1-1H59a1,1,0,0,1,1,1Z" fill="#57b33e"/>
    <path id="Path_78367" data-name="Path 78367" d="M58,30H48a1,1,0,0,0-1,1V49a1,1,0,0,0,1,1H58a1,1,0,0,0,1-1V31A1,1,0,0,0,58,30ZM57,48H49V32h8Z" fill="#57b33e"/>
    <path id="Path_78368" data-name="Path 78368" d="M53,35l-3,5h3Z" fill="#57b33e"/>
    <path id="Path_78369" data-name="Path 78369" d="M56,40H53v5Z" fill="#57b33e"/>
    <path id="Path_78370" data-name="Path 78370" d="M43,55l-4-3v2H37V48H35v7a1,1,0,0,0,1,1h3v2Z" fill="#57b33e"/>
    <path id="Path_78371" data-name="Path 78371" d="M21,55l4,3V56h3a1,1,0,0,0,1-1V48H27v6H25V52Z" fill="#57b33e"/>
  </g>
</svg>
