<svg xmlns="http://www.w3.org/2000/svg" width="619.299" height="571.26" viewBox="0 0 619.299 571.26">
  <g id="Group_13489" data-name="Group 13489" transform="translate(-98.11 -141.11)">
    <path id="Path_77948" data-name="Path 77948" d="M232.271,705.911H583.249c81.039-55.843,134.161-149.292,134.161-255.151,0-171.015-138.635-309.65-309.649-309.65S98.11,279.745,98.11,450.76C98.11,556.619,151.233,650.068,232.271,705.911Z" transform="translate(0 0)" fill="#57b33e" opacity="0.1"/>
    <ellipse id="Ellipse_1388" data-name="Ellipse 1388" cx="272.99" cy="6.459" rx="272.99" ry="6.459" transform="translate(134.77 699.452)" fill="#2995cc"/>
    <path id="Path_77949" data-name="Path 77949" d="M673.361,413.486l8.1-5.681a25.325,25.325,0,0,0,3.726-3.288l87.663-96.79c.925-1.016,1.153-2.385.5-3.037s-2.009-.447-3.04.466l-94.552,83.3a9.209,9.209,0,0,0-2.451,4.091l-3.3,13.6a10.381,10.381,0,0,1-2.355,4.185l-5.035,4.971a4.895,4.895,0,0,0-.986-.1H649.837a4.911,4.911,0,0,0-4.9,4.856l-4.064-1.113a35.986,35.986,0,0,1-4.664-1.718l-8.98-4.179a26.657,26.657,0,0,0-4.7-1.59L494.865,383.954c-1.34-.293-2.637.195-2.872,1.084-.259.88.616,1.966,1.921,2.4l119.419,40.227a9.448,9.448,0,0,0,4.767.091l13.423-3.963a10.263,10.263,0,0,1,4.807-.046l8.6,2.362v5.8a4.927,4.927,0,0,0,4.9,4.924h1.128l-3.419,140.18V743.041h17.3V577.015l-2.622-107.466,37.649,117.024c.419,1.32,1.488,2.2,2.378,1.953.89-.22,1.387-1.513,1.116-2.868L678.491,462.119a9.265,9.265,0,0,0-2.3-4.167l-10.143-9.643a10.468,10.468,0,0,1-2.44-4.143l-1.919-7.337a4.932,4.932,0,0,0,4.858-4.919V420.124c0-.154-.032-.3-.045-.449l3.03-3A34.148,34.148,0,0,1,673.361,413.486Z" transform="translate(-90.392 -37.457)" fill="#57b33e"/>
    <path id="Path_77950" data-name="Path 77950" d="M427.937,438.608,305.224,409.846a9.349,9.349,0,0,0-4.758.363l-12.995,5.2a10.241,10.241,0,0,1-4.774.5l-8.883-1.549V409.4a4.927,4.927,0,0,0-4.913-4.913H262.12l-1.975-5.393a37.018,37.018,0,0,1-1.307-4.809l-1.8-9.735A25.974,25.974,0,0,0,255.6,379.8l-51.592-120c-.546-1.271-1.684-2.046-2.553-1.724s-1.239,1.643-.837,2.961L237.08,381.7a9.12,9.12,0,0,0,2.689,3.934l11,8.653a10.351,10.351,0,0,1,2.828,3.89l2.365,6.458a4.922,4.922,0,0,0-3.772,4.774v11.789a4.884,4.884,0,0,0,.475,2.093l-2.365,2.826a36.169,36.169,0,0,1-3.511,3.54l-7.531,6.408a26.948,26.948,0,0,0-3.4,3.63L157.724,544.373c-.821,1.106-.922,2.484-.21,3.073s2.043.25,2.993-.757l86.263-91.91a9.133,9.133,0,0,0,2.067-4.294l1.983-13.857a10.278,10.278,0,0,1,1.957-4.383l5.121-6.126h.335L254.819,566.34V732.412h17.3V566.34L268.7,426.12h.2a4.938,4.938,0,0,0,4.913-4.926v-.9l4.8.84a36.214,36.214,0,0,1,4.816,1.26l9.336,3.317a26.152,26.152,0,0,0,4.837,1.14l129.713,15.318c1.371.16,2.615-.439,2.772-1.348S429.291,438.923,427.937,438.608Z" transform="translate(-13.525 -26.828)" fill="#57b33e"/>
    <g id="Group_13488" data-name="Group 13488" transform="translate(225.292 464.629)">
      <g id="Group_13485" data-name="Group 13485" transform="translate(150.024 166.899)">
        <path id="Path_77951" data-name="Path 77951" d="M495.86,810.248V777.616H483.882v32.632l-20.263,33.766h-2.853c-1.584,0-2.875,1.777-2.875,3.965V852h63.956v-4.02c0-2.187-1.3-3.965-2.875-3.965h-2.849Zm10.932,33.766H495.86V825.779Zm-22.911-18.235v18.235H472.939Z" transform="translate(-457.891 -777.616)" fill="#e1e1e1"/>
        <path id="Path_77952" data-name="Path 77952" d="M531.375,847.979c0-2.187-1.3-3.965-2.875-3.965h-2.849l-20.263-33.766V777.616H499.47L499.4,852h31.974Zm-25.987-3.965V825.779l10.932,18.235Z" transform="translate(-467.418 -777.616)" fill="#e1e1e1"/>
      </g>
      <g id="Group_13487" data-name="Group 13487" transform="translate(0 0)">
        <path id="Path_77953" data-name="Path 77953" d="M558.881,561a7.361,7.361,0,0,1,1.784.233,8.138,8.138,0,0,1,1.647.7,6.1,6.1,0,0,1,1.321,1.042,3.762,3.762,0,0,1,.788,1.275l63.162,179.168a8.652,8.652,0,0,1,.527,3.021,5.775,5.775,0,0,1-.59,2.531,4.043,4.043,0,0,1-1.577,1.686,4.895,4.895,0,0,1-2.464.636H267.807a4.749,4.749,0,0,1-2.452-.636,4.111,4.111,0,0,1-1.6-1.686,5.784,5.784,0,0,1-.573-2.531,8.234,8.234,0,0,1,.522-3.021l63.177-179.168a3.753,3.753,0,0,1,.774-1.275,6.523,6.523,0,0,1,1.309-1.042,8.038,8.038,0,0,1,1.657-.7A7.531,7.531,0,0,1,332.4,561Z" transform="translate(-263.177 -561)" fill="#e1e1e1"/>
        <g id="Group_13486" data-name="Group 13486" transform="translate(13.698 5.513)">
          <path id="Path_77954" data-name="Path 77954" d="M354.974,572.546l.9-.557,1.011-3.289-.513-.545h-4.286l-.878.545-1.083,3.274.543.572Zm1.811,0h4.332l.879-.557.975-3.261-.569-.557-4.253-.015-.912.545-1,3.289Zm6.109,0h4.338l.885-.541.88-3.278-.55-.557H364.19l-.881.557-.95,3.261Zm6.116,0,4.356.019.867-.56.844-3.25-.582-.585h-4.239l-.881.557-.906,3.278Zm6.156.019h4.324l.851-.532.8-3.278-.591-.569h-4.272l-.859.569-.835,3.25Zm6.129.016h4.329l.851-.533.727-3.293-.581-.553-4.279-.015-.859.569-.791,3.278Zm6.122,0,4.353.011.83-.545.673-3.278-.62-.533L388.4,568.2l-.835.553-.73,3.293Zm6.142.011h4.3l.843-.545.646-3.278-.646-.533h-4.253l-.821.533-.675,3.278Zm11.212-4.355h-4.266l-.815.533-.634,3.278.634.545,4.323.016.8-.541.591-3.285Zm-51.3,9.071.9-.589,1.074-3.345-.549-.557-4.328-.027-.911.56-1.113,3.369.539.572Zm3.212-4.49-.885.557-1.04,3.345.551.589h4.369l.915-.572.985-3.345-.549-.556Zm6.131.016-.879.556-.975,3.345.552.572,4.393.008.894-.58.915-3.345-.562-.556Zm6.135,0-.869.556-.928,3.345.576.58,4.393.016.865-.553.868-3.389-.56-.556Zm6.138,0-.857.556-.867,3.389.585.553,4.385.015.865-.569.829-3.365-.608-.552Zm6.128.028-.851.552-.814,3.365.6.569h4.393l.859-.553.744-3.38-.59-.552Zm11.076.552-.6-.529-4.328-.023-.851.552-.75,3.38.59.553,4.386.019.857-.556Zm6.138.016-.6-.546H393.5l-.845.529-.7,3.4.606.556,4.406.02.843-.56Zm1.2-.529-.817.529-.632,3.4.613.56h4.387l.834-.56.577-3.369-.628-.557Zm-47.691,9.307.938-.589,1.079-3.443-.557-.608h-4.385l-.936.576-1.126,3.455.557.609Zm1.3-.589.551.589,4.433.015.935-.6,1.019-3.443-.553-.569-4.4-.015-.928.584Zm8.189-4.012-.885.569-1.012,3.443.555.6,4.45.012.906-.6.949-3.451-.572-.581Zm6.229,0-.881.581-.983,3.451.584.6h4.463l.886-.581.885-3.451-.569-.6Zm6.2,0-.868.6-.908,3.451.6.581h4.444l.9-.581.837-3.451-.606-.576Zm9.582,4.66.867-.592.758-3.471-.59-.556-4.4-.02-.857.576-.837,3.451.612.589Zm7.858-4.036-.59-.584h-4.415l-.861.556-.774,3.471.591.592h4.47l.891-.572Zm6.249,0-.632-.584h-4.386l-.872.584-.7,3.463.626.572,4.448.019.851-.576Zm1.2-.569-.851.569-.66,3.479.62.589h4.491l.83-.589.582-3.467-.628-.58Zm-48.38,9.572.914-.6,1.118-3.55-.553-.6-4.46-.008-.912.588-1.16,3.55.561.612Zm1.309-.6.569.6,4.5.016.928-.592,1.033-3.57-.543-.584-4.443-.012-.94.6Zm6.373.02.59.592,4.483.019.928-.612.987-3.542-.572-.589-4.454-.023-.922.584Zm11.459.612.9-.6.928-3.557-.576-.589H366.3l-.894.589-.992,3.542.6.612Zm6.373.02.908-.616.869-3.53-.6-.6-4.456-.015-.89.589-.921,3.557.6.6Zm6.405,0,.861-.6.825-3.55-.62-.6h-4.42l-.9.6-.859,3.55.606.6Zm6.4.016.857-.6.723-3.542-.609-.6-4.466-.016-.859.6-.8,3.55.631.6Zm7.927-4.143-.653-.589-4.429-.015-.876.6-.733,3.542.6.616h4.513l.892-.585Zm1.21-.589-.859.589-.651,3.573.622.585,4.493.012.857-.6.634-3.558-.642-.6Zm-49.085,9.876.944-.656,1.147-3.652-.557-.593H345.76l-.958.576-1.2,3.657.563.62Zm1.325-.656.574.656h4.569l.936-.64,1.089-3.668-.584-.576-4.522-.016-.925.593Zm11.615.667.928-.627,1.005-3.681-.561-.576-4.513-.012-.928.588-1.1,3.657.59.64Zm6.462,0,.928-.612.934-3.68-.582-.592h-4.484l-.944.592-1,3.664.584.627Zm6.486.016.906-.612.9-3.681-.628-.592h-4.517l-.9.577-.928,3.68.59.612Zm6.462.016.9-.628.821-3.681-.623-.565-4.5-.028-.864.592-.914,3.681.606.612Zm6.478.019.92-.64.734-3.641-.628-.6-4.513-.012-.89.589-.8,3.657.612.628Zm6.494,0,.859-.64.727-3.629-.658-.612h-4.517l-.851.6-.766,3.641.633.64Zm2.814-4.88-.859.612-.707,3.629.667.64h4.576l.851-.6.629-3.664-.637-.6Zm-48.227,5.081-4.568-.012-.984.624-1.244,3.759.562.652h4.624l.993-.636,1.173-3.76Zm6.476.032h-4.6l-.949.6-1.167,3.76.569.667h4.65l.962-.652,1.1-3.775Zm6.472.015-4.588-.015-.934.612-1.1,3.759.591.652,4.624.015.964-.667,1.038-3.759Zm6.482,0H363.5l-.928.62-1.035,3.735.59.667h4.646l.936-.656.963-3.747Zm6.472.032h-4.569l-.92.589-.983,3.747.61.656,4.626.012.92-.652.928-3.748Zm6.476.016-4.551-.016-.942.6-.906,3.748.634.652,4.639.015.891-.619.865-3.779Zm6.48.012-4.577-.012-.89.6-.826,3.779.6.619,4.654.016.895-.62.792-3.779Zm6.5.008-4.584-.008-.891.608-.8,3.779.66.62,4.636.032.882-.636.727-3.8Zm1.9,0-.867.6-.724,3.8.647.636h4.654l.877-.636.675-3.783-.675-.612Z" transform="translate(-294.934 -568.155)" fill="#0e9bd9"/>
          <path id="Path_77955" data-name="Path 77955" d="M431.052,572.649l.814-.529.507-3.288-.661-.549-4.268-.02-.821.545-.505,3.3.612.529Zm1.8,0h4.338l.8-.529.442-3.288-.667-.549h-4.261l-.792.549-.492,3.288Zm6.145.012h4.342l.782-.542.351-3.273-.634-.553-4.3-.012-.766.549-.421,3.288Zm6.142,0,4.315.019.792-.537.312-3.3-.681-.553h-4.255l-.8.553-.353,3.273Zm10.444.035.8-.553.237-3.281-.66-.553-4.286-.016-.76.553-.318,3.3.682.537Zm6.161,0,.776-.537.158-3.3-.648-.553h-4.28l-.767.553-.26,3.281.7.553Zm6.14,0,.738-.537.129-3.274-.661-.552-4.3-.024-.737.553-.2,3.3.693.537Zm6.164.019.719-.549.071-3.273-.689-.537-4.289-.024-.718.552-.154,3.274.7.537Zm6.158-4.359h-4.273l-.736.537-.067,3.273.7.549,4.346.025.723-.545.03-3.3Zm-49.877,9.089.821-.58.505-3.369-.651-.556-4.332-.016-.805.557-.559,3.384.642.545Zm2.489-4.505-.8.556-.5,3.369.633.58h4.423l.78-.569.445-3.38-.656-.556Zm6.143,0-.8.556-.441,3.38.661.569h4.4l.782-.569.391-3.352-.66-.584Zm11.147.6-.683-.58-4.316-.015-.821.584-.36,3.352.691.569,4.377.016.8-.585Zm5.125,3.926.752-.549.261-3.377-.676-.58h-4.324l-.774.58-.33,3.341.683.585Zm6.219.024.752-.572.223-3.353-.707-.593-4.315-.012-.79.58-.261,3.377.7.549Zm1.826,0h4.393l.754-.561.14-3.365-.689-.576h-4.346l-.752.576-.2,3.353Zm10.614.032.753-.569.106-3.372-.744-.565h-4.324l-.74.565-.168,3.349.725.576Zm1.933-4.506-.737.565L475,576.95l.723.569,4.4.015.732-.584.026-3.369-.707-.569ZM429.6,582.324l.821-.577.522-3.47-.65-.561H425.9l-.821.561-.561,3.459.646.589Zm1.207-.577.657.577,4.454.023.79-.6.468-3.446-.644-.585h-4.4l-.837.561Zm12.6-3.435-.667-.573h-4.393l-.815.561-.421,3.446.652.6h4.444l.821-.584Zm5.1,4.051.821-.576.326-3.475-.673-.573h-4.389l-.822.573-.359,3.451.642.584Zm7.382-4.023-.7-.569-4.393-.016-.787.557-.332,3.475.683.576,4.454.02.79-.6Zm6.233,0-.7-.569h-4.393l-.784.569-.277,3.447.709.6,4.458.019.792-.608Zm6.249.015-.7-.56-4.419-.024-.767.569-.2,3.455.713.608h4.454l.76-.569Zm1.132-.56-.772.56-.148,3.479.738.569,4.446.012.748-.564.071-3.495-.691-.549Zm6.213.012-.738.561-.083,3.483.719.564,4.454.016.766-.58.022-3.467-.732-.576Zm-46.874,9.552.851-.576.523-3.57-.644-.6h-4.47l-.829.588-.591,3.558.66.6Zm1.214-.576.681.6h4.5l.843-.6.452-3.554-.643-.6-4.463-.012-.851.6Zm7.662-4.154-.8.6-.468,3.554.667.624h4.517l.828-.6.389-3.574-.667-.6Zm11.456.64-.689-.592-4.441-.02-.8.6-.407,3.55.681.6h4.508l.791-.573Zm6.308,0-.665-.592h-4.462l-.822.592-.33,3.565.731.589,4.476.016.825-.6Zm5.327,4.17.791-.6.247-3.565-.73-.577-4.454-.015-.782.592-.3,3.565.725.6Zm6.417,0,.774-.6.153-3.55-.7-.592h-4.476l-.782.577-.21,3.565.709.6Zm2.066-4.747-.778.592-.136,3.586.744.569,4.492.028.79-.6.077-3.586-.713-.592Zm6.322.016-.774.576-.071,3.586.723.6h4.521l.76-.581.061-3.59-.766-.588Zm-47.559,9.868.89-.639.535-3.648-.675-.613H424.3l-.869.6-.6,3.664.675.639Zm1.242-.639.689.652h4.554l.865-.632.484-3.629-.69-.643-4.517-.008-.821.613Zm11.734.667.843-.628.408-3.648-.675-.628-4.508-.015-.834.643-.458,3.629.656.632Zm6.494,0,.821-.628.345-3.632-.7-.624-4.491-.02-.806.628-.436,3.648.7.628Zm6.487,0,.806-.6.282-3.648-.695-.64h-4.525l-.8.624-.354,3.632.7.628Zm6.784-4.845-4.507-.012-.821.612-.274,3.648.737.6H460.5l.812-.6.215-3.648Zm6.43,0h-4.547l-.766.6-.235,3.648.752.636,4.569.016.766-.652.176-3.648Zm1.878,0-.8.6-.154,3.668.737.632h4.584l.8-.612.065-3.673-.727-.6Zm6.381.015-.73.6-.106,3.673.737.612,4.6.015.744-.612.038-3.688-.753-.584Zm-47.468,5.1h-4.561l-.876.6-.628,3.783.683.651h4.638l.865-.64.569-3.759Zm6.5.023h-4.6l-.835.609-.569,3.759.685.64,4.668.016.851-.629.483-3.775Zm6.5.016-4.585-.016-.851.62-.489,3.775.714.629h4.612l.851-.612.422-3.792Zm1.895,0-.813.6-.452,3.792.7.623,4.646.016.858-.636.369-3.763-.714-.636Zm6.484,0-.811.636-.351,3.763.7.636h4.64l.829-.636.3-3.755-.719-.628Zm6.508.015-.81.628-.286,3.771.715.647,4.645.012.81-.644.225-3.763-.723-.624Zm6.48.028-.789.624-.237,3.763.737.644h4.661l.787-.644.162-3.763-.722-.624Zm6.508,0-.788.624-.162,3.763.76.644,4.62.015.813-.612.1-3.795-.758-.64Zm6.467,0-.772.64-.071,3.795.744.612h4.654l.786-.612.028-3.779-.744-.619Z" transform="translate(-313.317 -568.18)" fill="#0e9bd9"/>
          <path id="Path_77956" data-name="Path 77956" d="M507.27,572.789l.713-.565-.045-3.285-.723-.522-4.282-.031-.715.537v3.3l.715.545Zm1.808.012h4.33l.709-.545-.1-3.317-.75-.509L509,568.417l-.727.522.052,3.285Zm6.142,0,4.352.016.675-.561-.144-3.305-.744-.521h-4.3l-.7.509.129,3.317Zm6.17.016h4.346l.646-.561-.231-3.278-.744-.541-4.26-.008-.69.521.168,3.305Zm6.125,0,4.338.015.685-.561-.278-3.293-.767-.541h-4.282l-.683.541.227,3.278Zm6.142.015,4.359.012.652-.557-.33-3.3-.781-.553h-4.285l-.658.541.29,3.293Zm6.156.012h4.352l.667-.557-.413-3.3-.774-.553h-4.3l-.659.553.343,3.3Zm6.172,0,4.33.027.66-.569-.476-3.273-.766-.553-4.3-.015-.66.529.407,3.3Zm6.138.027h4.348l.636-.569-.513-3.261-.8-.565h-4.3l-.63.553.455,3.273Zm-44.777,4.692.713-.561-.045-3.392-.744-.557h-4.338l-.715.557V577l.715.561Zm6.237,0,.693-.545-.124-3.38-.727-.569-4.322-.016-.736.557.076,3.392.725.561Zm1.637-4.494-.7.569.121,3.38.767.556h4.386l.71-.556-.167-3.365-.76-.561Zm6.186.023-.713.561.178,3.365.758.556,4.407.024.69-.565-.239-3.38-.736-.561Zm6.446,4.506h4.415l.681-.549-.282-3.385-.75-.572h-4.387l-.689.561.253,3.38Zm6.247.012h4.4l.667-.549-.346-3.38-.766-.576-4.363-.012-.681.572.292,3.385Zm10.095-4.478-4.338-.028-.689.576.359,3.38.814.549,4.393.012.667-.561-.391-3.38Zm6.15,0h-4.323l-.676.549.415,3.38.79.561h4.424l.663-.561-.488-3.38Zm1.818,0-.667.549.505,3.38.812.585,4.4.015.64-.576-.513-3.389-.821-.556Zm-44.745,9.327.711-.56-.056-3.471-.727-.577h-4.415l-.715.561v3.467l.715.58Zm6.306.015.73-.556-.106-3.49-.764-.557-4.415-.02-.719.577.072,3.471.74.576Zm6.065-4.6H515.41l-.7.557.112,3.49.752.576h4.47l.7-.576-.149-3.467Zm6.276.012-4.414-.012-.729.58.207,3.467.774.576,4.444.02.714-.584-.237-3.464Zm2.157,4.632,4.46.024.69-.608-.275-3.439-.811-.593-4.4-.016-.681.584.235,3.464Zm10.784.024.683-.577-.375-3.47-.774-.593h-4.416l-.676.593.293,3.439.8.608Zm6.979-.557-.422-3.479-.792-.6h-4.406l-.675.593.4,3.47.774.577,4.477.008Zm5.027-4.047-4.423-.035-.659.6.45,3.479.821.565h4.456l.664-.565-.505-3.479Zm1.848,0-.667.569.492,3.479.828.577,4.438.023.667-.58-.535-3.483-.821-.584Zm-45.378,9.595.753-.592-.063-3.57-.754-.593-4.486-.019-.715.568v3.59l.737.6Zm6.425.012.707-.6-.108-3.57-.76-.593h-4.458l-.753.593.069,3.57.782.592Zm6.379,0,.753-.588-.217-3.567-.766-.588-4.463-.024-.732.593.134,3.57.794.6Zm1.886,0,4.531.016.691-.6-.231-3.55-.79-.592-4.454-.012-.7.588.184,3.567Zm6.409.039H533.1l.714-.589-.307-3.573-.788-.607H528.23l-.7.592.26,3.55Zm6.417,0,4.521.024.691-.613-.375-3.573-.807-.607H534.56l-.675.607.316,3.573Zm6.4.024h4.534l.689-.613-.444-3.561-.806-.576-4.47-.043-.689.607.385,3.573Zm6.417.016h4.525l.675-.6-.505-3.558-.821-.6h-4.464l-.681.576.445,3.561Zm5.727-4.766-.652.6.485,3.558.857.6,4.533.012.65-.616-.564-3.547-.822-.6ZM507.56,592.7l.758-.6-.069-3.7-.767-.588h-4.529l-.737.588v3.684l.767.612Zm6.515.016.738-.6-.139-3.684-.767-.592-4.507-.024-.766.588.055,3.7.774.616Zm6.464.012.753-.612-.187-3.648-.8-.613h-4.52l-.738.577.106,3.684.821.6Zm6.5.028.748-.639-.274-3.633-.788-.613h-4.533l-.727.6.192,3.648.8.612Zm6.518,0,.711-.616-.324-3.657-.8-.6-4.541-.016-.719.613.277,3.633.78.639Zm1.913,0,4.561.012.724-.6-.391-3.664-.838-.613h-4.5l-.711.6.33,3.657Zm6.494.044h4.577l.689-.628-.45-3.672-.837-.6h-4.527l-.661.6.367,3.664Zm6.494,0,4.584.015.673-.628-.5-3.672-.83-.589-4.521-.028-.7.6.458,3.672Zm5.8-4.873-.656.589.505,3.672.865.628h4.577l.667-.616-.583-3.684-.843-.589Zm-46.692,5.1h-4.584l-.767.608v3.795l.782.613h4.638l.774-.613-.085-3.795Zm6.515.015h-4.6l-.758.592.061,3.795.8.613,4.646.008.76-.62-.136-3.767Zm6.48,0h-4.584l-.758.62.12,3.767.814.62h4.654l.766-.608-.215-3.748Zm6.5,0H522.5l-.744.652.183,3.748.829.655h4.624l.744-.64-.273-3.763Zm6.51.016H529l-.729.636.245,3.763.843.652,4.632.015.74-.667L534.4,593.7Zm6.531.039-4.618-.028-.71.624.337,3.8.843.627,4.64.016.7-.628-.4-3.8Zm6.467.008L542,593.1l-.705.612.385,3.8.851.628H547.2l.683-.628-.458-3.787Zm6.534,0H548.5l-.7.62.484,3.787.844.628h4.683l.667-.612-.535-3.8Zm7.345.652-.843-.636h-4.6l-.689.6.527,3.8.885.636h4.659l.667-.624Z" transform="translate(-331.739 -568.208)" fill="#0e9bd9"/>
          <path id="Path_77957" data-name="Path 77957" d="M582.209,572.919l.632-.549-.6-3.3-.785-.549h-4.316l-.618.549.527,3.278.821.569Zm1.834,0h4.343l.591-.549-.642-3.3-.836-.533h-4.278l-.636.533.606,3.3Zm6.122,0h4.363l.606-.533-.713-3.313-.835-.513-4.3-.02-.6.533.66,3.3Zm6.18.028H600.7l.576-.561-.768-3.27-.828-.556h-4.31l-.582.513.71,3.313Zm6.164,0h4.342l.571-.541-.836-3.278-.817-.541-4.31-.028-.567.556.758,3.27Zm6.148.023H613l.575-.564-.873-3.278-.882-.541h-4.277l-.59.541.851,3.278Zm6.172,0,4.346.016.59-.569-.965-3.273-.883-.557h-4.285l-.575.541.891,3.278Zm6.156.016h4.368l.521-.569-.972-3.273L624,568.6l-4.261-.016-.576.557.942,3.273Zm6.172,0L631.5,573l.563-.585L631,569.16l-.906-.545L625.8,568.6l-.547.541,1.005,3.273Zm-44.085,4.707.64-.557-.62-3.384-.829-.568-4.338-.012-.653.556.551,3.389.835.576Zm5.369-4.494-4.377-.015-.628.568.628,3.384.843.557,4.415.02.616-.565-.682-3.38Zm6.15.015h-4.356l-.606.553.667,3.38.843.565h4.415l.612-.565-.733-3.38Zm6.152.024-4.338-.024-.59.553.714,3.38.859.585h4.393l.626-.585-.787-3.356Zm6.18,0h-4.362l-.6.553.818,3.356.863.585h4.4l.606-.553-.869-3.376Zm6.17.016-4.352-.016-.59.565L609,577.18l.879.553,4.393.015.584-.569-.888-3.376Zm6.15.015-4.346-.015-.582.565.928,3.379.878.549,4.4.028.591-.577-.964-3.352Zm6.178,0h-4.377l-.535.576.955,3.352.9.577h4.43l.547-.557-1.021-3.372Zm1.834,0-.576.576,1.034,3.372.912.557,4.4.024.535-.581-1.056-3.372-.912-.576Zm-43.32,9.343.663-.58-.641-3.463-.851-.584H578.73l-.636.564.535,3.483.859.58Zm1.87,0,4.478.015.626-.6-.689-3.452-.843-.6h-4.415l-.624.584.624,3.463Zm9.827-4.628h-4.4l-.638.6.7,3.452.851.6H596.6l.616-.58-.738-3.467Zm6.241.035-4.433-.035-.6.6.744,3.467.892.6h4.466l.59-.6-.8-3.467Zm6.237.015-4.4-.015-.606.56.815,3.467.873.6,4.454.015.634-.592-.908-3.455Zm6.235,0h-4.409l-.569.577.877,3.455.873.592h4.491l.591-.56-.942-3.486Zm3.141,4.64h4.44l.585-.576-1-3.447-.883-.592-4.423-.024-.583.577.95,3.486Zm9.4-4.616h-4.436l-.569.592.991,3.447.92.576,4.484.012.551-.572-1.072-3.463Zm1.812,0-.546.592,1.044,3.463.936.572h4.454l.565-.556-1.109-3.479-.936-.577Zm-43.833,9.619.62-.619-.62-3.55-.851-.588-4.47-.016-.646.6.582,3.547.844.631Zm1.862,0,4.544.028.637-.647-.673-3.55-.9-.588h-4.477l-.62.588.66,3.55Zm6.447.028,4.521.012.637-.644-.8-3.55-.857-.589h-4.47l-.65.572.744,3.55Zm6.4.012h4.535l.6-.6-.812-3.59-.9-.576-4.462-.012-.633.589.8,3.55Zm6.413,0,4.547.015.582-.6-.873-3.6-.912-.564-4.456-.028-.626.576.851,3.59Zm6.433.015h4.517l.6-.6-.95-3.574-.9-.588H611.2l-.582.564.9,3.6Zm6.409,0h4.539l.576-.6-1.02-3.55-.9-.6h-4.486l-.575.576.958,3.574Zm6.424.008h4.561l.546-.577-1.073-3.577-.944-.6H623.89l-.6.6,1.042,3.55ZM630.223,583l-.582.585,1.111,3.577.942.577,4.517.035.565-.612-1.169-3.562-.9-.6Zm-44.449,9.876.661-.623-.661-3.685-.865-.592h-4.529l-.66.569.6,3.684.881.647Zm1.918,0,4.608.016.642-.62-.737-3.688-.872-.6-4.513-.008-.646.592.66,3.685Zm6.508.016,4.624.012.606-.632-.8-3.661-.859-.612-4.529-.016-.644.6.72,3.688Zm6.54.012,4.574.008.637-.629-.89-3.672L604.18,588h-4.523l-.636.612.782,3.661Zm6.493.008,4.583.015.632-.644-.936-3.648-.9-.62h-4.547l-.612.6.864,3.672Zm6.495.015h4.59l.63-.628-1-3.664-.912-.6-4.547-.024-.591.62.935,3.648Zm6.524.023h4.611l.577-.636-1.043-3.656-.949-.6-4.539-.016-.591.6.99,3.664Zm6.529,0,4.594.016.589-.632-1.127-3.676-.934-.6h-4.547l-.591.6,1.052,3.656Zm5-4.9-.585.6,1.132,3.676.949.632h4.6l.569-.6-1.189-3.681-.963-.612Zm-45.934,5.11-4.584-.012-.682.636.652,3.783.859.624,4.638.015.657-.64-.657-3.759Zm6.515.015h-4.584l-.681.632.7,3.759.892.64,4.646.015.675-.628-.752-3.786Zm6.524.047-4.6-.047-.634.632.733,3.786.9.64h4.667l.638-.64-.806-3.775Zm6.494,0h-4.591l-.646.6.835,3.775.928.64,4.654.024.613-.647-.859-3.784Zm6.523,0h-4.606l-.612.6.865,3.784.949.647,4.654.027.632-.663-.947-3.779Zm6.5.016h-4.6l-.6.6.95,3.779.957.663,4.654.012.6-.643-1.034-3.811Zm6.529.015-4.591-.015-.6.6,1,3.811.958.643h4.675l.576-.643-1.082-3.8Zm6.543.012-4.6-.012-.6.6,1.068,3.8.963.643,4.668.008.576-.651-1.119-3.8Zm7.474.64-.974-.64h-4.6l-.561.593,1.151,3.819.967.627,4.642.016.583-.643Z" transform="translate(-348.793 -568.24)" fill="#0e9bd9"/>
          <path id="Path_77958" data-name="Path 77958" d="M340.895,615.114l.991-.663,1.238-3.906-.6-.651h-4.654l-1,.627-1.287,3.929.582.647Zm1.97,0,4.745.019.959-.667,1.163-3.921-.573-.636-4.671-.015-.979.651-1.227,3.906Zm6.7.019H354.3l.975-.656,1.082-3.916-.6-.644-4.651-.008-.992.636-1.125,3.921Zm6.727,0,4.7.028.987-.659,1.013-3.94-.628-.644h-4.66l-.954.644-1.1,3.916Zm6.669.028h4.759l.922-.639.955-3.93-.62-.651h-4.668l-.934.62-1.012,3.94Zm6.707.024h4.745l.928-.663.883-3.93-.63-.631-4.654-.02-.949.651-.942,3.93Zm6.717.019H381.1l.95-.647.814-3.949-.646-.647h-4.675l-.92.631-.881,3.93Zm6.715.02h4.722l.921-.667.74-3.909L388.82,610l-4.675-.035-.886.647-.829,3.949ZM395.431,610h-4.66l-.891.652-.744,3.909.651.667,4.745.012.892-.667.681-3.921ZM339.1,620.836l1.035-.683,1.257-4.047-.59-.683h-4.731l-1.013.668-1.327,4.047.582.7Zm3.657-5.379-.983.648-1.258,4.047.576.683,4.822.012,1-.695,1.181-4.036-.6-.66Zm6.721,0-.988.66-1.187,4.036.59.695h4.814l1.012-.659,1.1-4.044-.6-.667Zm6.7.02-.975.667-1.12,4.044.62.659,4.8.024.991-.663,1.049-4.064-.62-.651Zm6.707.016-.969.651-1.04,4.064.63.663,4.8.015.962-.666.971-4.048-.626-.679Zm6.713.012-.955.667-.966,4.048.62.666,4.816.032.95-.7.912-4.032-.653-.683Zm12.1.707-.66-.676-4.726-.032-.928.683-.921,4.032.642.7h4.814l.935-.683Zm6.725.023-.666-.683H383l-.891.66-.851,4.023.662.683,4.784.02.949-.68Zm1.309-.675-.912.675-.756,4.023.65.68h4.808l.942-.667.69-4.036-.682-.675ZM337.253,626.7l1.042-.683,1.3-4.158-.58-.683-4.822-.016-1.045.683-1.331,4.138.571.7Zm1.449-.683.6.683,4.838.039,1.052-.7,1.21-4.174-.6-.694h-4.816l-1.011.683Zm9.108-4.826-1,.679-1.228,4.174.629.7,4.867.015,1-.71,1.126-4.174-.612-.667Zm6.8.012-.989.667-1.166,4.174.637.71,4.877.016,1-.711,1.064-4.154-.628-.683Zm6.823.02-.975.683-1.079,4.154.608.711,4.88.016,1.005-.715.989-4.166-.63-.683Zm10.371,5.564.959-.7.936-4.17-.66-.679h-4.8l-.977.667-1.013,4.166.663.715Zm8.7-4.846-.661-.691h-4.8l-.959.667-.92,4.17.652.7,4.869.023.949-.707Zm6.832.015-.683-.683-4.8-.024-.928.707-.873,4.147.676.722h4.866l.934-.69Zm1.34-.683-.942.683-.778,4.178.667.69,4.906.008.915-.7.7-4.138-.663-.683Zm-53.318,11.491,1.052-.727,1.323-4.273-.57-.718h-4.877l-1.056.7-1.412,4.276.6.743Zm1.473-.727.59.742h4.936l1.053-.7,1.248-4.308-.612-.7-4.859-.008-1.046.695Zm6.975.043.616.715,4.936.015,1.032-.73,1.189-4.292-.612-.695-4.877-.016-1.019.7Zm12.589.754,1-.739,1.088-4.292-.6-.7L353,627.1l-1.027.695-1.167,4.292.637.73Zm7,.012,1.005-.718,1.026-4.309-.646-.7-4.88-.015-.984.714L357.8,632.1l.642.739Zm7.008,0,.971-.718.984-4.285-.668-.7-4.863-.024-.978.7-1.052,4.309.651.718Zm7.023.016.963-.711.906-4.285-.667-.707-4.885-.015-.971.7-.962,4.285.653.718Zm8.786-4.984-.7-.695-4.866-.024-.968.707-.873,4.285.667.711,4.976.015.944-.7Zm1.348-.695-.938.695-.8,4.3.7.747h4.926l.955-.73.727-4.3-.671-.715Zm-54.169,11.85,1.074-.758,1.364-4.423-.6-.71-4.946-.02-1.056.73-1.449,4.423.6.758Zm1.48-.742.6.742,5.042.016,1.052-.743,1.3-4.426-.606-.727-4.961-.012-1.056.73Zm12.772.77,1.027-.73,1.208-4.43-.59-.73-4.967-.016-1.049.727-1.287,4.426.613.754Zm7.086.011,1.039-.714,1.155-4.443-.626-.73-4.962-.015-1.034.73-1.224,4.43.633.742Zm7.118.016,1.042-.73,1.074-4.443-.66-.73h-4.94l-1.049.73-1.133,4.443.65.73Zm7.135.024,1.013-.738.983-4.415-.646-.747-4.976-.028-.991.73-1.062,4.443.66.754Zm7.122.032,1.005-.75.9-4.434-.675-.727-4.953-.02-1.005.747-.955,4.415.673.75Zm7.13.019.975-.734.836-4.438-.682-.731-4.97-.027-.963.742-.915,4.419.69.75Zm3.188-5.9-.956.731-.828,4.438.689.734,5.046.016.956-.75.76-4.423-.7-.73Zm-53.133,6.161-5.037-.035-1.073.77-1.518,4.521.59.8h5.106l1.109-.75,1.412-4.569Zm7.092.012-5.014-.012-1.079.734-1.405,4.569.612.774h5.1l1.078-.75,1.334-4.568Zm7.13.015-5.039-.015-1.026.747-1.343,4.568.6.766,5.1.016,1.066-.77,1.265-4.569Zm7.135,0h-5.021l-1.066.743-1.254,4.569.656.77,5.086.012,1.049-.766,1.2-4.568Zm7.105.024-5.005-.024-1.048.759-1.2,4.568.675.766,5.1.016,1.042-.782,1.1-4.553Zm7.139.039-5.03-.039-1.019.75-1.09,4.553.667.782,5.094.032,1.04-.79,1.027-4.557Zm7.128,0h-5.041l-.983.731L368.96,644.8l.689.79,5.106.016,1.019-.774.942-4.561Zm7.147.008-5.038-.008-1,.758-.942,4.561.69.79h5.1l1.012-.774.865-4.561Zm2.091,0-.971.766-.845,4.561.675.774,5.12.015.967-.789.8-4.55-.71-.766Z" transform="translate(-291.217 -577.735)" fill="#0e9bd9"/>
          <path id="Path_77959" data-name="Path 77959" d="M424.257,615.286l.865-.66.576-3.917-.649-.643-4.685-.024-.881.64-.638,3.921.653.683Zm1.941,0,4.765.024.877-.652.492-3.949-.661-.628-4.693-.015-.865.643-.582,3.917Zm6.738.024h4.745l.859-.652.444-3.949-.7-.628h-4.675l-.885.628-.492,3.949Zm6.716,0,4.752.032.851-.676.378-3.941-.723-.643h-4.668l-.872.643-.423,3.933Zm11.447.032.851-.659.3-3.933-.7-.652h-4.7l-.823.628-.371,3.941.723.676Zm6.729.024.814-.66.247-3.941-.738-.636-4.675-.016-.828.636-.307,3.933.744.683Zm6.707,0,.835-.66.154-3.909-.744-.648-4.681-.019-.815.636-.227,3.941.733.66Zm6.732.019.8-.66.13-3.929-.787-.648h-4.679l-.818.648-.154,3.909.766.66Zm6.769-5.236h-4.693l-.79.648-.1,3.929.781.66,4.752.024.792-.683.022-3.917ZM423.392,621l.906-.676.6-4.039-.707-.676h-4.713l-.934.66L417.9,620.3l.673.695Zm2.776-5.39-.877.676-.6,4.039.7.683h4.811l.883-.683.551-4.039-.727-.648Zm6.713.028-.865.648-.527,4.055.711.683,4.808.012.9-.679.436-4.06-.7-.636Zm12.19.683-.713-.659h-4.736l-.851.636-.476,4.06.729.694h4.808l.865-.683Zm5.574,4.754.882-.683.29-4.044-.76-.666-4.729-.02-.851.659-.393,4.047.777.683Zm6.823,0,.843-.667.239-4.047-.738-.679h-4.751l-.862.666-.3,4.044.758.683Zm2,0,4.841.016.818-.683.185-4.031-.791-.683h-4.737l-.843.667-.229,4.047Zm6.818.016,4.821.015.821-.683.1-4.047-.774-.64h-4.737l-.829.64-.169,4.031Zm6.951-5.355-.8.64-.119,4.047.8.683,4.789.016.814-.7.022-4.032-.758-.656Zm-50.724,11.171.9-.7.629-4.158-.714-.7h-4.8l-.916.683-.668,4.174.668.683Zm1.309-.7.73.7,4.873.024.9-.707.551-4.174-.7-.683h-4.822l-.892.683Zm12.512.723.887-.707.462-4.162-.707-.679-4.8-.015-.9.683-.569,4.174.753.707Zm8.21-4.853-.737-.683-4.822-.012-.866.679-.468,4.162.722.723h4.9l.865-.683Zm6.823.039-.744-.7-4.814-.027-.865.683-.4,4.186.739.7,4.878.015.9-.714Zm6.84.016-.753-.711h-4.821l-.861.7-.311,4.147.74.714h4.893l.848-.7Zm6.843,0-.79-.683-4.8-.015-.838.7-.26,4.146.766.711h4.893l.851-.695Zm1.237-.683-.845.683-.146,4.162.76.695,4.883.027.821-.707.122-4.158-.79-.7Zm6.807.024-.814.68-.085,4.158.782.707h4.893l.814-.683.043-4.166-.814-.687ZM421.6,632.98l.95-.727.6-4.3-.69-.7-4.876-.032-.934.715-.719,4.3.719.746Zm1.357-.727.7.727,4.962.008.92-.707.559-4.308-.7-.695-4.906-.024-.928.7Zm7,.028.735.719h4.937l.911-.711.484-4.3-.719-.7-4.9-.011-.885.695Zm12.7.739.9-.715.407-4.3-.753-.7-4.867-.016-.912.7-.462,4.3.723.711Zm8.279-4.983-.791-.715-4.891-.015-.872.7-.415,4.3.766.715h4.928l.931-.715Zm5.779,5.034.872-.734.253-4.3-.78-.7-4.885-.016-.858.715-.33,4.268.766.715Zm7.052,0,.806-.71.2-4.309-.787-.7-4.885-.015-.859.7-.237,4.3.766.734Zm7.153-5.718h-4.893l-.828.719-.191,4.288.807.727h4.95l.851-.715.125-4.3Zm2.053.016-.843.7-.093,4.3.816.73h4.95l.829-.715.022-4.3-.788-.719Zm-52.329,11.865.967-.75.642-4.4-.7-.734h-4.97l-.941.7-.734,4.439.7.734Zm1.374-.75.74.75,5.033.02.926-.758.576-4.415-.73-.719-4.942-.015-.942.734Zm12.9.79.936-.758.5-4.419-.752-.719H430.63l-.92.719-.56,4.4.75.758Zm7.122.015.912-.73.436-4.442-.774-.739H437.68l-.925.719-.478,4.419.731.758Zm7.139,0,.9-.73.354-4.423-.777-.739-4.966-.019-.891.739-.415,4.442.778.73Zm7.512-5.856h-4.975l-.884.7-.3,4.423.767.73,5.034.036.868-.735.277-4.423Zm7.058.015h-4.99l-.873.719-.259,4.423.8.742,5.037.02.873-.747.183-4.427Zm2.039,0-.843.73-.221,4.443.851.73,5.02.02.849-.75.093-4.443-.788-.71Zm7.038.035-.851.695-.1,4.443.821.75,5.04.015.829-.75.042-4.438-.807-.715ZM420.6,639.614l-5.038-.019-.958.742-.752,4.565.73.777,5.12.029.942-.787.667-4.56Zm7.142.028-5.056-.028-.938.747-.683,4.56.76.787,5.122.015.928-.774.6-4.568Zm7.108,0h-5.013l-.942.739-.577,4.568.744.774h5.1l.943-.754.523-4.553Zm7.162.016-5.039-.016-.936.774-.513,4.553.778.766,5.119.032.912-.781.445-4.554Zm2.1,0-.9.774-.436,4.554.766.781,5.138.032.9-.794.36-4.549-.774-.758Zm7.122.039-.881.758L450,645l.806.794,5.111.016.914-.79.261-4.553-.8-.774Zm7.183,0-.906.774-.275,4.553.835.79,5.09.012.884-.786.211-4.553-.809-.754Zm7.127.035-.878.754-.192,4.569.843.77h5.1l.887-.758.118-4.581-.829-.738Zm7.156.016-.867.738-.116,4.581.835.774,5.131.015.844-.774.03-4.584-.838-.727Z" transform="translate(-311.458 -577.769)" fill="#0e9bd9"/>
          <path id="Path_77960" data-name="Path 77960" d="M507.769,615.464l.766-.667-.085-3.917-.758-.663H503l-.782.663v3.886l.788.683Zm1.969,0,4.731.016.774-.667-.128-3.918-.807-.659h-4.675l-.774.643.077,3.917Zm6.741.016,4.744.015.727-.659-.191-3.942-.835-.659h-4.675l-.745.659.139,3.918Zm6.706.015h4.745l.75-.647-.283-3.937-.813-.636-4.689-.039-.76.659.2,3.942Zm6.713,0,4.77.035.744-.663-.369-3.941-.821-.652h-4.7l-.723.636.27,3.937Zm6.746.035H541.4l.715-.663-.413-3.913-.851-.667h-4.675l-.715.639.344,3.941Zm6.725,0,4.739.036.711-.683-.484-3.929-.851-.648H542.8l-.706.648.431,3.913Zm6.729.036h4.752l.693-.667L555,610.974l-.872-.652-4.668-.015-.723.648.484,3.929Zm6.749,0,4.728.012.705-.643-.628-3.961-.882-.64-4.691-.012-.673.652.553,3.926Zm-49.008,5.642.782-.686-.077-4.044-.774-.683h-4.764l-.788.636V620.5l.788.663Zm1.9-5.413-.78.683.077,4.044.8.686,4.806.012.815-.68-.14-4.063-.821-.667Zm6.746.028-.78.655.112,4.063.851.68,4.8.015.8-.683-.239-4.047-.8-.683Zm6.7,0-.76.683.231,4.047.843.683h4.829l.744-.683-.27-4.031-.867-.683Zm7.135,5.43h4.806l.76-.676-.351-4.039-.845-.7h-4.774l-.737.683.274,4.031Zm11.1-5.383-4.751-.015-.71.683.337,4.039.851.676,4.821.027.73-.7-.415-4.039Zm6.76.016h-4.77l-.719.652.428,4.039.867.7H548.8l.711-.679-.464-4.04Zm6.707.015-4.731-.015-.729.675.505,4.04.885.7h4.835l.7-.667-.569-4.056Zm2,0-.7.675.569,4.056.912.667,4.812.016.693-.683-.646-4.056-.881-.659Zm-48.959,11.207.8-.718-.077-4.171-.79-.675-4.855-.024-.788.687v4.166l.807.719Zm6.93,0,.787-.707-.139-4.182-.828-.66-4.844-.016-.781.675.077,4.171.843.718Zm7.7-.683-.239-4.182-.83-.683h-4.822l-.766.66.154,4.182.829.707,4.895.016Zm1.265.7,4.881.023.78-.707-.3-4.17-.843-.683h-4.829l-.758.656.2,4.182Zm11.825.031.744-.7-.373-4.171-.851-.7h-4.816l-.758.683.29,4.17.857.714Zm6.366-5.551h-4.847l-.719.683.351,4.171.867.714h4.912l.76-.7-.452-4.186Zm2.6,5.58H549.5l.744-.7-.5-4.186-.906-.676-4.814-.023-.734.683.436,4.186Zm11.071-5.541-4.838-.016-.7.676.5,4.186.9.71h4.893l.715-.695-.553-4.178Zm2.017,0-.713.683.6,4.178.912.695,4.889.024.723-.707-.676-4.174-.912-.663Zm-49.683,11.53.8-.73-.063-4.3-.817-.7-4.89-.012-.83.715v4.28l.83.747Zm7.037.028.79-.758-.136-4.261-.851-.7-4.885-.039-.805.7.061,4.3.865.742Zm2.061,0,4.984.02.787-.73-.249-4.293-.837-.714h-4.9l-.778.7.133,4.261Zm7.055.02,4.95.012.768-.715-.29-4.32-.858-.7h-4.9l-.784.7.215,4.308Zm7.023.012,4.964.016.752-.731-.351-4.308-.858-.695-4.906-.016-.781.7.3,4.32Zm12,.031.766-.727-.468-4.308-.873-.7-4.9-.016-.758.695.374,4.308.892.731Zm2.069,0h4.983l.729-.719-.523-4.3-.9-.714h-4.9l-.738.7.431,4.308Zm7.058,0,4.983.028.723-.727-.632-4.32-.908-.7H551.61l-.744.7.513,4.3Zm6.219-5.722-.719.7.6,4.32.91.727,4.983.02.715-.747-.667-4.265-.92-.719Zm-50.442,11.9.835-.738-.1-4.439-.818-.727-4.967-.016-.83.73v4.423l.835.767Zm7.143.02.814-.739-.138-4.434-.867-.735-4.962-.015-.827.727.1,4.439.843.738Zm7.145.036.8-.755-.238-4.438-.838-.719-5-.032-.787.735.159,4.434.873.739Zm7.138.012.8-.743-.312-4.446-.862-.735h-4.958l-.814.719.247,4.438.865.755Zm2.13,0,5.023.015.781-.746-.385-4.435-.888-.723-4.976-.015-.787.715.317,4.446Zm7.145.015h5.034l.752-.727-.444-4.438-.9-.739h-4.99l-.76.723.371,4.435Zm7.129,0,5.074.024.737-.734-.539-4.435-.926-.738-4.983-.02-.743.739.474,4.438Zm7.175.04,5.021.023.758-.758-.62-4.43-.926-.758h-4.984l-.73.738.527,4.435Zm6.3-5.912-.733.747.612,4.43.949.758H565.3l.718-.738-.7-4.439-.921-.758ZM508.1,639.812h-5.047l-.835.727v4.584l.859.774,5.138.04.835-.782-.091-4.569Zm7.143.016h-5.034l-.807.758.063,4.569.864.782h5.124l.825-.767-.144-4.56Zm7.169.024h-5.047l-.829.758.169,4.56.891.774h5.111l.8-.758-.223-4.561Zm7.149.035-5.041-.024-.786.762.217,4.561.89.785h5.148l.777-.746-.316-4.588Zm7.155.019-5.046-.019-.788.75.322,4.588.881.746,5.159.036.784-.782-.4-4.561Zm7.167,0h-5.066l-.76.758.4,4.569.916.774,5.115.016.78-.774-.489-4.568Zm7.152.02h-5.049l-.76.754.474,4.568.934.774,5.115.012.774-.774-.561-4.569Zm7.161.015-5.068-.015-.737.766.547,4.569.95.774,5.129.015.74-.774-.634-4.569Zm8.1.782-.969-.742-5.034-.04-.729.767.63,4.569.965.774,5.122.016.756-.743Z" transform="translate(-331.739 -577.809)" fill="#0e9bd9"/>
          <path id="Path_77961" data-name="Path 77961" d="M589.74,615.652l.681-.659-.733-3.96-.892-.633h-4.689l-.66.616.629,3.961.911.643Zm1.994,0,4.715.016.691-.66-.782-3.965-.92-.62-4.687-.024-.656.633.711,3.96Zm6.707.016,4.77.008.66-.652-.861-3.965-.928-.62-4.675-.016-.667.62.782,3.965Zm6.746.008,4.76.015.646-.647-.914-3.956-.934-.648h-4.717l-.62.62.845,3.965Zm6.754.015,4.768.016.6-.663-.979-3.937-.949-.652h-4.7l-.62.633.944,3.956Zm6.747.028h4.746l.6-.675-1.066-3.922-.928-.651-4.691-.016-.619.652.979,3.937Zm6.715,0,4.778.024.6-.683-1.143-3.921-.949-.647-4.7-.02-.632.651,1.073,3.922Zm6.763.024h4.765l.577-.647-1.2-3.946-.964-.632-4.7-.027-.618.647,1.156,3.921Zm6.738,0,4.774.02.577-.667L643,611.151l-1-.632h-4.7l-.59.632,1.18,3.946Zm-48.145,5.627.685-.679-.728-4.052-.92-.679h-4.769l-.681.679.663,4.052.938.679Zm5.767-5.382-4.77-.028-.642.679.744,4.052.918.7H597.6l.693-.683-.829-4.047Zm6.752.019-4.752-.019-.676.675.814,4.047.958.706,4.822.016.653-.7-.881-4.047Zm6.78.012-4.816-.012-.624.68.892,4.047.934.7h4.837l.646-.683-.936-4.047Zm6.726.032-4.774-.032-.638.683.962,4.047.964.7h4.815l.651-.683-1.026-4.063Zm6.732.015-4.752-.015-.629.651,1.041,4.063.969.683,4.829.015.6-.683-1.073-4.063Zm6.763,0h-4.785l-.613.652,1.112,4.063.983.683,4.836.012.612-.68-1.181-4.064Zm6.746.024-4.77-.024-.59.667,1.151,4.064,1,.68,4.851.027.585-.707-1.228-4.051Zm1.984,0-.6.656,1.258,4.051,1.027.707h4.821l.59-.687-1.321-4.071-1.005-.64Zm-47.184,11.214.69-.719-.767-4.181-.935-.668L586,621.721l-.695.663.695,4.2.935.7Zm2.029,0h4.915l.675-.706-.837-4.178-.949-.663-4.814-.02-.683.668.76,4.181Zm10.68-5.528-4.853-.02-.673.663.827,4.178.958.706H605.7l.667-.691-.9-4.154Zm6.815,0h-4.813l-.668.683.9,4.154.977.723h4.918l.634-.687-.964-4.189Zm6.869,0h-4.845l-.667.683,1,4.189.979.687,4.918.024.642-.683-1.049-4.194Zm6.832.008h-4.829l-.638.7,1.059,4.194,1,.683,4.906.011.628-.695-1.117-4.181Zm3.542,5.6h4.92l.582-.695-1.194-4.182-.983-.71H627.06l-.609.695,1.116,4.181Zm10.163-5.548H633.92l-.6.671,1.188,4.182,1.043.71h4.9l.6-.7-1.274-4.194Zm2.01.015-.584.656,1.273,4.194,1.019.715h4.92l.6-.691-1.356-4.178-1.027-.695Zm-47.845,11.526.68-.71-.758-4.328-.957-.7-4.9-.024-.7.719.7,4.3.942.715Zm2.071.016h4.983l.69-.727-.869-4.308-.963-.707-4.928-.008-.662.7.79,4.328Zm7.045.015,4.967.016.675-.727-.919-4.332-.984-.7-4.906-.02-.675.707.867,4.308Zm7.058.016,4.967.015.667-.73-1.011-4.32-1-.718h-4.893l-.648.7.92,4.332Zm7.029.015,4.983.016.646-.747-1.09-4.308-.963-.71h-4.914l-.646.7,1.012,4.32Zm7.054.016h4.983l.657-.71-1.17-4.328-1-.683-4.913-.028-.661.711,1.089,4.308Zm7.052,0,4.992.019.637-.718-1.244-4.32-1.035-.7h-4.912l-.624.683,1.173,4.328Zm7.071.019,4.967.036.628-.754-1.321-4.308-1.019-.715H635.63l-.62.715,1.232,4.308Zm5.288-5.726-.591.7,1.3,4.308,1.064.754,4.967.015.62-.73-1.408-4.3-1.026-.747Zm-48.531,11.9.69-.742-.821-4.446-.95-.707L588,633.742l-.71.714.734,4.439.949.747Zm2.082,0,5.038.024.713-.743-.873-4.454-.977-.7-4.981-.02-.7.707.8,4.446Zm7.176.024,5.021.019.707-.738-.968-4.443-.995-.73H602.1l-.673.7.9,4.454Zm7.128.019,5.068.028.66-.746-1.019-4.443-1.012-.738-4.981-.012-.653.73.962,4.443Zm7.169.028h5.077l.637-.73-1.107-4.435-1.013-.738h-4.979l-.668.715,1.071,4.443Zm7.177,0,5.061.016.633-.747-1.188-4.423-1.049-.734h-4.976l-.645.722,1.13,4.435Zm7.161.016,5.057.039.638-.766-1.294-4.419-1.03-.743-4.957-.015-.662.734,1.2,4.443Zm7.165.039h5.068l.6-.738-1.331-4.431-1.066-.742-4.977-.016-.626.743,1.279,4.419Zm5.353-5.887-.582.718,1.317,4.431,1.074.738,5.06.035.59-.75-1.412-4.438-1.06-.734Zm-50.353,6.148h-5.074l-.727.75.774,4.577.988.766,5.121.016.715-.766-.821-4.593Zm7.161.016H596.2l-.689.734.833,4.593,1,.766,5.145.015.69-.781-.915-4.561Zm7.155.012h-5.061l-.689.754.894,4.561,1.027.781,5.138.012.689-.767-.979-4.588Zm7.187.016-5.083-.016-.683.754.983,4.588,1.048.767,5.146.015.667-.766-1.068-4.577Zm7.131,0h-5.039l-.667.766,1.069,4.6,1.063.742,5.123.032.659-.774-1.133-4.573Zm7.183.032h-5.061l-.638.762,1.145,4.573,1.07.782,5.124.015.626-.766-1.2-4.593Zm7.19.023H632.05l-.629.75,1.22,4.593,1.078.766h5.129l.646-.75-1.313-4.592Zm7.159.028-5.076-.012-.613.75,1.321,4.592,1.063.767h5.158l.614-.755-1.38-4.588Zm8.265.767-1.082-.739-5.074-.028-.606.754,1.382,4.588,1.12.794,5.125.016.612-.781Z" transform="translate(-350.382 -577.851)" fill="#0e9bd9"/>
          <path id="Path_77962" data-name="Path 77962" d="M323.841,666.492l1.133-.813,1.475-4.766-.606-.794h-5.151l-1.1.766-1.582,4.762.613.817Zm2.172,0,5.216.016,1.1-.818,1.419-4.766-.619-.79-5.138-.015-1.1.794-1.471,4.766Zm7.388.016,5.222.012,1.088-.8,1.342-4.79-.646-.774-5.145-.024-1.088.79-1.385,4.766Zm7.4.028,5.207.016,1.082-.81,1.265-4.794-.667-.774-5.129-.015-1.09.774-1.3,4.79Zm7.384.016h5.236l1.064-.8L355.633,661l-.675-.822h-5.122l-1.069.774-1.23,4.794Zm7.43,0,5.218.039,1.06-.821,1.062-4.759-.7-.8h-5.128l-1.044.786-1.16,4.758Zm7.4.039,5.215.016,1.049-.8.991-4.794-.691-.774h-5.159l-1.036.774-1.064,4.759Zm7.374.016,5.228.012,1.049-.794.906-4.786-.7-.79-5.167-.012-1.011.785-1.013,4.782Zm13.753-6.319L379,660.249l-1.011.79-.9,4.786.711.794,5.235.015,1-.794.845-4.762Zm-62.479,13.158,1.151-.829,1.512-4.917-.609-.814-5.211-.027-1.159.8-1.6,4.932.6.837Zm4.247-6.559-1.141.814-1.518,4.928.628.818,5.3.043,1.151-.837,1.434-4.936-.63-.8Zm7.393.028-1.1.8-1.457,4.936.636.837h5.3l1.12-.837,1.378-4.92-.65-.817Zm7.41.02-1.109.8-1.365,4.92.652.868,5.329.016,1.1-.864,1.274-4.909-.662-.829Zm7.4.015-1.082.814-1.285,4.909.66.864h5.321l1.083-.837,1.2-4.913-.667-.809Zm7.391.028-1.065.809-1.18,4.929.675.821,5.309.019,1.082-.814,1.1-4.956-.7-.809Zm13.339.853-.7-.833-5.244-.02-1.044.809-1.118,4.956.715.845h5.321l1.041-.845Zm7.444,0-.711-.81L370.3,667l-1.034.833-1.019,4.912.723.845,5.327.016,1.042-.861Zm1.457-.8-1.035.8-.92,4.912.71.861,5.331.008,1.027-.814.837-4.927-.709-.83Zm-58.347,13.612,1.181-.858,1.58-5.066-.613-.877h-5.3l-1.18.861-1.664,5.066.624.861Zm1.61-.858.653.881,5.374.016,1.149-.881,1.511-5.082-.628-.821-5.327-.024-1.145.845Zm10.274-5.887-1.137.821-1.506,5.082.633.881,5.42.024,1.138-.869,1.408-5.066-.66-.857Zm7.507.028-1.123.845-1.4,5.066.675.869,5.379.015,1.129-.853,1.331-5.082-.671-.841Zm7.55.02-1.12.841-1.313,5.082.689.869,5.363.02,1.126-.873,1.224-5.09-.689-.849Zm11.281,6.827,1.09-.888,1.151-5.09-.707-.814-5.3-.035-1.1.849-1.222,5.09.683.873Zm9.762-5.92-.7-.848-5.309-.024-1.088.814-1.13,5.09.707.888,5.4.023,1.077-.848Zm7.549.02-.7-.837-5.326-.016-1.06.833-1.056,5.094.718.864h5.428l1.044-.849Zm1.5-.837-1.046.837-.956,5.09.711.865,5.42.015,1.066-.861.858-5.11-.736-.821ZM317.035,688.08l1.218-.868,1.625-5.26-.606-.872h-5.4l-1.189.837-1.731,5.264.628.9Zm1.663-.868.651.881,5.489.024,1.15-.889,1.579-5.255-.667-.873-5.39-.019-1.181.872Zm7.751.015.66.889,5.471.031,1.173-.888,1.463-5.268-.663-.857-5.39-.019-1.167.857Zm13.912.96,1.13-.916,1.4-5.248-.681-.873-5.427-.016-1.117.873-1.475,5.252.693.9Zm7.781.012,1.137-.912,1.25-5.252-.675-.857h-5.4l-1.137.845-1.357,5.248.7.916Zm7.781.035,1.1-.9,1.189-5.279-.7-.861H352.1l-1.12.841-1.257,5.252.689.928Zm7.765.012,1.082-.881,1.12-5.283-.727-.865-5.4-.024-1.1.861-1.173,5.279.7.9Zm9.868-6.14-.752-.857-5.39-.032-1.089.865-1.089,5.283.737.881,5.5.016,1.09-.881Zm1.511-.857-1.066.857-.991,5.276.768.9,5.467.012,1.074-.9.908-5.276-.766-.854Zm-60.426,14.563,1.207-.944,1.71-5.426-.66-.9-5.467-.023-1.2.9-1.771,5.43.614.94Zm1.672-.944.646.944,5.59.016,1.18-.916,1.617-5.453-.653-.881-5.5-.019-1.2.884Zm14.121,1,1.189-.944,1.532-5.41-.667-.92-5.519-.016-1.165.881-1.6,5.453.659.916Zm7.914.016,1.171-.908,1.412-5.461-.662-.908-5.5-.012-1.175.92-1.491,5.41.69.944Zm7.91.027,1.159-.935,1.317-5.426-.7-.9-5.48-.016-1.175.885-1.386,5.461.675.92Zm7.9.028,1.159-.916,1.2-5.473-.719-.9-5.467-.008-1.126.9-1.334,5.426.7.935Zm7.935.028,1.117-.928,1.13-5.45-.744-.9-5.481-.024-1.111.881-1.25,5.473.736.928Zm7.9.016,1.12-.928,1.032-5.457-.75-.868-5.5-.035-1.12.9-1.109,5.45.737.928Zm3.7-7.254-1.1.868-1.027,5.457.76.94H377.9l1.1-.9.92-5.466-.758-.9Zm-59.2,7.522H308.9l-1.232.912-1.826,5.627.612.972,5.685.024,1.24-.96,1.763-5.631Zm7.906.047-5.582-.032-1.2.928-1.771,5.631.667.96,5.688.015,1.208-.959,1.673-5.631Zm7.934.012-5.589-.012-1.2.912-1.66,5.659.676.948h5.672l1.21-.936L331,697.229Zm7.888.032-5.56-.015-1.2.9-1.539,5.651.681.952,5.666.02,1.18-.932,1.469-5.658Zm7.941.016-5.588-.016-1.18.92-1.467,5.658.709.932,5.678.043,1.174-.963,1.386-5.631Zm7.91.039-5.58-.015-1.155.921-1.376,5.631.723.963,5.68.012,1.159-.94,1.28-5.631ZM362,696.4l-5.609-.008-1.137.941-1.274,5.631.744.955,5.68.008,1.159-.935,1.146-5.659Zm7.905.032-5.605-.02-1.112.928-1.163,5.651.748.935,5.7.024,1.12-.944,1.074-5.647Zm2.33,0-1.112.928-1.056,5.647.767.96,5.68.015,1.112-.952.971-5.635-.748-.935Z" transform="translate(-286.667 -589.262)" fill="#0e9bd9"/>
          <path id="Path_77963" data-name="Path 77963" d="M415.985,666.725l1-.814.707-4.766-.731-.794-5.172-.012-.984.79-.78,4.774.737.8Zm2.18,0,5.236.015.955-.806.632-4.774-.744-.766-5.175-.043-.959.794-.689,4.766Zm7.414.032h5.228l.972-.8.537-4.785-.774-.767-5.159-.012-.95.766-.6,4.774Zm7.4.015,5.229.024.942-.821.47-4.786-.774-.758-5.159-.024-.942.767-.555,4.785Zm7.406.024,5.252.023.912-.829.373-4.762-.772-.782-5.167-.015-.936.758-.428,4.786Zm12.658.051.924-.821.294-4.782-.821-.782-5.134-.016-.948.782L447,665.99l.805.829Zm7.425.009.9-.81.184-4.786-.814-.8h-5.157l-.9.782-.269,4.782.788.821Zm7.422.015.873-.814.116-4.758-.828-.806-5.175-.016-.857.8-.217,4.77.851.81Zm7.465-6.365-5.159-.012-.886.806-.133,4.758.877.814h5.218l.912-.8.034-4.774Zm-60.422,13.216,1-.849.737-4.936-.75-.806-5.23-.039-.989.845-.829,4.912.744.837Zm3.173-6.567-1,.782-.72,4.936.772.849,5.307.02.982-.853.65-4.937-.753-.781Zm7.414.016-.963.781-.667,4.937.8.853,5.291.015.992-.829.565-4.956-.79-.8Zm7.435.012-.989.79-.529,4.956.768.849h5.327l.962-.838.458-4.928-.774-.829Zm13.448.853-.79-.818-5.283-.02-.935.814-.459,4.928.8.838,5.32.015.95-.837Zm6.194,5.789.942-.861.287-4.928-.8-.8h-5.258l-.928.8-.389,4.92.81.837Zm2.239,0,5.321.016.894-.857.226-4.932-.83-.8-5.258-.015-.914.8-.3,4.928Zm7.528.016h5.309l.94-.838.112-4.936-.865-.8-5.245-.016-.911.8-.206,4.932Zm7.671-6.555-.9.805-.11,4.949.891.821,5.3.024.908-.825.026-4.952-.875-.8Zm-56.175,13.647,1.026-.877.76-5.09-.76-.844h-5.334l-1.013.8-.851,5.11.76.873Zm1.467-.877.8.877,5.382.008,1.012-.869.656-5.082-.766-.845-5.3-.015-1.012.837Zm13.85.9,1-.865.561-5.081-.774-.841-5.313-.02-1.013.845-.646,5.082.774.869Zm9.122-5.931-.8-.821-5.346-.035-.972.841-.576,5.081.835.865,5.4.024.983-.857Zm6.205,5.994.955-.849.409-5.11-.837-.837-5.321-.02-.955.821-.5,5.126.817.868Zm8.9-5.935-.821-.841-5.356-.02-.928.837-.385,5.11.821.849,5.412.015.965-.853Zm7.58.012-.873-.837-5.321-.015-.942.841-.283,5.1.843.853,5.406.016.956-.869Zm1.368-.821-.94.821-.2,5.086.851.881,5.412.016.92-.881.14-5.074-.877-.848Zm7.555,0-.926.848-.132,5.074.89.881,5.406.039.895-.873.062-5.105-.887-.829ZM412.75,688.383l1.027-.884.8-5.272-.774-.868h-5.412l-1.052.829-.851,5.279.774.9Zm1.489-.884.811.884,5.475.02,1.019-.885.722-5.279-.807-.865-5.412-.015-1.026.868Zm7.774.019.8.885,5.51.04,1.013-.889.582-5.3-.8-.865-5.406-.016-1,.881Zm14.074.94,1-.9.508-5.268-.816-.868-5.4-.012-1,.849-.577,5.3.8.889Zm9.2-6.148-.814-.873-5.427-.019-.975.868-.519,5.268.857.9,5.484.023.975-.912Zm7.7.024-.858-.869-5.4-.028-.989.873-.415,5.259.865.912,5.5.02.962-.9Zm6.494,6.184.972-.881.21-5.292-.863-.881h-5.42l-.964.869-.3,5.283.869.885Zm7.987-6.99-5.413-.063-.942.881-.215,5.292.868.9h5.511l.95-.885.129-5.295Zm2.276,0-.957.853-.109,5.272.9.885,5.5.036.935-.905.022-5.275-.887-.849Zm-58.155,14.559,1.066-.908.8-5.461-.782-.893-5.48-.028-1.078.881-.906,5.466.8.943Zm1.544-.908.78.908,5.6.012,1.06-.9.71-5.465-.8-.881h-5.511l-1.034.869Zm14.3.952,1.019-.908.634-5.433-.8-.928-5.512-.012-1.037.881-.705,5.465.821.92Zm7.94.047,1-.928.528-5.461-.826-.908-5.518-.019-1.022.928-.591,5.433.844.908Zm7.927.028.983-.955.436-5.426-.867-.908-5.5-.012-.992.885-.513,5.461.838.943Zm7.928.008.982-.916.321-5.461-.859-.9-5.489-.024-1.02.908-.429,5.426.906.955Zm8.258-7.25-5.537-.016-.956.888-.337,5.461.887.916h5.581l1-.88.239-5.481Zm2.265,0-.95.888-.231,5.481.922.92,5.588.032.962-.936.1-5.45-.878-.92Zm7.807.032-.912.9-.154,5.45.928.936,5.6.015.92-.912.055-5.489-.912-.884Zm-58.035,7.55-5.576-.015-1.089.919L403.9,703.1l.8.952H410.4l1.082-.936.843-5.619Zm7.935.055-5.588-.023-1.078.92-.821,5.655.8.948,5.7.028,1.07-.955.73-5.651Zm7.934,0H421.8l-1.049.921-.766,5.651.831.955,5.685.016,1.07-.96.661-5.627Zm7.921.044-5.581-.032-1.058.944-.628,5.627.843.975h5.688l1.058-.959.522-5.627Zm2.328,0-1.033.928-.513,5.65.857.936,5.706.024,1.013-.948.442-5.631-.873-.943Zm7.929.039-1,.92-.42,5.631.876.963,5.686.012,1.021-.94.314-5.643-.869-.944Zm7.941,0-.981.944-.332,5.643.885.963h5.71l.975-.948.245-5.638-.9-.948Zm7.965.028-.989.936-.253,5.638.925.979h5.675l1-.928.133-5.671-.9-.955Zm7.914.035-.941.92-.133,5.671.907.944,5.694.015.949-.959.062-5.627-.912-.944Z" transform="translate(-309.174 -589.313)" fill="#0e9bd9"/>
          <path id="Path_77964" data-name="Path 77964" d="M508.326,666.965l.868-.791-.077-4.805-.882-.766-5.159-.028-.859.794v4.774l.881.805Zm2.186,0,5.235.027.859-.8-.169-4.809-.895-.751L510.4,660.6l-.849.778.083,4.793Zm7.43.027,5.243.028.822-.81-.232-4.8-.892-.782h-5.188l-.821.782.154,4.778Zm7.421.028,5.236.02.835-.83-.356-4.766-.91-.8-5.143-.016-.838.782.26,4.8Zm7.435.02,5.228.015.811-.829-.4-4.766-.942-.794-5.167-.02-.8.8.326,4.766Zm7.418.015,5.222.028.813-.818-.513-4.79-.934-.773-5.159-.036-.786.794.407,4.766Zm7.438.028h5.235l.792-.786-.576-4.809-.968-.774-5.167-.012-.774.773.492,4.79Zm7.427.02h5.252l.744-.79-.653-4.79-.979-.786-5.143-.024-.782.81.59,4.774Zm7.422.023,5.266.008.723-.789-.753-4.794-.967-.786-5.181-.028-.719.786.667,4.79Zm-54.059,6.819.887-.817-.106-4.933-.9-.833H503.1l-.881.81v4.94l.881.825Zm2.09-6.582-.858.833.083,4.933.885.817,5.351.056.865-.853-.192-4.937-.92-.821Zm7.421.043-.843.805.168,4.937.906.853,5.351.016.829-.853-.247-4.929-.934-.813Zm7.8,6.611,5.319.012.851-.849-.351-4.944-.921-.794-5.273-.019-.821.813.247,4.929Zm7.552.032h5.312l.821-.814-.415-4.956-.949-.818-5.258-.02-.816.794.354,4.944Zm12.212-6.571-5.258-.016-.807.818.448,4.956.95.814h5.327l.811-.806-.537-4.944Zm7.421.028-5.23-.012-.814.805.533,4.944.972.841,5.335.024.774-.865-.584-4.928Zm7.457.028-5.25-.028-.791.81.622,4.928.983.865,5.325.015.778-.825-.691-4.971Zm2.18,0-.76.81.69,4.956,1,.825,5.35.016.752-.822-.76-4.952-1-.833Zm-54.039,13.651.907-.858-.077-5.1-.921-.853H503.1l-.881.814v5.121l.912.873Zm7.7.019.851-.865-.163-5.094-.925-.837-5.351-.032-.851.853.091,5.1.914.858Zm7.306-6.78-5.322-.016-.858.837.178,5.094.942.881,5.412.019.868-.9-.286-5.082Zm2.606,6.815,5.428.016.829-.853-.346-5.1-.975-.857-5.295-.019-.857.833.266,5.082Zm13.1.044.843-.865-.476-5.1-.957-.841-5.321-.036-.835.857.367,5.1.951.881Zm6.974-6.792-5.341-.012-.79.841.431,5.1.972.881h5.42l.821-.865-.529-5.1Zm2.946,6.807,5.433.024.792-.849-.622-5.118-.987-.841-5.336-.023-.791.845.545,5.1Zm12.181-6.768-5.327-.016-.8.841.628,5.118,1.019.849,5.412.032.784-.869-.721-5.105Zm2.227.016-.786.833.723,5.105,1.026.869,5.428.019.774-.872-.821-5.1-1.026-.852ZM508.65,688.663l.9-.881-.085-5.3-.92-.854-5.414-.011-.912.849v5.259l.936.928Zm7.829.019.857-.885-.168-5.3-.936-.825-5.412-.044-.911.854.12,5.3.92.881Zm2.276,0,5.5.016.873-.877-.274-5.288-.954-.853-5.406-.012-.887.825.2,5.3Zm7.8.028,5.5.023.865-.911-.381-5.252-.959-.864-5.428-.024-.843.853.274,5.288Zm7.773.023,5.534.016.844-.888-.458-5.272-.984-.877-5.412-.008-.851.864.367,5.252Zm7.827.024,5.536.016.8-.885-.543-5.3-.983-.877h-5.441l-.835.877.476,5.272Zm7.82.016,5.505.024.821-.889-.632-5.307-1.011-.833-5.435-.015-.828.837.552,5.3Zm7.81.024,5.489.035.83-.865-.753-5.323-1.027-.865-5.425-.012-.778.873.624,5.267Zm6.81-7.018-.785.865.738,5.323,1.041.865,5.5.019.8-.884-.851-5.3-1-.869ZM508.755,696.37l.948-.9-.111-5.484-.941-.865-5.5-.02-.936.873v5.465l.942.912Zm7.935.044.914-.928-.2-5.453-.928-.893-5.53-.015-.881.865.063,5.484.958.928Zm7.977.016.857-.881-.284-5.505-.966-.881-5.5-.024-.9.893.192,5.453.983.928Zm7.893.032.888-.912-.381-5.474-.991-.881-5.5-.032-.865.881.274,5.505.975.9Zm2.348,0,5.611.023.865-.911-.484-5.458-.987-.92H534.39l-.851.881.385,5.474Zm7.949.038,5.6.009.843-.924-.56-5.446-1.026-.924-5.5-.02-.829.92.451,5.458Zm7.933.009,5.605.012.859-.88-.709-5.49-1.011-.9-5.527-.016-.821.9.577,5.446Zm7.967.032,5.6.028.819-.928-.756-5.474-1.06-.911h-5.518l-.806.9.667,5.49Zm6.9-7.27-.78.9.752,5.474,1.07.928,5.621.016.781-.928-.875-5.474-1.04-.888Zm-56.906,7.582-5.6-.016-.942.955v5.6l.95.975,5.72.012.92-.936-.083-5.65Zm7.968,0h-5.635l-.907.94.117,5.65.958.936,5.688.028.926-.948-.19-5.647Zm7.951.032-5.615-.016-.9.943.183,5.647.987.948,5.706.012.92-.921-.316-5.67Zm7.941.032-5.629-.032-.865.944.291,5.67.983.952h5.733l.859-.912-.377-5.675Zm7.973.047-5.651-.019-.851.92.373,5.675,1.046.928,5.681.032.878-.959-.48-5.658Zm7.943.012-5.645-.012-.827.917.485,5.658,1.019.959,5.728.008.851-.928-.59-5.659Zm7.941.032-5.629-.032-.835.944.6,5.659,1.052.955,5.708.016.837-.956-.7-5.658Zm7.964.016-5.635-.016-.811.928.683,5.658,1.084.956,5.684.023.836-.959-.784-5.651Zm9.039.96-1.075-.928-5.628-.019-.81.928.774,5.651,1.1.975,5.72.016.773-.975Z" transform="translate(-331.739 -589.367)" fill="#0e9bd9"/>
          <path id="Path_77965" data-name="Path 77965" d="M598.817,667.206l.729-.774-.891-4.79-.979-.79-5.167-.016-.744.774.8,4.809.991.786Zm2.192,0,5.244.063.715-.837-.96-4.759-1.021-.8-5.159-.023-.71.79.857,4.79Zm7.438.063,5.236.016.722-.821-1.046-4.775-1.032-.814h-5.175l-.689.8.957,4.759Zm7.435.016,5.244.012.681-.8-1.125-4.795-1.011-.805H614.5l-.7.794,1.022,4.775Zm7.436.012,5.259.015.667-.8-1.2-4.794-1.058-.79-5.183-.031-.681.805,1.126,4.795Zm7.445.015,5.258.04.646-.826-1.274-4.77-1.1-.829h-5.159l-.667.806,1.2,4.778Zm7.449.04h5.252l.646-.814-1.376-4.766-1.084-.814-5.179-.016-.642.814,1.3,4.77Zm7.446.015H650.9l.636-.781-1.457-4.814-1.1-.782-5.188-.032-.628.814,1.364,4.766Zm7.443.016,5.258.015.62-.8-1.54-4.814-1.125-.781-5.168-.016-.631.782,1.475,4.814Zm-53.034,6.851.737-.841-.9-4.952-1.035-.8h-5.228l-.758.781.814,4.952,1.048.838Zm6.263-6.579-5.273-.012-.714.8.914,4.952,1.049.841,5.313.023.737-.865-.989-4.928Zm7.452.008-5.266-.008-.711.821,1,4.916,1.052.865,5.335.02.719-.837-1.1-4.948Zm7.435.027-5.244-.027-.711.829,1.086,4.948,1.066.837,5.343.012.689-.829-1.161-4.952Zm7.468.016-5.274-.016-.683.818,1.16,4.952,1.078.853h5.363l.689-.853-1.257-4.932Zm7.449.028-5.279-.028-.659.821,1.25,4.932,1.09.873h5.356l.66-.849-1.335-4.937Zm7.451.024-5.266-.024-.668.813L639,673.516l1.122.837,5.335.015.642-.838-1.4-4.967Zm7.455.024-5.244-.024-.667.821,1.419,4.952,1.14.838,5.35.016.633-.838-1.5-4.944Zm2.194.015-.64.805,1.5,4.944,1.147.838H660.6l.618-.822-1.579-4.952-1.167-.813ZM601.38,681.473l.725-.881-.912-5.121-1.04-.821-5.343-.028-.752.837.829,5.126,1.056.888Zm2.237,0,5.412.015.758-.857-1.011-5.121-1.06-.861h-5.335l-.753.821.946,5.121Zm11.644-6.776-5.32-.015-.729.829,1.026,5.121,1.089.857,5.42.016.722-.857-1.111-5.138Zm7.572.016L617.5,674.7l-.7.854,1.1,5.1,1.1.872,5.426.012.711-.873-1.2-5.109Zm7.584.008-5.336-.008-.714.837,1.228,5.109,1.1.873,5.426.019.683-.877-1.287-5.109Zm7.587.035-5.366-.035-.681.845,1.321,5.109,1.1.877,5.42.028.681-.881-1.39-5.081Zm4.081,6.823H647.5l.681-.829-1.489-5.133-1.1-.825-5.372-.036-.644.861,1.371,5.081Zm11.063-6.776-5.355-.012-.633.825,1.463,5.133,1.151.829,5.449.063.646-.877-1.581-5.118Zm2.215.015-.624.829,1.574,5.118,1.157.877,5.443.016.613-.893-1.633-5.11-1.18-.837ZM602.7,688.963l.766-.888-.958-5.315-1.082-.865-5.42-.039-.753.885.859,5.3,1.074.9Zm2.29,0h5.538l.733-.873-1.07-5.291-1.039-.865-5.45-.024-.75.849.975,5.315Zm7.828.012,5.527.019.723-.876-1.151-5.3-1.089-.868-5.42-.012-.744.865,1.069,5.291Zm7.827.019,5.518.024.722-.9-1.257-5.288-1.1-.845-5.427-.019-.737.848,1.165,5.3Zm7.82.035,5.534.024.673-.9-1.315-5.3L632.2,682l-5.412-.016-.7.869,1.248,5.264Zm7.84.024,5.523.008.681-.881-1.425-5.315-1.151-.857L634.495,682l-.681.853,1.327,5.3Zm7.813.008,5.534.032.66-.885-1.519-5.3-1.151-.888h-5.455l-.653.841,1.428,5.315Zm7.826.032,5.528.016.649-.881-1.609-5.3-1.171-.864-5.429-.028-.668.876,1.529,5.3Zm5.657-7.028-.642.864,1.625,5.3,1.18.881,5.541.02.632-.885-1.7-5.291-1.2-.873Zm-53.514,14.626.764-.912-.979-5.489-1.09-.9h-5.526l-.78.885.908,5.457,1.082.928Zm2.36.023h5.6l.74-.908-1.078-5.489-1.13-.892-5.5-.035-.753.9,1.005,5.489Zm7.941,0,5.6.012.748-.9-1.194-5.477-1.1-.908-5.519-.011-.738.892,1.082,5.489Zm7.943.044,5.637.016.719-.925-1.287-5.469-1.127-.928-5.537-.015-.732.908,1.216,5.477Zm7.982.016,5.618.023.675-.935-1.365-5.466-1.151-.9-5.51-.04-.7.928,1.265,5.469Zm7.943.023,5.647.016.667-.944-1.462-5.461-1.181-.885-5.511-.016-.7.888,1.365,5.466Zm7.957.016,5.647.012.66-.9-1.562-5.474-1.18-.916-5.537-.012-.675.885,1.489,5.477Zm7.973.012,5.638.035.646-.912-1.664-5.492-1.2-.9h-5.524l-.667.892,1.566,5.474Zm5.733-7.246-.652.877,1.673,5.492,1.224.932,5.6.016.652-.921-1.771-5.489-1.2-.9Zm-55.751,7.578-5.617-.016-.766.916.912,5.655,1.133.952,5.681.028.8-.928-1.052-5.694Zm7.977.015-5.629-.015-.774.935,1.035,5.671,1.13.975,5.716.015.766-.975-1.133-5.67Zm7.949.032-5.6-.016-.758.921,1.126,5.67,1.133.975h5.719l.753-.955-1.252-5.651Zm7.978.035-5.625-.035-.744.944,1.24,5.651,1.151.972,5.728.015.719-.975-1.3-5.642Zm7.951.016-5.6-.016-.731.928,1.329,5.658,1.173.975h5.728l.705-.943-1.428-5.675Zm7.978.019-5.625-.019-.689.955,1.408,5.647,1.193.975,5.738.012.667-.963-1.5-5.671Zm7.983.035-5.651-.035-.673.936,1.524,5.686,1.21.964h5.728l.7-.948-1.639-5.69Zm7.957.016-5.635-.016-.657.913,1.633,5.69,1.232.948,5.728.032.651-.968-1.734-5.651Zm9.216.948-1.244-.916-5.611-.02-.667.936,1.749,5.651,1.233.983,5.735.016.627-.96Z" transform="translate(-352.291 -589.427)" fill="#0e9bd9"/>
          <path id="Path_77966" data-name="Path 77966" d="M302.743,729.672l1.274-1.011,1.848-5.892-.646-.975-5.732-.051-1.271.963-1.941,5.931.627,1.015Zm2.425,0,5.809.019,1.266-.991,1.734-5.927-.66-.967-5.728-.012-1.24.975-1.862,5.915Zm8.247.019,5.826.02,1.244-1,1.623-5.911-.69-.979H315.7l-1.224.948-1.749,5.927Zm8.243.052,5.809.012,1.237-1.011,1.532-5.9-.7-1.011-5.727-.008-1.224.979-1.643,5.911Zm8.247.012,5.811.035,1.226-1.006,1.443-5.924-.728-.975-5.736-.024-1.2.983-1.54,5.9Zm8.243.035,5.832.016,1.2-.991,1.343-5.927-.76-.979-5.719-.024-1.167.975-1.447,5.924Zm8.246.028,5.849.024,1.15-.979,1.25-5.951-.774-.971-5.7-.032-1.187.979-1.318,5.927Zm8.257.039h5.826l1.163-.975,1.137-5.931-.774-.975-5.714-.035-1.173.971-1.232,5.951ZM370.13,722l-5.728-.02-1.147.975-1.13,5.931.782.991,5.832.024,1.146-1,1.04-5.92Zm-70.113,16.364,1.293-1.035,1.933-6.128-.667-1.031-5.826-.015-1.3,1-2.018,6.156.653,1.022Zm4.989-8.194-1.287,1.031-1.917,6.128.66,1.035,5.949.028,1.279-1.039,1.818-6.133-.675-1.03Zm8.255.039-1.248,1.011-1.818,6.133.676,1.039,5.911.027,1.293-1.054,1.694-6.121-.689-1.019Zm8.265.016-1.28,1.019-1.688,6.121.723,1.054,5.92.028,1.24-1.054,1.6-6.113-.7-1.019Zm8.264.035-1.265,1.019-1.572,6.141.737,1.05,5.917.016,1.23-1.051,1.469-6.125-.7-1.034Zm8.247.032-1.2,1.019-1.493,6.125.719,1.051,5.955.031,1.206-1.034,1.395-6.156-.753-1.027Zm14.851,1.078-.752-1.034-5.856-.036-1.189,1.027-1.365,6.156.74,1.034,5.945.016,1.194-1.019Zm8.3.02-.78-1.011-5.864-.043-1.164,1.034-1.274,6.145.781,1.046h5.934l1.18-1.019Zm1.625-1L361.66,731.4l-1.16,6.137.8,1.058,5.944.016,1.161-1.05,1.06-6.148-.805-1ZM297.169,747.4l1.351-1.106,1.98-6.366-.667-1.054-5.933-.015-1.343,1.042-2.057,6.381.638,1.07Zm1.842-1.106.69,1.106,6.018.015,1.319-1.082,1.892-6.393-.7-1.039-5.92-.012-1.319,1.038Zm11.7-7.364-1.309,1.011-1.848,6.393.668,1.082,6.053.012,1.3-1.062,1.778-6.381-.7-1.039Zm8.411.015L317.848,740l-1.764,6.365.7,1.113h6.05l1.3-1.078,1.664-6.381-.723-1.03Zm8.409.044-1.257,1.03-1.655,6.381.7,1.078,6.087.012,1.242-1.066,1.556-6.37-.727-1.042Zm12.427,8.533,1.257-1.05,1.419-6.39-.744-1.054-5.949-.015-1.25,1.042-1.539,6.37.766,1.082Zm11.11-7.42-.776-1.046-5.927-.012-1.238,1.039-1.427,6.39.766,1.073,6.048.025,1.228-1.083Zm8.431.043-.782-1.046-5.933-.028-1.22,1.046-1.3,6.37.774,1.094,6.041.015,1.227-1.082Zm1.694-1.034-1.2,1.034-1.2,6.37.814,1.1,6.04.039,1.189-1.1,1.1-6.385-.806-1.035Zm-66.96,17.615,1.378-1.109L297.691,749l-.7-1.09-6.034-.023-1.349,1.089-2.177,6.622.66,1.113Zm1.878-1.086.681,1.109,6.131.02,1.382-1.118,1.941-6.622-.685-1.083-6.034-.012L298.169,749Zm8.707.012.691,1.13,6.148.016L313,755.663l1.848-6.6-.727-1.074-6.041-.015-1.317,1.069Zm15.556,1.181,1.309-1.109,1.734-6.646-.715-1.086h-6.058l-1.317,1.086-1.832,6.587.707,1.149Zm8.737.035,1.287-1.113,1.6-6.626-.753-1.07L325.214,748l-1.28,1.074-1.712,6.646.723,1.121Zm8.717.028,1.265-1.109,1.519-6.615-.782-1.09-6.049-.023-1.287,1.07-1.588,6.626.767,1.125Zm8.73.039,1.266-1.113,1.356-6.607-.76-1.086-6.071-.035-1.232,1.078-1.5,6.615.774,1.133Zm11.232-7.7-.815-1.082-6.04-.02-1.242,1.086-1.364,6.607.8,1.13,6.16.015,1.236-1.106Zm1.708-1.074-1.21,1.074-1.265,6.63.829,1.106,6.164.028,1.218-1.1,1.151-6.618-.821-1.1Zm-68.31,18.283,1.378-1.133,2.172-6.87-.693-1.142-6.147-.028-1.4,1.141-2.255,6.852.667,1.18Zm1.921-1.133.675,1.15,6.279.039,1.388-1.165,2.026-6.855-.7-1.141-6.172-.032-1.348,1.133Zm15.83,1.232,1.382-1.173,1.9-6.883-.719-1.117-6.164-.032-1.364,1.141-2.01,6.855.705,1.165Zm8.9.043,1.338-1.18,1.783-6.887-.738-1.106-6.141-.028-1.35,1.118-1.892,6.867.718,1.173Zm8.9.012,1.3-1.165,1.673-6.855-.753-1.126-6.164-.039-1.3,1.106-1.779,6.887.737,1.18Zm8.877.063,1.317-1.165,1.544-6.887-.768-1.142-6.17-.015-1.313,1.126-1.664,6.855.784,1.165Zm8.9.016,1.287-1.17,1.419-6.859-.766-1.137-6.194-.028-1.265,1.126-1.566,6.887.8,1.165Zm8.871.035,1.3-1.153,1.291-6.867-.8-1.142-6.172-.039-1.271,1.137L346.31,765.5l.829,1.181Zm4.352-9.162-1.232,1.142-1.279,6.878.8,1.165,6.3.016,1.225-1.181,1.2-6.878-.825-1.126ZM291,767.051l-6.286-.012L283.28,768.2l-2.324,7.112.667,1.236h6.387l1.441-1.18,2.237-7.139Zm8.891.028-6.269-.028-1.416,1.181-2.219,7.139.675,1.2,6.4.044,1.417-1.208,2.125-7.156Zm8.9.028-6.288-.012-1.372,1.153-2.115,7.156.719,1.208,6.4.016,1.4-1.189,1.984-7.151Zm8.914.032h-6.284l-1.377,1.15-1.976,7.151.723,1.213,6.407.032,1.388-1.213,1.838-7.128Zm8.9.055-6.3-.032-1.334,1.18-1.848,7.144.744,1.2,6.391.015,1.375-1.2,1.731-7.128Zm8.918.028-6.318-.028-1.335,1.18-1.708,7.128.781,1.236,6.4.028,1.334-1.224,1.583-7.155Zm8.867.056-6.279-.056-1.294,1.165-1.6,7.155.8,1.224,6.4.039,1.327-1.212,1.463-7.159Zm8.924.015-6.292-.015-1.284,1.156-1.5,7.159.843,1.212,6.4.032,1.311-1.2,1.351-7.159Zm2.622,0-1.279,1.18-1.343,7.159.83,1.22,6.417.012,1.273-1.208,1.238-7.147-.834-1.157Z" transform="translate(-280.956 -603.406)" fill="#0e9bd9"/>
          <path id="Path_77967" data-name="Path 77967" d="M405.777,730.044l1.13-1.007.851-5.939-.794-.992h-5.749l-1.117.955L399.118,729l.818,1.011Zm2.422,0h5.835l1.111-.992.753-5.954-.816-.955-5.732-.02-1.1.975-.869,5.939Zm8.273.019,5.813.016,1.1-.992.671-5.963-.833-.947-5.742-.035-1.1.955-.767,5.954Zm8.255.016,5.819.039,1.1-1,.555-5.95-.851-.975-5.766-.012-1.06.947-.651,5.963Zm8.279.055,5.834.012,1.045-1,.474-5.939-.895-.975-5.728-.023-1.06.959-.549,5.95Zm14.1.029,1.042-.992.337-5.954-.888-.972-5.742-.016-1.026.975-.452,5.939.911,1Zm8.28.047,1.027-1.011.231-5.943-.9-.979-5.757-.016-1.012.956-.336,5.954.9,1.007Zm8.279.024,1.012-1.011.129-5.935-.916-.975-5.761-.035-.979.979-.267,5.943.942,1.011Zm8.357-7.894-5.742-.028-1,.975-.112,5.935.928,1.011,5.823.016,1-.991.042-5.955Zm-67.548,16.391,1.127-1.046.92-6.145-.837-1.019-5.809-.012-1.165,1.011-1.005,6.133.836,1.066Zm3.664-8.19-1.12,1-.912,6.145.844,1.074,5.944.015,1.078-1.062.844-6.137-.851-1.019Zm8.273.036-1.1,1-.8,6.156.835,1.055,5.963.015,1.1-1.054.676-6.16-.868-1.011Zm8.27,0-1.1,1.011-.673,6.16.865,1.07H429.7l1.1-1.042.59-6.137-.865-1.015Zm15,1.089-.887-1.027-5.834-.015-1.082,1.015-.575,6.137.875,1.042,5.963.015,1.074-1.019Zm6.873,7.219,1.056-1.039.377-6.156-.906-1.027-5.848-.024-1.052,1.027-.466,6.149.9,1.05Zm9.736-7.163-.936-1.011-5.826-.02-1.06,1-.367,6.156.944,1.039,5.947.043,1.045-1.062Zm1.172,7.206,5.955.012,1.019-1.039.154-6.152-.949-1.039H457.8l-1.013,1.011-.278,6.16Zm8.633-8.206-1.013,1.027-.162,6.152.98,1.055,5.966.016.979-1.042.048-6.141-.975-1.022Zm-62.986,17.047,1.174-1.078.928-6.385-.83-1.059-5.925-.016-1.159,1.034-1.064,6.386.811,1.1Zm1.666-1.078.865,1.078,6.062.028,1.115-1.074.849-6.405-.857-1.031-5.925-.016-1.153,1.035Zm10.516-7.392-1.143,1.054-.825,6.37.895,1.074,6.044.035,1.126-1.074.728-6.389-.868-1.062Zm13.546,8.565,1.118-1.074.59-6.394-.881-1.049-5.947-.04L422.6,740.37l-.689,6.389.868,1.09Zm10.19-7.436-.915-1.066-5.964-.015-1.082,1.049-.628,6.394.928,1.074,6.047.024,1.082-1.074Zm8.437.032-.942-1.062-5.941-.012-1.074,1.042-.479,6.386.9,1.089,6.071.028,1.082-1.089Zm8.464.029-.949-1.047-5.989-.024-1.026,1.042-.375,6.382.949,1.089,6.058.016,1.049-1.07Zm7.244,7.506,1.042-1.089.154-6.381-.972-1.039-5.945-.044-1.026,1.047-.283,6.389.992,1.094Zm2.714-8.509-1.026,1.039-.14,6.381.969,1.089,6.093.036.987-1.086.055-6.409-.958-1.05ZM401.722,757.14l1.2-1.117.958-6.634-.845-1.078-6.063-.029-1.167,1.09-1.125,6.614.876,1.137Zm1.686-1.117.877,1.133,6.156.032,1.189-1.13.843-6.638-.863-1.075-6.045-.035-1.181,1.1Zm8.727.036.888,1.145,6.17.012,1.125-1.1.768-6.662-.881-1.089-6.065-.016-1.155,1.075Zm15.789,1.188,1.146-1.117.619-6.646-.881-1.082-6.087-.023-1.12,1.073-.744,6.662.888,1.118Zm8.743.031,1.112-1.109.535-6.642-.944-1.093-6.063-.016-1.112,1.066-.612,6.646.9,1.117Zm10.233-7.719-.942-1.106-6.058-.008-1.1,1.081-.492,6.642.928,1.125,6.192.028,1.076-1.126Zm7.25,7.79,1.1-1.121.294-6.654-.967-1.059-6.088-.035-1.072,1.079-.4,6.638.975,1.126Zm9.009-8.817-6.065-.016-1.056,1.059-.259,6.654.95,1.121,6.178.028,1.056-1.137.162-6.626Zm2.523,0-1.039,1.082-.158,6.626,1,1.146,6.2.031,1.02-1.134.058-6.629-1-1.083Zm-65.423,18.342,1.212-1.145,1.027-6.9-.877-1.125-6.178-.024-1.21,1.121-1.126,6.867.851,1.2Zm1.734-1.145.865,1.161,6.292.032,1.214-1.165.881-6.9-.859-1.13-6.207-.012L403,758.826Zm16.062,1.224,1.187-1.181.79-6.875-.9-1.137h-6.194l-1.167,1.1-.881,6.9.888,1.18Zm8.921.039,1.145-1.165.689-6.9-.928-1.118-6.172-.047-1.173,1.137-.76,6.9.915,1.177Zm8.906.031,1.151-1.153.537-6.907-.935-1.129-6.194-.012-1.143,1.1-.642,6.9.942,1.165Zm8.94.02,1.1-1.133.422-6.907-.95-1.133-6.172-.016-1.143,1.109-.529,6.907.951,1.157Zm9.321-9.146-6.178-.028-1.1,1.133-.444,6.907.989,1.149,6.308.063,1.1-1.18.286-6.9Zm2.587.016-1.083,1.129-.307,6.9,1.019,1.18,6.3.012,1.082-1.153.168-6.918-1-1.133Zm8.73.063-1.042,1.086-.167,6.918,1.026,1.18,6.293.016,1.066-1.169.043-6.9-1.027-1.133Zm-65.293,9.489-6.292-.016-1.258,1.141-1.159,7.182.867,1.213,6.417.015,1.228-1.209,1.07-7.146Zm8.919.019-6.3,0-1.21,1.166-1.045,7.146L401.4,777l6.417.055,1.224-1.235.928-7.156Zm8.914.056-6.3-.027-1.2,1.153-.928,7.156.9,1.235,6.408.036,1.227-1.224.8-7.159Zm8.928.044-6.3-.044-1.18,1.169-.821,7.191.935,1.208,6.451.016,1.147-1.213.675-7.175Zm8.918.035-6.31-.035-1.141,1.153-.675,7.175.949,1.213,6.433.032,1.151-1.2.535-7.155Zm2.607.017L437.34,768.8l-.575,7.155.985,1.2,6.41.051,1.159-1.231.458-7.16-1.035-1.18Zm8.944,0-1.112,1.18-.436,7.16,1.02,1.231,6.41.04,1.125-1.237.294-7.128-1-1.192Zm8.918.055-1.1,1.192-.276,7.128,1.02,1.237,6.417.015,1.086-1.2.186-7.167-1.023-1.18Zm8.94.035-1.1,1.173L464,776.066l1.035,1.212,6.433.032,1.073-1.212.058-7.171-1.032-1.177Z" transform="translate(-306.318 -603.489)" fill="#0e9bd9"/>
          <path id="Path_77968" data-name="Path 77968" d="M509.049,730.361l.979-.991-.12-5.939-.974-.992-5.767-.015-.95.968v5.963l.975.987Zm2.439,0,5.848.052.92-1.015-.193-5.955-.979-.975-5.742-.02-.944.983.077,5.939Zm8.26.052,5.882.016.9-.988-.287-5.967-1.019-.971-5.749-.016-.92.955.215,5.971Zm8.289.016,5.887.015.873-.991-.4-5.959-1.03-.963-5.74-.028-.928.971.32,5.967Zm8.3.023,5.848.036.888-1.019-.513-5.939-1.035-.952-5.758-.047-.9.963.407,5.959Zm8.294.036,5.856.043.865-1.007-.612-5.967-1.066-.948-5.765-.032-.864.952.513,5.97Zm8.294.043,5.848.012.851-1-.722-5.947-1.07-.983h-5.763l-.863.948.624,5.967Zm8.28.035,5.863.015.837-1.015-.83-5.947L566,722.645l-5.779-.023-.828.971.721,5.947Zm8.308.028,5.856.019.814-1.006-.935-5.979-1.121-.952-5.758-.032-.811.975.818,5.947ZM509.169,739.1l.975-1.07-.077-6.136-1.019-1.019-5.856-.02-.975,1.007V738l1.013,1.082Zm2.318-8.21-.954,1,.1,6.136,1.026,1.07,5.941.044.975-1.059-.223-6.176-1-.991Zm8.293.028-.935.991.213,6.176,1.044,1.059h5.941l.942-1.019-.314-6.16-1.035-1.03Zm8.753,8.25,5.959.015.928-1.035-.448-6.172-1.027-1.011-5.877-.031-.912,1.03.343,6.16Zm13.692-8.159-5.848-.02-.892.987.414,6.189,1.083,1.034,5.94.012.912-1.031-.543-6.172Zm8.308.015-5.87-.015-.865,1,.527,6.172,1.074,1.031,5.97.043.891-1.054-.638-6.164Zm8.295.02-5.848-.02-.881,1.012.653,6.164,1.1,1.054,5.971.012.875-1.027-.758-6.168Zm8.32.035h-5.866l-.859.992.753,6.168,1.117,1.05,5.982.032.844-1.042-.867-6.2Zm2.421.016-.825,1.019.867,6.164,1.131,1.042,5.983.024.827-1.027-.955-6.188-1.145-1.022Zm-60.239,17.051.968-1.078-.117-6.4-1.012-1.062-5.939-.015-1.013,1.019v6.425l1.013,1.1Zm8.555.011,1-1.046-.223-6.413-1.026-1.059-5.963-.035-.968,1.063.116,6.4,1.027,1.078Zm8.2-8.478-5.963-.019-.954,1.039.21,6.413,1.066,1.078,6.048.024.964-1.094-.326-6.381Zm2.936,8.534,6.074.035.928-1.1-.422-6.377L534.53,739.7l-5.963-.016-.936,1.059.328,6.381Zm14.684.071.908-1.1-.549-6.382-1.068-1.063L537,739.724l-.908,1.046.421,6.377,1.111,1.1Zm7.732-8.525-5.994-.016-.881,1.063.557,6.382,1.1,1.1,6.087.02.9-1.083-.667-6.4Zm3.388,8.553,6.081.016.879-1.09-.78-6.385-1.12-1.05-5.958-.044-.895,1.062.675,6.4Zm13.524-8.478-5.955-.032-.906,1.05.8,6.385,1.151,1.106,6.087.012.851-1.078-.865-6.385Zm2.474,0-.849,1.058.891,6.385,1.18,1.106,6.061.019.851-1.094-.979-6.389-1.181-1.078Zm-61.364,17.7,1.019-1.126-.139-6.642-1-1.1-6.1-.012-1.013,1.066.022,6.642,1.044,1.153Zm8.731.028,1.013-1.126-.231-6.642-1.056-1.07-6.065-.039-1.013,1.082.149,6.642,1.032,1.138Zm2.574.016,6.2.023.965-1.13-.337-6.642-1.064-1.082-6.071-.024-.983,1.07.253,6.642Zm8.765.039,6.207.016.934-1.117-.45-6.65-1.089-1.082-6.062-.035-.959,1.082.352,6.642Zm8.791.044,6.172.035.934-1.137-.574-6.661-1.12-1.086-6.063-.028-.95,1.082.476,6.65Zm8.753.035,6.19,0,.91-1.109-.683-6.669-1.132-1.082-6.065-.027-.944,1.086.585,6.661Zm8.765.02,6.172.016.928-1.126-.821-6.641-1.167-1.11-6.061-.016-.9,1.1.7,6.649Zm8.763.032,6.216.024.882-1.11L570.742,750l-1.173-1.1-6.069-.027-.883,1.1.814,6.641Zm7.517-8.834L571.242,750l.928,6.665,1.194,1.126,6.194.012.862-1.1-1.038-6.678-1.17-1.089Zm-62.531,18.378,1.013-1.15-.1-6.9-1.043-1.125-6.172-.055-1.044,1.145v6.89l1.068,1.165Zm8.932.047,1.012-1.188-.247-6.894-1.066-1.11-6.178-.031-1.026,1.125.1,6.9,1.082,1.15Zm8.936.036.991-1.173-.374-6.914-1.083-1.122-6.185-.02-1.011,1.11.253,6.894,1.1,1.2Zm8.926.015.975-1.156-.461-6.9-1.12-1.133-6.2-.035-.969,1.122.337,6.914,1.126,1.173Zm2.628.04,6.318.015.965-1.181-.6-6.891-1.142-1.129-6.211-.016-.972,1.106.5,6.9Zm8.94.015,6.314.012.92-1.145-.7-6.9-1.151-1.15-6.209-.015-.942,1.129.606,6.891Zm8.936.059,6.3.016.928-1.181-.838-6.9-1.195-1.141-6.185-.039-.906,1.15.73,6.914Zm8.932.032,6.326.015.881-1.177-.972-6.9-1.188-1.16-6.206-.012-.887,1.141.859,6.9Zm7.661-9.209-.885,1.145.969,6.9,1.21,1.177,6.306.032.877-1.181-1.1-6.894-1.2-1.165Zm-63.884,9.545h-6.284l-1.068,1.145v7.175l1.068,1.224,6.43.024,1.035-1.232-.129-7.139Zm8.955.035-6.326-.02-1.026,1.181.132,7.139,1.09,1.24,6.424.019,1.032-1.192-.244-7.191Zm8.926.035-6.313-.015-1.011,1.157.237,7.191,1.127,1.212,6.423.032,1-1.212-.359-7.183Zm8.95.055-6.323-.055-.983,1.181.379,7.183,1.14,1.224,6.41.02,1.011-1.212-.518-7.187Zm8.948.02-6.322-.02-.969,1.153.485,7.187,1.181,1.212,6.43.035.957-1.224-.62-7.156Zm8.946.024-6.324-.008-.965,1.188.667,7.14,1.147,1.259,6.433.02.959-1.236-.75-7.167Zm8.954.032-6.324-.032-.928,1.2.744,7.167,1.188,1.259,6.464.008.91-1.205-.866-7.2Zm8.934.052-6.3-.028-.9,1.173.869,7.2,1.21,1.205,6.463.012.891-1.192-1.013-7.171Zm10.194,1.235-1.227-1.192-6.34-.043-.877,1.2,1,7.171,1.266,1.208,6.425.055.882-1.213Z" transform="translate(-331.739 -603.562)" fill="#0e9bd9"/>
          <path id="Path_77969" data-name="Path 77969" d="M610,730.725l.8-1.011-1.112-5.939-1.1-1.016-5.783-.008-.782.987.969,5.959,1.147,1.007Zm2.434,0,5.868.031.772-1.022-1.18-5.947-1.151-.964-5.771-.023-.788.975,1.088,5.939Zm8.28.031,5.888.032.752-1-1.279-5.955-1.167-1.011h-5.779l-.776.964,1.207,5.947Zm8.334.032,5.87.024.753-1-1.394-5.963-1.191-1-5.786-.011-.753.995,1.308,5.955Zm8.308.024,5.88.028.707-.995-1.5-5.967-1.225-.972-5.757-.016-.723.96,1.386,5.963Zm8.31.028,5.84.02.73-.992-1.61-5.947-1.227-1.015H643.64l-.713.972,1.5,5.967Zm8.294.02,5.866.012.7-.987-1.716-5.951-1.228-.995-5.771-.016-.689,1,1.593,5.947Zm8.328.056,5.856.015.681-1.007L667,723.956,665.744,723l-5.776-.063-.689.995,1.734,5.951Zm8.294.015,5.887.02.658-1.007-1.933-5.959L673.932,723l-5.789,0-.653.955,1.827,5.967Zm-59.031,8.525.807-1.035-1.115-6.184-1.155-1.019-5.849-.016-.834,1,1.026,6.188,1.147,1.042Zm6.853-8.186-5.878-.016-.791.995,1.145,6.172,1.161,1.035,5.967.04.821-1.019-1.271-6.227Zm8.3.031-5.856-.031-.78.979,1.237,6.227,1.2,1.019,5.961.016.767-1.019-1.328-6.192Zm8.3.024-5.864-.024-.758,1,1.356,6.192,1.211,1.019,5.98.035.752-1.046-1.463-6.156Zm8.328.028-5.86-.016-.774,1.007,1.481,6.156,1.218,1.066h6l.714-1-1.55-6.2Zm8.322.032-5.878-.032-.7,1.011,1.524,6.2,1.258,1.026,5.987.028.711-1.054-1.66-6.18Zm8.31.023-5.856-.023-.7,1,1.647,6.18,1.275,1.07h5.97l.689-1.042-1.731-6.172Zm8.328.039-5.882-.019-.675.992,1.771,6.172,1.3,1.042,5.978.032.673-1.046-1.878-6.168Zm2.444,0-.659,1,1.891,6.168,1.307,1.046,5.977.051.645-1.07-1.976-6.164-1.313-1.026Zm-57.564,17.079.813-1.095-1.151-6.4-1.189-1.062h-5.994l-.8,1.046L605.9,747.4l1.2,1.093Zm2.536.023,6.088.015.766-1.1-1.25-6.409-1.2-1.035-5.988-.055-.774,1.063,1.16,6.4Zm12.871-8.5-5.976-.024-.8,1.035,1.287,6.409,1.241,1.1,6.088.028.782-1.09-1.408-6.39Zm8.462.032-5.961-.02-.766,1.054,1.386,6.39,1.228,1.09,6.087.035.766-1.089-1.489-6.425Zm8.475.035-5.98-.035-.75,1.034,1.518,6.425,1.258,1.089,6.087.036.75-1.081-1.635-6.433Zm8.465.016-5.973-.016-.739,1.034,1.629,6.433,1.294,1.081,6.073.016.733-1.074-1.73-6.42Zm4.821,8.561,6.087.027.711-1.074-1.854-6.4-1.274-1.083-5.988-.012-.737,1.039,1.757,6.444Zm12.148-8.521h-5.994l-.691,1.07,1.821,6.4,1.348,1.09,6.088.012.7-1.089-1.946-6.417Zm2.5.043-.7,1.046,1.962,6.4,1.357,1.089,6.087.056.667-1.094-2.065-6.42-1.343-1.058ZM614.9,757.94l.787-1.13-1.187-6.642-1.222-1.089-6.088-.016-.843,1.05,1.108,6.678,1.218,1.118Zm2.553,0,6.194.031.809-1.133-1.317-6.635-1.242-1.1-6.087-.012-.8,1.082,1.218,6.642Zm8.786.031,6.178.032.8-1.153-1.433-6.614-1.25-1.122h-6.1l-.779,1.089,1.34,6.635Zm8.774.032,6.2.028.74-1.125-1.532-6.638-1.266-1.089-6.071-.063-.811,1.122,1.479,6.63Zm8.786.028,6.2.032.753-1.118-1.694-6.665-1.257-1.07-6.108-.032-.753,1.089,1.566,6.638Zm8.778.032,6.2.063.731-1.146-1.785-6.665-1.3-1.082-6.088-.024-.747,1.07,1.68,6.665Zm8.816.063,6.178.012.723-1.126-1.911-6.638-1.327-1.113-6.1-.028-.7,1.082,1.777,6.665Zm8.756.012,6.23.055.68-1.15-2.03-6.654L673.7,749.3l-6.113-.02-.719,1.1,1.955,6.638Zm6.088-8.83-.709,1.082,2.057,6.654,1.372,1.15,6.208.031.681-1.149-2.152-6.634-1.365-1.133Zm-59.6,18.4.843-1.173-1.266-6.891-1.236-1.149-6.207-.008L607.9,759.6l1.155,6.907,1.23,1.18Zm2.622.028h6.34l.787-1.161-1.364-6.9-1.271-1.129-6.18-.036-.835,1.133,1.257,6.914Zm8.954.035,6.326.017.8-1.181-1.489-6.9-1.287-1.145-6.209-.016-.806,1.129,1.365,6.9Zm8.946.017,6.308.055.774-1.2-1.592-6.9-1.3-1.149-6.2-.015-.816,1.129,1.519,6.9Zm8.952.055,6.332.028.752-1.2L651.46,759.8l-1.334-1.157-6.185-.015-.774,1.117,1.633,6.931Zm8.962.028,6.332.032.722-1.173-1.84-6.914-1.334-1.145-6.232-.029-.728,1.157,1.737,6.875Zm8.953.032,6.356.052.707-1.181-1.986-6.922-1.365-1.141h-6.2l-.752,1.106,1.878,6.914Zm8.978.052,6.333.015.68-1.153-2.08-6.926-1.406-1.156-6.215-.016-.7,1.133,1.994,6.922Zm6.149-9.2-.7,1.141,2.094,6.926,1.43,1.153,6.318.039.689-1.18-2.243-6.914-1.39-1.165Zm-62.416,9.564-6.34-.043-.851,1.188,1.194,7.167,1.266,1.232h6.439l.868-1.18-1.319-7.183Zm8.946.036-6.332-.036-.821,1.18,1.3,7.183,1.288,1.2,6.454.055.821-1.209-1.419-7.182Zm8.977.012-6.318-.012-.837,1.189,1.435,7.195,1.318,1.2,6.454.031.806-1.212-1.566-7.19Zm8.955.031-6.31-.016-.829,1.181,1.595,7.19,1.321,1.228,6.452.015.774-1.2-1.652-7.191Zm8.969.063-6.31-.016-.773,1.156,1.672,7.191,1.357,1.22,6.447.02.766-1.225-1.809-7.175Zm8.984.028-6.348-.015-.75,1.16,1.81,7.183,1.386,1.217,6.464.055.727-1.22-1.947-7.2Zm8.954.04-6.324-.04-.727,1.18,1.913,7.2,1.419,1.22,6.464.032.734-1.228-2.069-7.2Zm8.991.055-6.353-.055-.705,1.16,2.07,7.2,1.439,1.228,6.444.031.7-1.227-2.17-7.183Zm10.4,1.2-1.408-1.173-6.357-.032-.69,1.157,2.2,7.183,1.442,1.227,6.45.075.689-1.22Z" transform="translate(-354.645 -603.637)" fill="#0e9bd9"/>
        </g>
        <path id="Path_77970" data-name="Path 77970" d="M330.616,561.233a8.038,8.038,0,0,0-1.657.7,6.523,6.523,0,0,0-1.309,1.042,3.753,3.753,0,0,0-.774,1.275L263.7,743.422a8.234,8.234,0,0,0-.522,3.021,5.784,5.784,0,0,0,.573,2.531,4.111,4.111,0,0,0,1.6,1.686,4.749,4.749,0,0,0,2.452.636h64.413l63.235-63.233L522.521,561S331.193,561.091,330.616,561.233Z" transform="translate(-263.177 -561)" fill="rgba(225,225,225,0.5)" style="mix-blend-mode: screen;isolation: isolate"/>
      </g>
    </g>
  </g>
</svg>
