<svg xmlns="http://www.w3.org/2000/svg" xmlns:xlink="http://www.w3.org/1999/xlink" width="320" height="320" viewBox="0 0 320 320">
  <defs>
    <radialGradient id="radial-gradient" cx="0.5" cy="0.5" r="0.897" gradientTransform="matrix(-0.558, 0, 0, 0.558, -90.667, -125.27)" gradientUnits="objectBoundingBox">
      <stop offset="0" stop-color="#1c1c1c"/>
      <stop offset="0.1" stop-color="#4a4a4a"/>
      <stop offset="0.217" stop-color="#7a7a7a"/>
      <stop offset="0.338" stop-color="#a3a3a3"/>
      <stop offset="0.461" stop-color="#c4c4c4"/>
      <stop offset="0.586" stop-color="#dedede"/>
      <stop offset="0.715" stop-color="#f0f0f0"/>
      <stop offset="0.85" stop-color="#fbfbfb"/>
      <stop offset="1" stop-color="#fff"/>
    </radialGradient>
  </defs>
  <g id="Group_13639" data-name="Group 13639" transform="translate(-800 -4740)">
    <rect id="Rectangle_1" data-name="Rectangle 1" width="320" height="320" rx="160" transform="translate(800 4740)" fill="#f0f4f9" opacity="0.6"/>
    <g id="Group_13507" data-name="Group 13507" transform="translate(903 4782.001)" style="isolation: isolate">
      <g id="Group_13494" data-name="Group 13494" transform="translate(0.699 169.506)">
        <path id="Path_77985" data-name="Path 77985" d="M342.952,120.965c0-.236-.013-7.4,0-7.63.662-13.511,20.263-.76,44.328-.76,22.952,0,42.021-10.873,44.293,1.763,0,0,.035,5.762.035,6.627,0,13.839-19.847,25.055-44.328,25.055S342.952,134.8,342.952,120.965Z" transform="translate(-331.158 -88.278)" fill="#dbdbdb"/>
        <ellipse id="Ellipse_1391" data-name="Ellipse 1391" cx="44.328" cy="25.055" rx="44.328" ry="25.055" transform="translate(11.794)" fill="#57b33e"/>
        <path id="Path_77986" data-name="Path 77986" d="M385.8,145.783c22.7,0,41.871-10.346,41.871-22.6s-19.175-22.6-41.871-22.6-41.874,10.346-41.874,22.6S363.1,145.783,385.8,145.783Z" transform="translate(-329.679 -98.132)" fill="#777f7f"/>
      </g>
      <path id="Path_77987" data-name="Path 77987" d="M351.739,115.975c0,6.71,9.752,12.149,21.783,12.149s21.783-5.439,21.783-12.149-9.752-12.146-21.783-12.146S351.739,109.268,351.739,115.975Z" transform="translate(-317.205 76.257)" fill="url(#radial-gradient)" style="mix-blend-mode: multiply;isolation: isolate"/>
      <path id="Path_77988" data-name="Path 77988" d="M360.61,192.79l8.119-2.658-5.146-134.5-2.666,1.552Z" transform="translate(-303.832 3.601)" fill="#dbdbdb"/>
      <path id="Path_77989" data-name="Path 77989" d="M364.94,192.666l-7.2-2.453,5.146-134.5,2.365,1.347Z" transform="translate(-308.162 3.725)" fill="#aab7b7"/>
      <path id="Path_77990" data-name="Path 77990" d="M359.789,56.649l2.666-1.552,2.365,1.347L362.154,58Z" transform="translate(-305.069 2.792)" fill="#f7f7f7"/>
      <g id="Group_13506" data-name="Group 13506" transform="translate(-0.001 -0.001)">
        <g id="Group_13500" data-name="Group 13500" transform="translate(33.622 37.712)">
          <path id="Path_77991" data-name="Path 77991" d="M374.851,52.828c-3.34-6.3-12.106-5.915-13.24-5.6l11.276,19.153C373.833,65.246,378.191,59.13,374.851,52.828Z" transform="translate(-335.944 -47)" fill="#dbdbdb"/>
          <g id="Group_13499" data-name="Group 13499">
            <g id="Group_13496" data-name="Group 13496" transform="translate(3.762)">
              <g id="Group_13495" data-name="Group 13495" transform="translate(16.75)">
                <path id="Path_77992" data-name="Path 77992" d="M377.351,63.2c.283-4.732-3.185-11.153-7.743-14.343-2.407-1.683-4.288-2.066-5.832-1.647-3.543,1.131-4.22,2.224-4.22,2.224a3.81,3.81,0,0,1,2.422-1.038,8.126,8.126,0,0,1,4.985,1.745c4.561,3.187,8.029,9.609,7.746,14.343-.083,1.4-.627,3.806-2.946,4.411a7.208,7.208,0,0,0,4.749-2.828A5.857,5.857,0,0,0,377.351,63.2Z" transform="translate(-359.555 -47.05)" fill="#d35400"/>
              </g>
              <path id="Path_77993" data-name="Path 77993" d="M377.075,49.357a8.227,8.227,0,0,0-5.045-1.763,3.8,3.8,0,0,0-2.1.747c-.1.08-6.128,2.48-16.249,9.782-4.489,3.237,11.261,20.547,12.683,19.8.474-.251,12.111-5.323,17.4-10.757a5.1,5.1,0,0,0,1.151-3.3C385.2,59.082,381.689,52.585,377.075,49.357Z" transform="translate(-352.875 -46.243)" fill="#dbdbdb"/>
              <path id="Path_77994" data-name="Path 77994" d="M380.527,52.612a17.729,17.729,0,0,0-3.453-3.255,8.227,8.227,0,0,0-5.045-1.763,3.8,3.8,0,0,0-2.1.747c-.1.08-6.128,2.48-16.249,9.782-1.718,1.239-.466,4.539,1.805,8.1A151.136,151.136,0,0,0,380.527,52.612Z" transform="translate(-352.874 -46.243)" fill="#ededed"/>
              <path id="Path_77995" data-name="Path 77995" d="M355.931,65.656c2.741,3.107,5.291,5.366,5.823,5.088.474-.251,12.111-5.323,17.4-10.757a5.1,5.1,0,0,0,1.151-3.3,12.542,12.542,0,0,0-.609-4.341C370.914,59.212,357.072,65.147,355.931,65.656Z" transform="translate(-348.268 -39.061)" fill="#aab7b7"/>
            </g>
            <g id="Group_13498" data-name="Group 13498" transform="translate(0 11.251)">
              <g id="Group_13497" data-name="Group 13497" transform="translate(1.226)">
                <path id="Path_77996" data-name="Path 77996" d="M370.553,67.014c0-4.769-3.867-11.008-8.633-13.937-2.518-1.545-4.428-1.818-5.953-1.3-3.49,1.347-4.1,2.485-4.1,2.485a3.818,3.818,0,0,1,2.37-1.186,8.158,8.158,0,0,1,5.108,1.452c4.769,2.929,8.633,9.168,8.633,13.934,0,1.414-.4,3.859-2.693,4.6a7.24,7.24,0,0,0,4.6-3.124A5.884,5.884,0,0,0,370.553,67.014Z" transform="translate(-351.864 -51.536)" fill="#d35400"/>
              </g>
              <path id="Path_77997" data-name="Path 77997" d="M360.079,53.627a8.233,8.233,0,0,0-5.151-1.464c-2.151.263-3.553,1.946-3.553,4.824,0,4.807,3.9,11.1,8.7,14.05,3.383,2.076,6.309,1.938,7.751.005a5.536,5.536,0,0,0,.955-3.365C368.785,62.87,364.888,56.579,360.079,53.627Z" transform="translate(-351.375 -50.647)" fill="#57b33e"/>
              <path id="Path_77998" data-name="Path 77998" d="M361.508,67.557c-4.09-2.51-7.4-7.859-7.4-11.948a4.718,4.718,0,0,1,.812-2.861c-1.828.223-3.022,1.655-3.022,4.1,0,4.087,3.315,9.438,7.4,11.948,2.879,1.765,5.366,1.65,6.592.005A7,7,0,0,1,361.508,67.557Z" transform="translate(-350.593 -49.71)" fill="#c1382a"/>
              <path id="Path_77999" data-name="Path 77999" d="M357.968,54.011a7,7,0,0,0-4.381-1.244,4.718,4.718,0,0,0-.812,2.861c0,4.09,3.315,9.438,7.4,11.948a7,7,0,0,0,4.381,1.246,4.721,4.721,0,0,0,.813-2.864C365.373,61.872,362.058,56.521,357.968,54.011Z" transform="translate(-349.264 -49.729)" fill="#34495e"/>
            </g>
          </g>
        </g>
        <g id="Group_13501" data-name="Group 13501" transform="translate(35.503 54.649)">
          <path id="Path_78000" data-name="Path 78000" d="M359.116,54.668a4.735,4.735,0,0,0-2.966-.843,15.274,15.274,0,0,0-3.388,1.986c-.562.717-1.036,7.149-.128,8.613.84,1.354,6.359,2.7,8.057,1.921.138-.065,2.829-1.56,2.891-1.645a3.189,3.189,0,0,0,.549-1.938C364.131,59.994,361.887,56.369,359.116,54.668Z" transform="translate(-352.125 -53.804)" fill="#aab7b7"/>
        </g>
        <g id="Group_13502" data-name="Group 13502" transform="translate(35.578)">
          <path id="Path_78001" data-name="Path 78001" d="M356.118,87.556a4.545,4.545,0,0,1,2.959.905c.278.183,1.011.464,1.281.685.344-5.128-.158-13.067-.672-22.3-.973-17.4-3.245-32.926-5.075-34.677s-2.53,10.938-1.557,28.34A243.366,243.366,0,0,0,355.9,87.618,1.666,1.666,0,0,1,356.118,87.556Z" transform="translate(-351.462 -32.01)" fill="#aab7b7"/>
          <path id="Path_78002" data-name="Path 78002" d="M353.712,88.579a4.279,4.279,0,0,1,2.906.923,8.625,8.625,0,0,1,.787.627,204.779,204.779,0,0,0,1.028-22.638c0-17.721-1.4-33.533-3.139-35.316s-3.14,11.141-3.14,28.862a249.01,249.01,0,0,0,1.337,27.605A1.894,1.894,0,0,1,353.712,88.579Z" transform="translate(-352.155 -32.01)" fill="#dbdbdb"/>
          <path id="Path_78003" data-name="Path 78003" d="M354.657,34.682c1.033.948,1.956,5.875,2.6,12.924-.574-8.38-1.482-14.376-2.51-15.431-.873-.9-1.66,1.936-2.229,7.224C353.11,35.771,353.852,33.94,354.657,34.682Z" transform="translate(-351.608 -32.01)" fill="#ededed"/>
        </g>
        <g id="Group_13503" data-name="Group 13503" transform="translate(40.305 63.306)">
          <path id="Path_78004" data-name="Path 78004" d="M355.63,60.048c.451.569,1.823-.286,2.4-1.5.143-.3.614-.965.73-1.286,2.861,3.092,9.08,11.685,13.283,17.994,7.924,11.9,13.814,23.433,13.16,25.77s-7.608-5.414-15.532-17.309C364.82,76.43,358.088,66.164,355.8,61.179,355.868,61.141,355.033,59.291,355.63,60.048Z" transform="translate(-351.969 -57.257)" fill="#aab7b7"/>
          <path id="Path_78005" data-name="Path 78005" d="M354.256,59.825c.737-.464,2.149.258,2.688-.94.133-.3.238-.609.344-.925a196.683,196.683,0,0,1,14.877,17.1c8.9,11.464,15.66,22.618,15.1,24.91s-8.22-5.14-17.117-16.6C364.7,76.342,356.7,64.752,354.04,59.93,354.11,59.892,354.183,59.87,354.256,59.825Z" transform="translate(-354.04 -56.199)" fill="#dbdbdb"/>
          <path id="Path_78006" data-name="Path 78006" d="M369.352,80.142c.386-1.291-1.314-5.088-4.313-10.07,3.726,5.8,5.976,10.276,5.645,11.632-.278,1.153-2.362-.158-5.494-3.2C367.509,80.456,369.049,81.153,369.352,80.142Z" transform="translate(-337.459 -37.938)" fill="#ededed"/>
        </g>
        <g id="Group_13504" data-name="Group 13504" transform="translate(0 57.233)">
          <path id="Path_78007" data-name="Path 78007" d="M378.368,55.118c.153,1.006-.888,2.279-.063,3.36.2.268,3.373,2.909,3.6,3.152-18.33,9.985-42,14.531-43.724,12.984s7.54-7.3,19.8-12.535c7.505-3.2,15.552-6.249,20.369-7.244C378.358,54.93,378.353,55.021,378.368,55.118Z" transform="translate(-337.953 -54.835)" fill="#aab7b7"/>
          <path id="Path_78008" data-name="Path 78008" d="M376.32,55.9c.183.978-.78,2.174.053,3.25.206.266,3.355,2.926,3.583,3.17C362.6,71.37,339.9,74.971,338.187,73.416s7.031-6.813,18.689-11.464c7.136-2.846,14.8-5.522,19.416-6.324C376.3,55.721,376.3,55.809,376.32,55.9Z" transform="translate(-337.958 -53.64)" fill="#dbdbdb"/>
          <path id="Path_78009" data-name="Path 78009" d="M339.816,64.661c.945.955,6.081.827,10.918-.271-5.69,1.53-11.522,1.953-12.538,1.033-.863-.78.755-2.445,4.055-4.493C340.049,62.572,339.079,63.916,339.816,64.661Z" transform="translate(-337.966 -45.647)" fill="#ededed"/>
        </g>
        <g id="Group_13505" data-name="Group 13505" transform="translate(34.567 56.272)">
          <path id="Path_78010" data-name="Path 78010" d="M357.226,55.3a4.65,4.65,0,0,0-2.906-.825,2.116,2.116,0,0,0-1.808,1.459c-.13.361-1.321,6.75-.434,8.185s8.709,2.106,9.524,1.013a3.131,3.131,0,0,0,.539-1.9C362.141,60.516,359.942,56.965,357.226,55.3Z" transform="translate(-351.752 -54.452)" fill="#ededed"/>
          <path id="Path_78011" data-name="Path 78011" d="M352.76,61.031a4.61,4.61,0,0,1-.8.293c1.434,1.281,8.566,1.861,9.341.82a3.131,3.131,0,0,0,.539-1.9,8.265,8.265,0,0,0-1.141-3.814A37.4,37.4,0,0,1,352.76,61.031Z" transform="translate(-351.446 -51.466)" fill="#dbdbdb"/>
        </g>
      </g>
    </g>
  </g>
</svg>
