<svg xmlns="http://www.w3.org/2000/svg" xmlns:xlink="http://www.w3.org/1999/xlink" width="320" height="320" viewBox="0 0 320 320">
  <defs>
    <radialGradient id="radial-gradient" cx="0.5" cy="0.5" r="0.897" gradientTransform="matrix(-0.558, 0, 0, 0.558, -77.491, -153.378)" gradientUnits="objectBoundingBox">
      <stop offset="0" stop-color="#1c1c1c"/>
      <stop offset="0.1" stop-color="#4a4a4a"/>
      <stop offset="0.217" stop-color="#7a7a7a"/>
      <stop offset="0.338" stop-color="#a3a3a3"/>
      <stop offset="0.461" stop-color="#c4c4c4"/>
      <stop offset="0.586" stop-color="#dedede"/>
      <stop offset="0.715" stop-color="#f0f0f0"/>
      <stop offset="0.85" stop-color="#fbfbfb"/>
      <stop offset="1" stop-color="#fff"/>
    </radialGradient>
  </defs>
  <g id="Group_13638" data-name="Group 13638" transform="translate(-395 -4740)">
    <rect id="Rectangle_1" data-name="Rectangle 1" width="320" height="320" rx="160" transform="translate(395 4740)" fill="#f0f4f9" opacity="0.6"/>
    <g id="Group_13493" data-name="Group 13493" transform="translate(465.996 4814.999)" style="isolation: isolate">
      <g id="Group_13491" data-name="Group 13491" transform="translate(41.012 51.253)">
        <g id="Group_13490" data-name="Group 13490" transform="translate(0 63.093)">
          <path id="Path_77973" data-name="Path 77973" d="M210.517,108.471c0-.188-.008-5.885,0-6.071.529-10.75,16.121-.6,35.264-.6,18.26,0,33.431-8.648,35.236,1.4,0,0,.028,4.586.028,5.273,0,11.008-15.788,19.93-35.264,19.93S210.517,119.479,210.517,108.471Z" transform="translate(-196.928 -82.468)" fill="#dbdbdb"/>
          <path id="Path_77974" data-name="Path 77974" d="M210.515,111.414c0-11.008,15.79-19.932,35.264-19.932s35.264,8.924,35.264,19.932-15.788,19.93-35.264,19.93S210.515,122.42,210.515,111.414Z" transform="translate(-196.926 -91.482)" fill="#57b33e"/>
          <path id="Path_77975" data-name="Path 77975" d="M244.6,128.215c18.057,0,33.31-8.232,33.31-17.976S262.66,92.262,244.6,92.262s-33.308,8.23-33.308,17.977S226.546,128.215,244.6,128.215Z" transform="translate(-195.75 -90.306)" fill="#777f7f"/>
        </g>
        <path id="Path_77976" data-name="Path 77976" d="M217.508,104.5c0,5.339,7.758,9.664,17.33,9.664s17.327-4.325,17.327-9.664-7.758-9.664-17.327-9.664S217.508,99.166,217.508,104.5Z" transform="translate(-186.384 -23.329)" fill="url(#radial-gradient)" style="mix-blend-mode: multiply;isolation: isolate"/>
        <path id="Path_77977" data-name="Path 77977" d="M224.222,152.106l9.8-3.207L227.809,66.32l-3.216,1.873Z" transform="translate(-176.263 -66.32)" fill="#dbdbdb"/>
        <path id="Path_77978" data-name="Path 77978" d="M229.447,151.957,220.755,149l6.209-82.578,2.854,1.625Z" transform="translate(-181.488 -66.171)" fill="#aab7b7"/>
        <path id="Path_77979" data-name="Path 77979" d="M228.7,68.194l-2.854-1.625-4.35,57.856,7.042,4.163,8.023-.49L231.917,66.32Z" transform="translate(-180.371 -66.32)" fill="#1f242c" opacity="0.5"/>
      </g>
      <g id="Group_13492" data-name="Group 13492" transform="translate(0.001 0.001)">
        <path id="Path_77980" data-name="Path 77980" d="M188.96,85.462c.629,1.106,2.783,5.09,3.207,6.046.707,1.59,2.442,2.65,4.81,2.65H357.968a4.981,4.981,0,0,0,4.774-2.578c.454-.968,2.51-4.942,3.154-5.973C366.572,84.529,188.358,84.407,188.96,85.462Z" transform="translate(-188.413 12.687)" fill="#57b33e"/>
        <path id="Path_77981" data-name="Path 77981" d="M366.571,138.715c1.118,5.063-1.141,9.263-5.075,9.263H194.1c-3.934,0-6.2-4.2-5.078-9.263L208.332,51.33a7.1,7.1,0,0,1,6.56-5.449H340.708a7.1,7.1,0,0,1,6.557,5.449Z" transform="translate(-188.741 -45.881)" fill="#ededed"/>
        <path id="Path_77982" data-name="Path 77982" d="M191.59,136.571a4.733,4.733,0,0,1,.1-.6l19.275-87.247H335.989l19.331,87.247a5.473,5.473,0,0,1,.1.6Z" transform="translate(-184.446 -41.598)" fill="#566472"/>
      </g>
      <path id="Path_77983" data-name="Path 77983" d="M311.958,109.647h33.975l-.331-1.5H311.783L309.42,87.8h31.673l-.333-1.5H309.245l-2.2-18.949h29.516l-.333-1.5H306.87l-1.988-17.121h-3.295l1.8,17.121H271.5l-.083-17.121H268.48L268.4,65.843H236.491l1.8-17.121h-3.3l-1.981,17.121H203.625l-.331,1.5H232.83L230.636,86.3h-31.53l-.331,1.5h31.688l-2.357,20.341H194.281l-.333,1.5h33.985l-3.119,26.923h4.258l2.823-26.923h36.292l-.13,26.923h3.789l-.13-26.923h36.279l2.833,26.923h4.258Zm-43.767-1.5H232.053L234.187,87.8h34.1ZM268.3,86.3H234.345l1.988-18.949h32.056Zm3.212-18.949h32.036L305.539,86.3H271.6Zm.2,40.795-.1-20.341H305.7l2.139,20.341Z" transform="translate(-180.89 -41.597)" fill="#ededed"/>
      <path id="Path_77984" data-name="Path 77984" d="M235.97,136.571H207.015l87.849-87.849h28.955Zm108.007-30.288L338.641,82.2,284.27,136.571h29.418Zm-97.411-57.56H206.2l-11.447,51.816Z" transform="translate(-179.679 -41.597)" fill="#fff" opacity="0.3"/>
    </g>
  </g>
</svg>
