<svg xmlns="http://www.w3.org/2000/svg" width="320" height="320" viewBox="0 0 320 320">
  <g id="Group_13642" data-name="Group 13642" transform="translate(-1205 -4740)">
    <g id="Group_13641" data-name="Group 13641">
      <rect id="Rectangle_1" data-name="Rectangle 1" width="320" height="320" rx="160" transform="translate(1205 4740)" fill="#f0f4f9" opacity="0.6"/>
      <g id="Group_13539" data-name="Group 13539" transform="translate(1289.001 4796)" style="isolation: isolate">
        <g id="Group_13538" data-name="Group 13538" transform="translate(9.199 0)">
          <g id="Group_13536" data-name="Group 13536">
            <path id="Path_78012" data-name="Path 78012" d="M171.154,105.729c0-.318.015-9.967,0-10.283-.893-18.2-27.3-1.023-59.722-1.023-30.923,0-56.615-14.647-59.675,2.375,0,0-.048,7.766-.048,8.932,0,18.644,26.738,33.756,59.722,33.756S171.154,124.372,171.154,105.729Z" transform="translate(-44.531 56.96)" fill="#dbdbdb"/>
            <ellipse id="Ellipse_1393" data-name="Ellipse 1393" cx="59.722" cy="33.756" rx="59.722" ry="33.756" transform="translate(7.18 118.65)" fill="#57b33e"/>
            <ellipse id="Ellipse_1394" data-name="Ellipse 1394" cx="56.412" cy="30.445" rx="56.412" ry="30.445" transform="translate(10.489 121.961)" fill="#777f7f"/>
            <g id="Group_13535" data-name="Group 13535">
              <g id="Group_13520" data-name="Group 13520" transform="translate(74.151 5.537)">
                <g id="Group_13511" data-name="Group 13511" transform="translate(31.016)">
                  <g id="Group_13508" data-name="Group 13508" transform="translate(0 21.379)">
                    <path id="Path_78013" data-name="Path 78013" d="M107.966,44.942c0-2.209-3.847-4-8.588-4s-8.591,1.79-8.591,4,3.847,6.389,8.591,6.389S107.966,47.151,107.966,44.942Z" transform="translate(-90.787 -39.513)" fill="#777f7f"/>
                    <path id="Path_78014" data-name="Path 78014" d="M107.966,46.187c0-2.207-3.847-5.815-8.588-5.815s-8.591,3.608-8.591,5.815,3.847,4,8.591,4S107.966,48.4,107.966,46.187Z" transform="translate(-90.787 -40.372)" fill="#eaeaea"/>
                  </g>
                  <g id="Group_13509" data-name="Group 13509" transform="translate(0 10.69)">
                    <path id="Path_78015" data-name="Path 78015" d="M107.966,40.834c0-2.209-3.847-4-8.588-4s-8.591,1.79-8.591,4c0,1.176,3.847,6.387,8.591,6.387S107.966,43.043,107.966,40.834Z" transform="translate(-90.787 -35.016)" fill="#777f7f"/>
                    <path id="Path_78016" data-name="Path 78016" d="M107.966,41.926c0-2.209-3.847-5.817-8.588-5.817s-8.591,3.608-8.591,5.817,3.847,4,8.591,4S107.966,44.136,107.966,41.926Z" transform="translate(-90.787 -36.109)" fill="#eaeaea"/>
                  </g>
                  <g id="Group_13510" data-name="Group 13510">
                    <path id="Path_78017" data-name="Path 78017" d="M107.966,36.417c0-2.209-3.847-4-8.588-4s-8.591,1.79-8.591,4,3.847,6.389,8.591,6.389S107.966,38.626,107.966,36.417Z" transform="translate(-90.787 -30.985)" fill="#777f7f"/>
                    <path id="Path_78018" data-name="Path 78018" d="M107.966,37.663c0-2.209-3.847-5.817-8.588-5.817s-8.591,3.608-8.591,5.817,3.847,4,8.591,4S107.966,39.873,107.966,37.663Z" transform="translate(-90.787 -31.846)" fill="#eaeaea"/>
                  </g>
                </g>
                <g id="Group_13515" data-name="Group 13515" transform="translate(15.507 6.906)">
                  <g id="Group_13512" data-name="Group 13512" transform="translate(0 21.377)">
                    <path id="Path_78019" data-name="Path 78019" d="M101.781,47.85c0-2.209-3.844-4-8.588-4s-8.591,1.79-8.591,4,3.847,6.389,8.591,6.389S101.781,50.059,101.781,47.85Z" transform="translate(-84.602 -42.032)" fill="#777f7f"/>
                    <path id="Path_78020" data-name="Path 78020" d="M101.781,48.942c0-2.209-3.844-5.817-8.588-5.817S84.6,46.733,84.6,48.942s3.847,4,8.591,4S101.781,51.152,101.781,48.942Z" transform="translate(-84.602 -43.125)" fill="#eaeaea"/>
                  </g>
                  <g id="Group_13513" data-name="Group 13513" transform="translate(0 10.69)">
                    <path id="Path_78021" data-name="Path 78021" d="M101.781,43.433c0-2.209-3.844-4-8.588-4s-8.591,1.79-8.591,4,3.847,6.389,8.591,6.389S101.781,45.642,101.781,43.433Z" transform="translate(-84.602 -38.004)" fill="#777f7f"/>
                    <path id="Path_78022" data-name="Path 78022" d="M101.781,44.678c0-2.207-3.844-5.815-8.588-5.815S84.6,42.471,84.6,44.678s3.847,4,8.591,4S101.781,46.89,101.781,44.678Z" transform="translate(-84.602 -38.863)" fill="#eaeaea"/>
                  </g>
                  <g id="Group_13514" data-name="Group 13514">
                    <path id="Path_78023" data-name="Path 78023" d="M101.781,39.325c0-2.209-3.844-4-8.588-4s-8.591,1.79-8.591,4,3.847,6.387,8.591,6.387S101.781,41.534,101.781,39.325Z" transform="translate(-84.602 -33.507)" fill="#777f7f"/>
                    <path id="Path_78024" data-name="Path 78024" d="M101.781,40.417c0-2.209-3.844-5.817-8.588-5.817S84.6,38.208,84.6,40.417s3.847,4,8.591,4S101.781,42.627,101.781,40.417Z" transform="translate(-84.602 -34.6)" fill="#eaeaea"/>
                  </g>
                </g>
                <g id="Group_13519" data-name="Group 13519" transform="translate(0 13.811)">
                  <g id="Group_13516" data-name="Group 13516" transform="translate(0 21.377)">
                    <path id="Path_78025" data-name="Path 78025" d="M95.6,50.6c0-2.209-3.847-4-8.591-4s-8.588,1.79-8.588,4,3.844,6.389,8.588,6.389S95.6,52.813,95.6,50.6Z" transform="translate(-78.418 -44.786)" fill="#777f7f"/>
                    <path id="Path_78026" data-name="Path 78026" d="M95.6,51.7c0-2.209-3.847-5.817-8.591-5.817s-8.588,3.608-8.588,5.817,3.844,4,8.588,4S95.6,53.906,95.6,51.7Z" transform="translate(-78.418 -45.879)" fill="#eaeaea"/>
                  </g>
                  <g id="Group_13517" data-name="Group 13517" transform="translate(0 10.687)">
                    <path id="Path_78027" data-name="Path 78027" d="M95.6,46.341c0-2.209-3.847-4-8.591-4s-8.588,1.79-8.588,4,3.844,6.389,8.588,6.389S95.6,48.55,95.6,46.341Z" transform="translate(-78.418 -40.523)" fill="#777f7f"/>
                    <path id="Path_78028" data-name="Path 78028" d="M95.6,47.433c0-2.209-3.847-5.817-8.591-5.817s-8.588,3.608-8.588,5.817,3.844,4,8.588,4S95.6,49.643,95.6,47.433Z" transform="translate(-78.418 -41.616)" fill="#eaeaea"/>
                  </g>
                  <g id="Group_13518" data-name="Group 13518">
                    <path id="Path_78029" data-name="Path 78029" d="M95.6,42.078c0-2.209-3.847-4-8.591-4s-8.588,1.79-8.588,4,3.844,6.389,8.588,6.389S95.6,44.289,95.6,42.078Z" transform="translate(-78.418 -36.263)" fill="#777f7f"/>
                    <path id="Path_78030" data-name="Path 78030" d="M95.6,43.169c0-2.209-3.847-5.815-8.591-5.815s-8.588,3.606-8.588,5.815,3.844,4,8.588,4S95.6,45.381,95.6,43.169Z" transform="translate(-78.418 -37.354)" fill="#eaeaea"/>
                  </g>
                </g>
              </g>
              <path id="Path_78031" data-name="Path 78031" d="M123.578,36.9l-2.257,2.91L77.344,42.144l3.017-2.361Z" transform="translate(-5.887 -18.688)" fill="#aab7b7"/>
              <path id="Path_78032" data-name="Path 78032" d="M103.836,63.885,74.957,50.122l47.7-19.158,18.094,5.073v3.327ZM83.325,50.192l21.69,9.634L133.39,38.918l-10.379-4.925Z" transform="translate(-9.485 -27.639)" fill="#aab7b7"/>
              <path id="Path_78033" data-name="Path 78033" d="M103.836,62.559,74.957,48.793l47.7-19.155,18.094,8.4ZM81.584,49.575,103.608,61l31-22.831-11.6-5.507Z" transform="translate(-9.485 -29.638)" fill="#f7f7f7"/>
              <path id="Path_78034" data-name="Path 78034" d="M85.684,57.229l3.609-.276,3.413-24.261-3.609.276Z" transform="translate(6.686 -25.034)" fill="#f7f7f7"/>
              <path id="Path_78035" data-name="Path 78035" d="M123.578,35.912l-2.257,2.91L77.344,41.153l3.017-2.361Z" transform="translate(-5.887 -20.18)" fill="#f7f7f7"/>
              <path id="Path_78036" data-name="Path 78036" d="M88.019,34.172l27.826-1.856c.885.73,1.748,1.482,2.608,2.239l-.283.366L87.66,36.539C87.78,35.749,87.9,34.961,88.019,34.172Z" transform="translate(9.665 -25.601)" fill="#f7f7f7"/>
              <g id="Group_13521" data-name="Group 13521" transform="translate(14.474 1.025)">
                <path id="Path_78037" data-name="Path 78037" d="M86.139,125.779l19.087,7.575V156l2.846-1.432,0-124.516-23,11.565L54.724,180.82l2.7-.787L63,154.473ZM63.9,150.366l6.7-30.752,13.709,5.439ZM93,66.251l12.187,4.835-14.87,18.44-12.111-4.8.035-.168Zm-13.864,14.2,3.954-18.129,8.079,3.207ZM88.084,92.3l-15.8,19.6,5.191-23.806ZM95.236,63.48l9.99-12.387V67.444Zm9.99,10.557v21.4L92.149,90.253Zm0,25.075L86.542,122.284l-15.208-6.036.053-.248L89.915,93.024,105.226,99.1Zm0-65.271V48.1L93.405,62.753l-9.581-3.8,3.513-16.113ZM88.373,123.009l16.853-20.9V129.7Z" transform="translate(-54.461 -30.047)" fill="#777f7f"/>
                <path id="Path_78038" data-name="Path 78038" d="M86.387,126.4l19.09,7.573v22.643l2.846-1.432,0-124.516-23,11.565L55.268,180.074l2.41.574,5.572-25.559ZM64.145,150.982l6.7-30.752,13.709,5.439ZM93.252,66.867,105.439,71.7,90.567,90.142l-12.111-4.8.038-.168Zm-13.864,14.2L83.34,62.932l8.082,3.207Zm8.944,11.851-15.8,19.6L77.721,88.7ZM95.486,64.1l9.988-12.387V68.058Zm9.988,10.557,0,21.4L92.4,90.869Zm0,25.073L86.79,122.9l-15.208-6.036.055-.248L90.165,93.64l15.311,6.076Zm0-65.269V48.712L93.656,63.369l-9.581-3.8,3.513-16.113ZM88.621,123.625l16.856-20.9v27.59Z" transform="translate(-53.641 -29.118)" fill="#aab7b7"/>
                <path id="Path_78039" data-name="Path 78039" d="M121.059,154.473l5.572,25.559,2.643.507L98.985,41.612l-23-11.565,0,124.516L78.832,156v-22.64l19.087-7.575ZM99.75,125.052l13.709-5.439,6.705,30.752Zm6.066-40.5.035.168-12.111,4.8L78.87,71.085l12.187-4.835ZM92.887,65.524l8.079-3.207,3.954,18.129Zm13.7,22.563,5.191,23.806-15.8-19.6ZM78.832,67.444V51.093l9.99,12.387ZM91.909,90.253,78.832,95.441v-21.4ZM78.832,99.1l15.311-6.076L112.671,116l.053.248-15.206,6.036L78.832,99.112ZM96.721,42.838l3.513,16.113-9.581,3.8L78.832,48.1V33.841ZM78.832,129.7V102.108l16.853,20.9Z" transform="translate(-22.407 -30.047)" fill="#777f7f"/>
                <path id="Path_78040" data-name="Path 78040" d="M120.68,155.089l5.572,25.559,1.973-.441L98.606,42.228l-23-11.565,0,124.516,2.846,1.432V133.968L97.54,126.4ZM99.371,125.668l13.709-5.439,6.705,30.752Zm6.066-40.5.035.168-12.111,4.8L78.491,71.7l12.187-4.835ZM92.508,66.14l8.079-3.207,3.954,18.129Zm13.7,22.563,5.191,23.807-15.8-19.6ZM78.453,68.058V51.709L88.443,64.1ZM91.53,90.869,78.453,96.057v-21.4ZM78.453,99.715,93.764,93.64l18.528,22.977.053.248L97.139,122.9,78.453,99.725ZM96.342,43.454l3.513,16.113-9.581,3.8L78.453,48.712V34.457ZM78.453,130.312v-27.59l16.853,20.9Z" transform="translate(-22.979 -29.118)" fill="#aab7b7"/>
                <path id="Path_78041" data-name="Path 78041" d="M97.235,141.115l23.375,8.245,5.562,25.4,1.69,1.575L97.348,34.4,75.357,46.706,75.344,204l2.856-1.642,0-28.746ZM78.2,168.994l0-34.589,16.785,5.92ZM90.349,74.242,105.272,79.5,93.04,100.39,78.208,95.159v-.188ZM78.208,90.353l0-20.391,9.9,3.49ZM91.2,103.527l-13,22.194,0-26.775ZM92.187,71.1l8.215-14.03,4.017,18.343Zm13.852,11.71L111.3,106.83,95.284,101.18Zm6.161,28.129L96.829,137.188l-18.624-6.567v-.281l15.241-26.021,18.749,6.612ZM96.164,37.722l3.5,15.991-9.724,16.6L78.21,66.175l0-18.124ZM99.07,137.978l13.864-23.671,6.778,30.95Z" transform="translate(-23.375 -23.489)" fill="#dbdbdb"/>
                <path id="Path_78042" data-name="Path 78042" d="M97.906,142.325l23.378,8.245,5.562,25.4,2.856-1.645L99.112,34.637,76.031,47.917l-.013,157.295,2.856-1.642V174.823ZM78.877,170.2l0-34.589,16.785,5.92ZM91.023,75.452l14.922,5.263L93.714,101.6,78.882,96.37v-.188ZM78.882,91.563l0-20.391,9.895,3.49Zm12.994,13.175-13,22.194,0-26.775Zm.983-32.422,8.217-14.03,4.017,18.343Zm13.854,11.71,5.258,24.015-16.016-5.647Zm6.159,28.129L97.5,138.4l-18.624-6.567v-.281L94.117,105.53l18.751,6.612ZM96.838,38.932l3.5,15.991-9.722,16.6L78.884,67.388V49.261Zm2.906,100.256,13.864-23.671,6.778,30.95Z" transform="translate(-22.359 -23.127)" fill="#aab7b7"/>
                <path id="Path_78043" data-name="Path 78043" d="M105.153,173.4l0,28.746,2.854,1.642L108,46.495,85.115,34.649l-29.358,141.3,1.424-1.407,5.562-25.4L86.121,140.9ZM88.363,140.113l16.785-5.92.005,34.589ZM105.146,94.76v.188l-14.832,5.231L78.082,79.293,93.007,74.03Zm-9.9-21.52,9.895-3.49,0,20.391Zm9.9,25.494,0,26.775-13-22.194ZM78.934,75.206l4.017-18.343,8.217,14.03Zm9.137,25.762-16.016,5.647L77.314,82.6Zm-16.913,9.749,18.751-6.61,15.238,26.021v.278l-18.624,6.57L71.156,110.732Zm33.985-62.879V65.963L93.41,70.1,83.689,53.5l3.5-15.991Zm-41.5,97.207,6.778-30.95,13.864,23.671Z" transform="translate(-52.903 -23.109)" fill="#aab7b7"/>
                <path id="Path_78044" data-name="Path 78044" d="M105.444,174.823l0,28.746,2.856,1.642L108.29,47.917,85.209,34.637,54.619,174.326l2.854,1.645,5.562-25.4,23.378-8.245ZM88.654,141.535l16.788-5.92,0,34.589Zm16.786-45.354v.188L90.6,101.6,78.373,80.715,93.3,75.452Zm-9.9-21.52,9.9-3.49,0,20.391Zm9.9,25.494,0,26.775-13-22.194ZM79.228,76.628l4.017-18.343,8.215,14.03Zm9.135,25.765L72.35,108.04l5.258-24.015ZM71.45,112.142,90.2,105.53l15.241,26.021v.281L86.818,138.4,71.447,112.155Zm33.985-62.881,0,18.127L93.7,71.525l-9.722-16.6,3.5-15.991Zm-41.5,97.207,6.778-30.95,13.862,23.671Z" transform="translate(-54.619 -23.127)" fill="#dbdbdb"/>
                <path id="Path_78045" data-name="Path 78045" d="M66.818,41.558l23,13.261,23.168-13.261L89.81,30.047Z" transform="translate(-36.229 -30.047)" fill="#f7f7f7"/>
              </g>
              <g id="Group_13534" data-name="Group 13534" transform="translate(1.57 42.129)">
                <g id="Group_13525" data-name="Group 13525" transform="translate(31.018)">
                  <g id="Group_13522" data-name="Group 13522" transform="translate(0 21.379)">
                    <path id="Path_78046" data-name="Path 78046" d="M79.02,59.535c0-2.209-3.844-4-8.588-4s-8.588,1.79-8.588,4,3.844,6.389,8.588,6.389S79.02,61.744,79.02,59.535Z" transform="translate(-61.843 -54.106)" fill="#777f7f"/>
                    <path id="Path_78047" data-name="Path 78047" d="M79.02,60.78c0-2.209-3.844-5.815-8.588-5.815s-8.588,3.606-8.588,5.815,3.844,4,8.588,4S79.02,62.989,79.02,60.78Z" transform="translate(-61.843 -54.965)" fill="#eaeaea"/>
                  </g>
                  <g id="Group_13523" data-name="Group 13523" transform="translate(0 10.69)">
                    <path id="Path_78048" data-name="Path 78048" d="M79.02,55.428c0-2.209-3.844-4-8.588-4s-8.588,1.793-8.588,4c0,1.176,3.844,6.387,8.588,6.387S79.02,57.637,79.02,55.428Z" transform="translate(-61.843 -49.611)" fill="#777f7f"/>
                    <path id="Path_78049" data-name="Path 78049" d="M79.02,56.519c0-2.209-3.844-5.817-8.588-5.817s-8.588,3.608-8.588,5.817,3.844,4,8.588,4S79.02,58.729,79.02,56.519Z" transform="translate(-61.843 -50.702)" fill="#eaeaea"/>
                  </g>
                  <g id="Group_13524" data-name="Group 13524">
                    <path id="Path_78050" data-name="Path 78050" d="M79.02,51.011c0-2.209-3.844-4-8.588-4s-8.588,1.793-8.588,4S65.687,57.4,70.431,57.4,79.02,53.22,79.02,51.011Z" transform="translate(-61.843 -45.58)" fill="#777f7f"/>
                    <path id="Path_78051" data-name="Path 78051" d="M79.02,52.256c0-2.209-3.844-5.817-8.588-5.817s-8.588,3.608-8.588,5.817,3.844,4,8.588,4S79.02,54.466,79.02,52.256Z" transform="translate(-61.843 -46.439)" fill="#eaeaea"/>
                  </g>
                </g>
                <g id="Group_13529" data-name="Group 13529" transform="translate(15.509 6.906)">
                  <g id="Group_13526" data-name="Group 13526" transform="translate(0 21.377)">
                    <path id="Path_78052" data-name="Path 78052" d="M72.837,62.443c0-2.209-3.847-4-8.591-4s-8.588,1.79-8.588,4,3.847,6.389,8.588,6.389S72.837,64.652,72.837,62.443Z" transform="translate(-55.658 -56.625)" fill="#777f7f"/>
                    <path id="Path_78053" data-name="Path 78053" d="M72.837,63.535c0-2.209-3.847-5.817-8.591-5.817s-8.588,3.608-8.588,5.817,3.847,4,8.588,4S72.837,65.745,72.837,63.535Z" transform="translate(-55.658 -57.718)" fill="#eaeaea"/>
                  </g>
                  <g id="Group_13527" data-name="Group 13527" transform="translate(0 10.69)">
                    <path id="Path_78054" data-name="Path 78054" d="M72.837,58.026c0-2.209-3.847-4-8.591-4s-8.588,1.79-8.588,4,3.847,6.389,8.588,6.389S72.837,60.235,72.837,58.026Z" transform="translate(-55.658 -52.597)" fill="#777f7f"/>
                    <path id="Path_78055" data-name="Path 78055" d="M72.837,59.271c0-2.209-3.847-5.815-8.591-5.815s-8.588,3.606-8.588,5.815,3.847,4,8.588,4S72.837,61.48,72.837,59.271Z" transform="translate(-55.658 -53.456)" fill="#eaeaea"/>
                  </g>
                  <g id="Group_13528" data-name="Group 13528">
                    <path id="Path_78056" data-name="Path 78056" d="M72.837,53.919c0-2.209-3.847-4-8.591-4s-8.588,1.793-8.588,4,3.847,6.387,8.588,6.387S72.837,56.128,72.837,53.919Z" transform="translate(-55.658 -48.102)" fill="#777f7f"/>
                    <path id="Path_78057" data-name="Path 78057" d="M72.837,55.01c0-2.209-3.847-5.817-8.591-5.817S55.658,52.8,55.658,55.01s3.847,4,8.588,4S72.837,57.22,72.837,55.01Z" transform="translate(-55.658 -49.193)" fill="#eaeaea"/>
                  </g>
                </g>
                <g id="Group_13533" data-name="Group 13533" transform="translate(0 13.811)">
                  <g id="Group_13530" data-name="Group 13530" transform="translate(0 21.377)">
                    <path id="Path_78058" data-name="Path 78058" d="M66.652,65.2c0-2.209-3.844-4-8.588-4s-8.591,1.79-8.591,4,3.847,6.389,8.591,6.389S66.652,67.406,66.652,65.2Z" transform="translate(-49.473 -59.379)" fill="#777f7f"/>
                    <path id="Path_78059" data-name="Path 78059" d="M66.652,66.289c0-2.209-3.844-5.817-8.588-5.817s-8.591,3.608-8.591,5.817,3.847,4,8.591,4S66.652,68.5,66.652,66.289Z" transform="translate(-49.473 -60.472)" fill="#eaeaea"/>
                  </g>
                  <g id="Group_13531" data-name="Group 13531" transform="translate(0 10.687)">
                    <path id="Path_78060" data-name="Path 78060" d="M66.652,60.934c0-2.209-3.844-4-8.588-4s-8.591,1.79-8.591,4,3.847,6.389,8.591,6.389S66.652,63.143,66.652,60.934Z" transform="translate(-49.473 -55.116)" fill="#777f7f"/>
                    <path id="Path_78061" data-name="Path 78061" d="M66.652,62.026c0-2.209-3.844-5.817-8.588-5.817s-8.591,3.608-8.591,5.817,3.847,4,8.591,4S66.652,64.236,66.652,62.026Z" transform="translate(-49.473 -56.209)" fill="#eaeaea"/>
                  </g>
                  <g id="Group_13532" data-name="Group 13532">
                    <path id="Path_78062" data-name="Path 78062" d="M66.652,56.671c0-2.209-3.844-4-8.588-4s-8.591,1.79-8.591,4,3.847,6.389,8.591,6.389S66.652,58.88,66.652,56.671Z" transform="translate(-49.473 -50.856)" fill="#777f7f"/>
                    <path id="Path_78063" data-name="Path 78063" d="M66.652,57.762c0-2.209-3.844-5.815-8.588-5.815s-8.591,3.606-8.591,5.815,3.847,4,8.591,4S66.652,59.971,66.652,57.762Z" transform="translate(-49.473 -51.947)" fill="#eaeaea"/>
                  </g>
                </g>
              </g>
              <path id="Path_78064" data-name="Path 78064" d="M59.96,76.837,48.847,71.5V68.625L89.738,42.8,117.2,54.078v4.376Zm-6.327-6.459,6.291,3.137,48.14-18.5L90.7,46.987Z" transform="translate(-48.847 -9.8)" fill="#aab7b7"/>
              <path id="Path_78065" data-name="Path 78065" d="M74.332,55.625c-.873.4-1.735.8-2.59,1.226L49.906,58.01c-.023-1.143-.013-2.287.058-3.43l28.127-2.141c.03.218.04.436.068.654A20.45,20.45,0,0,1,74.332,55.625Z" transform="translate(-47.266 4.734)" fill="#aab7b7"/>
              <path id="Path_78066" data-name="Path 78066" d="M60.534,67.706l3.673-.262,9.051-23.087-3.673.262Z" transform="translate(-31.228 -7.449)" fill="#aab7b7"/>
              <path id="Path_78067" data-name="Path 78067" d="M103.024,47.391l-3.115,4.62L55.931,54.343,57.9,50.828Z" transform="translate(-38.168 -2.875)" fill="#aab7b7"/>
              <path id="Path_78068" data-name="Path 78068" d="M59.96,74.824,48.847,69.485,89.738,42.226l27.255,12.6ZM51.821,69.5l7.911,3.658,51.9-19.243L90.7,44.237Z" transform="translate(-48.847 -10.661)" fill="#f7f7f7"/>
              <path id="Path_78069" data-name="Path 78069" d="M60.534,66.294l3.673-.263,9.051-23.087-3.673.262Z" transform="translate(-31.228 -9.579)" fill="#f7f7f7"/>
              <path id="Path_78070" data-name="Path 78070" d="M102.165,46.713l-2.257,2.91L55.931,51.955l3.017-2.361Z" transform="translate(-38.168 -3.897)" fill="#f7f7f7"/>
              <path id="Path_78071" data-name="Path 78071" d="M74.348,54.514,49.922,55.735c.023-.344.035-.685.07-1.028a4.269,4.269,0,0,0-.018-.948l.316-.246,27.478-1.83C77.914,52.523,74.363,54.5,74.348,54.514Z" transform="translate(-47.226 3.595)" fill="#f7f7f7"/>
            </g>
          </g>
          <g id="Group_13537" data-name="Group 13537" transform="translate(98.701 8.462)">
            <path id="Path_78072" data-name="Path 78072" d="M88.544,34.741l25.938-1.729.152.072-3.863,2.845-22.562,1.2Z" transform="translate(-88.209 -33.012)" fill="#aab7b7"/>
          </g>
        </g>
      </g>
    </g>
  </g>
</svg>
